<svg width="45" height="13" viewBox="0 0 45 13" fill="none" xmlns="http://www.w3.org/2000/svg">
<path d="M2.26074 5.32227L18.9355 11.8408C20.0586 12.2803 21.4014 12.8174 22.5 12.8174C23.5742 12.8174 24.9414 12.2803 26.0645 11.8408L42.7148 5.32227C43.6426 4.95605 44.2529 4.12598 44.2529 3.22266C44.2529 1.78223 43.2031 0.708008 41.7871 0.708008C41.0547 0.708008 40.0781 1.12305 39.4678 1.34277L22.5 8.00781L5.50781 1.34277C4.89746 1.12305 3.94531 0.708008 3.18848 0.708008C1.77246 0.708008 0.722656 1.78223 0.722656 3.22266C0.722656 4.12598 1.33301 4.95605 2.26074 5.32227Z" fill="white"/>
</svg>
