<svg width="374" height="242" viewBox="0 0 374 242" fill="none" xmlns="http://www.w3.org/2000/svg">
<g filter="url(#filter0_d_134_11089)">
<path d="M12 20C12 13.3726 17.3726 8 24 8H350C356.627 8 362 13.3726 362 20V214C362 220.627 356.627 226 350 226H24C17.3726 226 12 220.627 12 214V20Z" fill="white"/>
<path d="M72.9615 45.1786H67.5044C67.1277 45.1786 66.8223 44.8732 66.8223 44.4965V39.0394C66.8223 38.6626 67.1277 38.3572 67.5044 38.3572H72.9615C73.3382 38.3572 73.6436 38.6626 73.6436 39.0394V44.4965C73.6436 44.8732 73.3382 45.1786 72.9615 45.1786Z" fill="#F96D7E"/>
<path d="M66.1392 50.636H62.0464C61.6697 50.636 61.3643 50.3306 61.3643 49.9539V45.861C61.3643 45.4843 61.6697 45.1789 62.0464 45.1789H66.1392C66.5159 45.1789 66.8213 45.4843 66.8213 45.861V49.9539C66.8213 50.3306 66.5159 50.636 66.1392 50.636Z" fill="#F96D7E"/>
<path d="M78.4166 38.3573H74.3237C73.947 38.3573 73.6416 38.0519 73.6416 37.6752V33.5823C73.6416 33.2056 73.947 32.9002 74.3237 32.9002H78.4166C78.7933 32.9002 79.0987 33.2056 79.0987 33.5823V37.6752C79.0987 38.0519 78.7933 38.3573 78.4166 38.3573Z" fill="#F96D7E"/>
<path d="M78.4185 50.636H75.69C75.3132 50.636 75.0078 50.3306 75.0078 49.9539V47.2253C75.0078 46.8486 75.3132 46.5432 75.69 46.5432H78.4185C78.7953 46.5432 79.1007 46.8486 79.1007 47.2253V49.9539C79.1007 50.3306 78.7953 50.636 78.4185 50.636Z" fill="#F96D7E"/>
<path d="M64.7749 36.9932H62.0464C61.6697 36.9932 61.3643 36.6878 61.3643 36.311V33.5825C61.3643 33.2057 61.6697 32.9003 62.0464 32.9003H64.7749C65.1517 32.9003 65.4571 33.2057 65.4571 33.5825V36.311C65.4571 36.6878 65.1517 36.9932 64.7749 36.9932Z" fill="#F96D7E"/>
<path d="M76.3715 71.1001H64.093C63.3694 71.1001 62.6753 70.8126 62.1636 70.3009C61.6519 69.7892 61.3645 69.0952 61.3645 68.3716V56.0931C61.3645 55.3694 61.6519 54.6754 62.1636 54.1637C62.6753 53.652 63.3694 53.3646 64.093 53.3646H76.3715C77.0951 53.3646 77.7891 53.652 78.3008 54.1637C78.8125 54.6754 79.1 55.3694 79.1 56.0931V68.3716C79.1 69.0952 78.8125 69.7892 78.3008 70.3009C77.7891 70.8126 77.0951 71.1001 76.3715 71.1001ZM73.6429 59.5038C73.6429 59.3229 73.571 59.1494 73.4431 59.0214C73.3152 58.8935 73.1417 58.8216 72.9608 58.8216H67.5037C67.3228 58.8216 67.1493 58.8935 67.0213 59.0214C66.8934 59.1494 66.8216 59.3229 66.8216 59.5038V64.9609C66.8216 65.1418 66.8934 65.3153 67.0213 65.4432C67.1493 65.5711 67.3228 65.643 67.5037 65.643H72.9608C73.1417 65.643 73.3152 65.5711 73.4431 65.4432C73.571 65.3153 73.6429 65.1418 73.6429 64.9609V59.5038ZM55.9074 71.1001H43.6289C42.9053 71.1001 42.2113 70.8126 41.6996 70.3009C41.1879 69.7892 40.9004 69.0952 40.9004 68.3716V56.0931C40.9004 55.3694 41.1879 54.6754 41.6996 54.1637C42.2113 53.652 42.9053 53.3646 43.6289 53.3646H55.9074C56.631 53.3646 57.325 53.652 57.8368 54.1637C58.3485 54.6754 58.6359 55.3694 58.6359 56.0931V68.3716C58.6359 69.0952 58.3485 69.7892 57.8368 70.3009C57.325 70.8126 56.631 71.1001 55.9074 71.1001ZM53.1788 59.5038C53.1788 59.3229 53.107 59.1494 52.979 59.0214C52.8511 58.8935 52.6776 58.8216 52.4967 58.8216H47.0396C46.8587 58.8216 46.6852 58.8935 46.5573 59.0214C46.4293 59.1494 46.3575 59.3229 46.3575 59.5038V64.9609C46.3575 65.1418 46.4293 65.3153 46.5573 65.4432C46.6852 65.5711 46.8587 65.643 47.0396 65.643H52.4967C52.6776 65.643 52.8511 65.5711 52.979 65.4432C53.107 65.3153 53.1788 65.1418 53.1788 64.9609V59.5038ZM55.9074 50.636H43.6289C42.9053 50.636 42.2113 50.3485 41.6996 49.8368C41.1879 49.3251 40.9004 48.6311 40.9004 47.9075V35.629C40.9004 34.9054 41.1879 34.2113 41.6996 33.6996C42.2113 33.1879 42.9053 32.9005 43.6289 32.9005H55.9074C56.631 32.9005 57.325 33.1879 57.8368 33.6996C58.3485 34.2113 58.6359 34.9054 58.6359 35.629V47.9075C58.6359 48.6311 58.3485 49.3251 57.8368 49.8368C57.325 50.3485 56.631 50.636 55.9074 50.636ZM53.1788 39.0397C53.1788 38.8588 53.107 38.6853 52.979 38.5574C52.8511 38.4294 52.6776 38.3576 52.4967 38.3576H47.0396C46.8587 38.3576 46.6852 38.4294 46.5573 38.5574C46.4293 38.6853 46.3575 38.8588 46.3575 39.0397V44.4968C46.3575 44.6777 46.4293 44.8512 46.5573 44.9791C46.6852 45.1071 46.8587 45.1789 47.0396 45.1789H52.4967C52.6776 45.1789 52.8511 45.1071 52.979 44.9791C53.107 44.8512 53.1788 44.6777 53.1788 44.4968V39.0397Z" fill="#F96D7E"/>
<path d="M46.73 118V117.88C44.75 117.16 44.39 116.17 44.39 113.86V98.5H45.5C48.14 98.5 48.38 98.8 51.32 102.58H51.47L50.99 97.3H33.32L32.84 102.58H32.96C35.93 98.8 36.11 98.5 38.78 98.5H39.89V113.86C39.89 116.17 39.56 117.16 37.55 117.88V118H46.73ZM67.5266 116.89C65.5766 116.11 65.2766 115.45 65.2766 112.81V102.34H65.1566C63.4766 102.88 60.9866 103.54 58.8266 103.69V103.81C60.7766 104.59 61.0766 105.25 61.0766 107.89V115.45C60.3566 115.81 59.8766 115.93 59.0066 115.93C57.6566 115.93 56.0666 115.15 56.0666 112.9V102.34H55.9466C54.2666 102.88 51.7766 103.54 49.6166 103.69V103.81C51.5666 104.59 51.8666 105.25 51.8666 107.89V113.44C51.8666 117.25 53.9366 118.36 56.1266 118.36C58.3166 118.36 59.9966 116.86 61.1366 115.87V118.36H61.2566C62.9366 117.82 64.9166 117.25 67.5266 117.01V116.89ZM86.3143 116.89C84.3643 116.11 84.0643 115.45 84.0643 112.81V95.38H83.9443C82.2643 95.92 79.5043 96.58 77.3443 96.73V96.85C79.4443 97.63 79.7443 98.29 79.7443 100.93V102.58C79.0243 102.46 78.1843 102.34 77.3743 102.34C73.1743 102.34 68.4043 105.61 68.4043 111.16C68.4043 115.75 71.6143 118.36 74.4343 118.36C76.9243 118.36 78.7243 116.89 79.7443 115.81V118.36H79.8643C81.5443 117.82 83.7043 117.25 86.3143 117.01V116.89ZM79.7443 115.48C79.1443 115.78 78.4843 115.93 77.7943 115.93C75.2443 115.93 72.7243 113.89 72.7243 109.75C72.7243 106 74.9143 103.24 77.1043 103.24C78.2143 103.24 79.0843 104.02 79.7443 104.86V115.48ZM103.599 110.35C103.599 105.58 99.6385 102.34 95.3485 102.34C91.0885 102.34 87.1285 105.58 87.1285 110.35C87.1285 114.88 90.9085 118.36 95.3485 118.36C99.7885 118.36 103.599 114.88 103.599 110.35ZM95.3485 117.46C92.6485 117.46 91.6885 113.86 91.6885 110.35C91.6885 106.36 92.9185 103.24 95.3485 103.24C97.7785 103.24 99.0385 106.36 99.0385 110.35C99.0385 113.86 98.0785 117.46 95.3485 117.46ZM125.149 114.01C124.429 114.55 122.809 115.33 121.159 115.33C118.459 115.33 116.059 113.77 116.059 109.66H125.089V108.43C125.089 104.26 122.569 102.34 119.059 102.34C115.069 102.34 111.679 106.03 111.679 110.68C111.679 115.18 114.289 118.36 118.639 118.36C122.359 118.36 124.399 115.57 125.299 114.13L125.149 114.01ZM116.059 108.97C116.059 105.88 117.109 103.24 118.849 103.24C120.709 103.24 121.369 105.1 121.369 108.49L116.059 108.97ZM153.379 118V117.88C151.759 117.19 151.459 116.23 151.459 113.92V107.56C151.459 103.78 149.569 102.34 147.199 102.34C145.069 102.34 142.669 103.96 141.739 104.95C141.019 103.03 139.459 102.37 137.779 102.37C135.829 102.37 133.759 103.78 132.769 104.77V102.34H132.649C130.969 102.88 128.539 103.54 126.379 103.69V103.81C128.329 104.59 128.629 105.25 128.629 107.89V113.92C128.629 116.23 128.329 117.19 126.709 117.88V118H134.749V117.88C133.129 117.19 132.829 116.23 132.829 113.92V105.16C133.519 104.8 134.569 104.47 135.469 104.47C136.969 104.47 137.929 105.43 137.929 107.35V113.92C137.929 116.23 137.629 117.19 136.009 117.88V118H144.049V117.88C142.429 117.19 142.129 116.23 142.129 113.92V107.56C142.129 106.66 142.009 105.88 141.799 105.22C142.459 104.89 143.839 104.47 144.679 104.47C146.149 104.47 147.259 105.43 147.259 107.35V113.92C147.259 116.23 146.959 117.19 145.339 117.88V118H153.379ZM178.591 116.89C176.641 116.11 176.341 115.45 176.341 112.81V102.34H176.221C174.541 102.88 172.051 103.54 169.891 103.69V103.81C171.841 104.59 172.141 105.25 172.141 107.89V115.45C171.421 115.81 170.941 115.93 170.071 115.93C168.721 115.93 167.131 115.15 167.131 112.9V102.34H167.011C165.331 102.88 162.841 103.54 160.681 103.69V103.81C162.631 104.59 162.931 105.25 162.931 107.89V113.44C162.931 117.25 165.001 118.36 167.191 118.36C169.381 118.36 171.061 116.86 172.201 115.87V118.36H172.321C174.001 117.82 175.981 117.25 178.591 117.01V116.89ZM206.319 118V117.88C204.699 117.19 204.399 116.23 204.399 113.92V107.56C204.399 103.78 202.509 102.34 200.139 102.34C198.009 102.34 195.609 103.96 194.679 104.95C193.959 103.03 192.399 102.37 190.719 102.37C188.769 102.37 186.699 103.78 185.709 104.77V102.34H185.589C183.909 102.88 181.479 103.54 179.319 103.69V103.81C181.269 104.59 181.569 105.25 181.569 107.89V113.92C181.569 116.23 181.269 117.19 179.649 117.88V118H187.689V117.88C186.069 117.19 185.769 116.23 185.769 113.92V105.16C186.459 104.8 187.509 104.47 188.409 104.47C189.909 104.47 190.869 105.43 190.869 107.35V113.92C190.869 116.23 190.569 117.19 188.949 117.88V118H196.989V117.88C195.369 117.19 195.069 116.23 195.069 113.92V107.56C195.069 106.66 194.949 105.88 194.739 105.22C195.399 104.89 196.779 104.47 197.619 104.47C199.089 104.47 200.199 105.43 200.199 107.35V113.92C200.199 116.23 199.899 117.19 198.279 117.88V118H206.319ZM214.43 117.4C215.75 118 217.43 118.36 219.41 118.36C222.59 118.36 225.47 116.62 225.47 113.44C225.47 108.1 217.52 108.55 217.52 105.43C217.52 103.99 218.57 103.24 219.8 103.24C221.18 103.24 222.62 104.59 224.24 107.05H224.36V103.15C223.16 102.7 221.48 102.34 220.01 102.34C216.98 102.34 214.37 104.26 214.37 107.05C214.37 112.3 222.08 111.76 222.08 114.97C222.08 116.65 220.97 117.46 219.53 117.46C217.85 117.46 216.11 115.81 214.43 112.87H214.28L214.43 117.4ZM243.315 110.35C243.315 105.58 239.355 102.34 235.065 102.34C230.805 102.34 226.845 105.58 226.845 110.35C226.845 114.88 230.625 118.36 235.065 118.36C239.505 118.36 243.315 114.88 243.315 110.35ZM235.065 117.46C232.365 117.46 231.405 113.86 231.405 110.35C231.405 106.36 232.635 103.24 235.065 103.24C237.495 103.24 238.755 106.36 238.755 110.35C238.755 113.86 237.795 117.46 235.065 117.46ZM232.065 100.63C234.705 100.15 236.805 99.22 238.245 97.3L234.945 96.94C234.285 98.2 232.785 99.91 231.915 100.6L232.065 100.63ZM69.41 158.45C68.21 158.78 66.83 159.02 65.18 159.02C60.11 159.02 55.43 157.91 48.23 155C52.7 153.77 56.75 150.05 56.75 144.68C56.75 138.17 50.6 133.88 44.99 133.88C39.38 133.88 33.26 138.17 33.26 144.68C33.26 151.34 39.17 155.45 44.99 155.45C45.2 155.45 45.44 155.42 45.68 155.42L48.86 157.37C54.95 161.09 59.84 162.5 62.33 162.5C66.26 162.5 68.75 159.59 69.41 158.57V158.45ZM44.99 154.22C40.76 154.22 38.06 150.08 38.06 144.68C38.06 139.19 40.67 135.08 44.99 135.08C49.31 135.08 51.95 139.19 51.95 144.68C51.95 150.08 49.22 154.22 44.99 154.22ZM79.3756 155V154.88C77.9656 154.55 77.5156 154.1 75.9256 151.91L70.9456 145.01C73.3456 144.44 76.3456 142.88 76.3456 139.79C76.3456 136.07 73.4356 134.3 67.8256 134.3H58.8556V134.42C60.8656 135.14 61.1956 136.07 61.1956 138.38V150.86C61.1956 153.17 60.8656 154.16 58.8556 154.88V155H68.0356V154.88C66.0556 154.16 65.6956 153.17 65.6956 150.86V145.79H66.9556L70.7356 152.09C72.4156 154.88 72.6556 155 76.6456 155H79.3756ZM65.6956 144.83V135.35H67.8556C70.0456 135.35 71.8156 137.15 71.8156 139.94C71.8156 143.63 69.1756 144.83 66.8056 144.83H65.6956ZM105.733 149.21H105.583C103.693 153.02 101.413 154.25 98.743 154.25C94.213 154.25 90.853 150.86 90.853 144.56C90.853 138.32 94.153 135.08 98.233 135.08C100.933 135.08 103.213 136.55 104.923 139.79H105.043V135.11C103.693 134.51 101.053 133.88 98.623 133.88C92.653 133.88 86.053 137.72 86.053 144.89C86.053 151.55 91.753 155.45 98.623 155.45C101.233 155.45 103.903 154.88 105.313 154.16L105.733 149.21ZM123.931 147.35C123.931 142.58 119.971 139.34 115.681 139.34C111.421 139.34 107.461 142.58 107.461 147.35C107.461 151.88 111.241 155.36 115.681 155.36C120.121 155.36 123.931 151.88 123.931 147.35ZM115.681 154.46C112.981 154.46 112.021 150.86 112.021 147.35C112.021 143.36 113.251 140.24 115.681 140.24C118.111 140.24 119.371 143.36 119.371 147.35C119.371 150.86 118.411 154.46 115.681 154.46ZM143.502 153.89C141.552 153.11 141.252 152.45 141.252 149.81V132.38H141.132C139.452 132.92 136.692 133.58 134.532 133.73V133.85C136.632 134.63 136.932 135.29 136.932 137.93V139.58C136.212 139.46 135.372 139.34 134.562 139.34C130.362 139.34 125.592 142.61 125.592 148.16C125.592 152.75 128.802 155.36 131.622 155.36C134.112 155.36 135.912 153.89 136.932 152.81V155.36H137.052C138.732 154.82 140.892 154.25 143.502 154.01V153.89ZM136.932 152.48C136.332 152.78 135.672 152.93 134.982 152.93C132.432 152.93 129.912 150.89 129.912 146.75C129.912 143 132.102 140.24 134.292 140.24C135.402 140.24 136.272 141.02 136.932 141.86V152.48ZM157.756 151.01C157.036 151.55 155.416 152.33 153.766 152.33C151.066 152.33 148.666 150.77 148.666 146.66H157.696V145.43C157.696 141.26 155.176 139.34 151.666 139.34C147.676 139.34 144.286 143.03 144.286 147.68C144.286 152.18 146.896 155.36 151.246 155.36C154.966 155.36 157.006 152.57 157.906 151.13L157.756 151.01ZM148.666 145.97C148.666 142.88 149.716 140.24 151.456 140.24C153.316 140.24 153.976 142.1 153.976 145.49L148.666 145.97Z" fill="black"/>
<path d="M32.672 174.304C32.672 174.251 32.6827 174.208 32.704 174.176C32.736 174.144 32.7893 174.128 32.864 174.128H41.472C41.536 174.128 41.584 174.144 41.616 174.176C41.648 174.208 41.664 174.251 41.664 174.304V175.136C41.664 175.243 41.6 175.296 41.472 175.296H38.224C38.1067 175.296 38.048 175.349 38.048 175.456V185.792C38.048 185.931 37.984 186 37.856 186H36.704C36.576 186 36.512 185.931 36.512 185.792V175.472C36.512 175.355 36.4587 175.296 36.352 175.296H32.864C32.736 175.296 32.672 175.243 32.672 175.136V174.304ZM45.0495 185.104C45.5082 185.104 45.9455 184.981 46.3615 184.736C46.7882 184.48 47.2095 184.139 47.6255 183.712V177.76C47.6255 177.6 47.7108 177.52 47.8815 177.52H48.7615C48.9108 177.52 48.9855 177.595 48.9855 177.744L48.9535 185.792C48.9535 185.931 48.8948 186 48.7775 186H47.8495C47.7322 186 47.6735 185.941 47.6735 185.824V184.88C47.6735 184.827 47.6628 184.795 47.6415 184.784C47.6202 184.773 47.5828 184.789 47.5295 184.832C46.9428 185.333 46.4202 185.68 45.9615 185.872C45.5135 186.064 45.0655 186.16 44.6175 186.16C44.1268 186.16 43.6895 186.059 43.3055 185.856C42.9215 185.653 42.6175 185.371 42.3935 185.008C42.1695 184.635 42.0575 184.203 42.0575 183.712V177.776C42.0575 177.605 42.1375 177.52 42.2975 177.52H43.1935C43.3322 177.52 43.4015 177.595 43.4015 177.744V183.36C43.4015 183.883 43.5455 184.304 43.8335 184.624C44.1322 184.944 44.5375 185.104 45.0495 185.104ZM57.4671 186C57.3925 186 57.3338 185.984 57.2911 185.952C57.2591 185.909 57.2431 185.851 57.2431 185.776V185.104C57.2431 185.019 57.2218 184.971 57.1791 184.96C57.1471 184.949 57.0991 184.976 57.0351 185.04C56.9178 185.147 56.7471 185.291 56.5231 185.472C56.3098 185.653 56.0378 185.813 55.7071 185.952C55.3765 186.091 54.9818 186.16 54.5231 186.16C53.8511 186.16 53.2485 186 52.7151 185.68C52.1818 185.36 51.7551 184.885 51.4351 184.256C51.1258 183.616 50.9711 182.827 50.9711 181.888C50.9711 180.981 51.1258 180.192 51.4351 179.52C51.7551 178.837 52.1978 178.309 52.7631 177.936C53.3391 177.552 53.9898 177.36 54.7151 177.36C55.2378 177.36 55.6751 177.445 56.0271 177.616C56.3791 177.787 56.6885 177.984 56.9551 178.208C57.0511 178.283 57.1151 178.315 57.1471 178.304C57.1898 178.283 57.2111 178.213 57.2111 178.096V174.336C57.2111 174.197 57.2698 174.128 57.3871 174.128H58.3631C58.4805 174.128 58.5391 174.197 58.5391 174.336V185.744C58.5391 185.84 58.5231 185.909 58.4911 185.952C58.4591 185.984 58.3898 186 58.2831 186H57.4671ZM57.1951 179.392C56.8645 179.061 56.5285 178.805 56.1871 178.624C55.8458 178.443 55.4618 178.352 55.0351 178.352C54.5231 178.352 54.0591 178.485 53.6431 178.752C53.2378 179.008 52.9178 179.397 52.6831 179.92C52.4591 180.443 52.3471 181.083 52.3471 181.84C52.3471 182.619 52.4645 183.259 52.6991 183.76C52.9338 184.251 53.2485 184.613 53.6431 184.848C54.0378 185.072 54.4698 185.184 54.9391 185.184C55.3765 185.184 55.7605 185.083 56.0911 184.88C56.4325 184.677 56.6991 184.427 56.8911 184.128C57.0938 183.829 57.1951 183.536 57.1951 183.248V179.392ZM64.5653 186.16C63.7653 186.16 63.0559 185.979 62.4373 185.616C61.8293 185.243 61.3546 184.731 61.0133 184.08C60.6826 183.419 60.5173 182.661 60.5173 181.808C60.5173 180.923 60.6879 180.149 61.0293 179.488C61.3813 178.816 61.8613 178.293 62.4693 177.92C63.0773 177.547 63.7813 177.36 64.5813 177.36C65.3919 177.36 66.0959 177.552 66.6933 177.936C67.3013 178.309 67.7706 178.832 68.1013 179.504C68.4426 180.165 68.6133 180.928 68.6133 181.792C68.6133 182.645 68.4426 183.403 68.1013 184.064C67.7599 184.715 67.2853 185.227 66.6773 185.6C66.0799 185.973 65.3759 186.16 64.5653 186.16ZM64.5973 185.152C65.1519 185.152 65.6266 185.019 66.0213 184.752C66.4159 184.475 66.7146 184.085 66.9173 183.584C67.1306 183.072 67.2373 182.464 67.2373 181.76C67.2373 181.056 67.1306 180.453 66.9173 179.952C66.7039 179.44 66.3999 179.045 66.0053 178.768C65.6106 178.491 65.1359 178.352 64.5813 178.352C64.0373 178.352 63.5626 178.491 63.1573 178.768C62.7519 179.045 62.4373 179.44 62.2133 179.952C61.9999 180.453 61.8932 181.056 61.8932 181.76C61.8932 182.453 61.9999 183.056 62.2133 183.568C62.4373 184.08 62.7519 184.475 63.1573 184.752C63.5626 185.019 64.0426 185.152 64.5973 185.152ZM74.2373 186C74.0879 186 74.0133 185.931 74.0133 185.792V177.728C74.0133 177.589 74.0719 177.52 74.1893 177.52H75.1493C75.2666 177.52 75.3253 177.579 75.3253 177.696V178.624C75.3253 178.677 75.3359 178.709 75.3573 178.72C75.3786 178.731 75.4159 178.715 75.4693 178.672C75.8213 178.395 76.1466 178.16 76.4453 177.968C76.7546 177.765 77.0693 177.616 77.3893 177.52C77.7093 177.413 78.0506 177.36 78.4133 177.36C79.2453 177.36 79.8799 177.584 80.3173 178.032C80.7653 178.48 80.9893 179.061 80.9893 179.776V185.744C80.9893 185.915 80.9093 186 80.7493 186H79.8533C79.7786 186 79.7253 185.984 79.6933 185.952C79.6613 185.909 79.6453 185.856 79.6453 185.792V180.08C79.6453 179.557 79.5119 179.152 79.2453 178.864C78.9786 178.565 78.5573 178.416 77.9813 178.416C77.6719 178.416 77.3786 178.469 77.1013 178.576C76.8346 178.672 76.5626 178.816 76.2853 179.008C76.0079 179.189 75.6986 179.424 75.3573 179.712V185.76C75.3573 185.92 75.2773 186 75.1173 186H74.2373ZM88.237 184.976C87.8423 185.36 87.4103 185.653 86.941 185.856C86.4823 186.059 85.965 186.16 85.389 186.16C84.557 186.16 83.901 185.947 83.421 185.52C82.9517 185.093 82.717 184.533 82.717 183.84C82.717 183.275 82.877 182.789 83.197 182.384C83.517 181.968 83.9917 181.643 84.621 181.408C85.2503 181.163 86.0237 181.013 86.941 180.96L88.189 180.864C88.253 180.853 88.3117 180.832 88.365 180.8C88.4183 180.768 88.445 180.709 88.445 180.624V180.192C88.445 179.616 88.2637 179.163 87.901 178.832C87.549 178.491 87.069 178.32 86.461 178.32C85.9917 178.32 85.565 178.427 85.181 178.64C84.8077 178.853 84.4717 179.173 84.173 179.6C84.1303 179.653 84.093 179.691 84.061 179.712C84.0397 179.723 83.997 179.717 83.933 179.696L83.069 179.408C83.037 179.387 83.0103 179.36 82.989 179.328C82.9783 179.296 82.9943 179.237 83.037 179.152C83.357 178.597 83.805 178.16 84.381 177.84C84.9677 177.52 85.6823 177.36 86.525 177.36C87.2397 177.36 87.8317 177.472 88.301 177.696C88.781 177.909 89.1383 178.224 89.373 178.64C89.6183 179.045 89.741 179.531 89.741 180.096V185.76C89.741 185.856 89.725 185.92 89.693 185.952C89.661 185.984 89.6077 186 89.533 186H88.717C88.6423 186 88.589 185.979 88.557 185.936C88.525 185.883 88.5037 185.819 88.493 185.744L88.477 185.008C88.445 184.859 88.365 184.848 88.237 184.976ZM88.445 181.936C88.445 181.755 88.3703 181.669 88.221 181.68L87.165 181.776C86.6743 181.797 86.237 181.861 85.853 181.968C85.469 182.064 85.1437 182.192 84.877 182.352C84.6103 182.512 84.4077 182.704 84.269 182.928C84.1303 183.141 84.061 183.392 84.061 183.68C84.061 184.149 84.221 184.517 84.541 184.784C84.8717 185.04 85.3143 185.168 85.869 185.168C86.2103 185.168 86.5357 185.109 86.845 184.992C87.165 184.864 87.4423 184.704 87.677 184.512C87.9223 184.309 88.109 184.101 88.237 183.888C88.3757 183.675 88.445 183.467 88.445 183.264V181.936ZM96.6485 177.52C96.7978 177.52 96.8725 177.6 96.8725 177.76V178.432C96.8725 178.517 96.8885 178.565 96.9205 178.576C96.9632 178.576 97.0165 178.549 97.0805 178.496C97.1978 178.368 97.3578 178.219 97.5605 178.048C97.7632 177.867 98.0245 177.707 98.3445 177.568C98.6752 177.429 99.0912 177.36 99.5925 177.36C100.243 177.36 100.83 177.52 101.353 177.84C101.886 178.149 102.307 178.619 102.617 179.248C102.937 179.877 103.097 180.672 103.097 181.632C103.097 182.592 102.942 183.408 102.633 184.08C102.323 184.752 101.891 185.269 101.337 185.632C100.793 185.984 100.153 186.16 99.4165 186.16C98.9258 186.16 98.4885 186.085 98.1045 185.936C97.7312 185.776 97.4112 185.584 97.1445 185.36C97.0485 185.275 96.9792 185.243 96.9365 185.264C96.9045 185.275 96.8885 185.339 96.8885 185.456V188.432C96.8885 188.571 96.8298 188.64 96.7125 188.64H95.7205C95.6032 188.64 95.5445 188.571 95.5445 188.432V177.776C95.5445 177.68 95.5605 177.616 95.5925 177.584C95.6352 177.541 95.7045 177.52 95.8005 177.52H96.6485ZM96.8885 184.128C97.2192 184.448 97.5552 184.704 97.8965 184.896C98.2485 185.088 98.6378 185.184 99.0645 185.184C99.5765 185.184 100.03 185.051 100.425 184.784C100.83 184.517 101.145 184.123 101.369 183.6C101.603 183.077 101.721 182.427 101.721 181.648C101.721 180.869 101.603 180.235 101.369 179.744C101.134 179.253 100.819 178.896 100.425 178.672C100.041 178.448 99.6138 178.336 99.1445 178.336C98.7072 178.336 98.3178 178.432 97.9765 178.624C97.6352 178.816 97.3685 179.056 97.1765 179.344C96.9845 179.621 96.8885 179.899 96.8885 180.176V184.128ZM109.971 184.976C109.577 185.36 109.145 185.653 108.675 185.856C108.217 186.059 107.699 186.16 107.123 186.16C106.291 186.16 105.635 185.947 105.155 185.52C104.686 185.093 104.451 184.533 104.451 183.84C104.451 183.275 104.611 182.789 104.931 182.384C105.251 181.968 105.726 181.643 106.355 181.408C106.985 181.163 107.758 181.013 108.675 180.96L109.923 180.864C109.987 180.853 110.046 180.832 110.099 180.8C110.153 180.768 110.179 180.709 110.179 180.624V180.192C110.179 179.616 109.998 179.163 109.635 178.832C109.283 178.491 108.803 178.32 108.195 178.32C107.726 178.32 107.299 178.427 106.915 178.64C106.542 178.853 106.206 179.173 105.907 179.6C105.865 179.653 105.827 179.691 105.795 179.712C105.774 179.723 105.731 179.717 105.667 179.696L104.803 179.408C104.771 179.387 104.745 179.36 104.723 179.328C104.713 179.296 104.729 179.237 104.771 179.152C105.091 178.597 105.539 178.16 106.115 177.84C106.702 177.52 107.417 177.36 108.259 177.36C108.974 177.36 109.566 177.472 110.035 177.696C110.515 177.909 110.873 178.224 111.107 178.64C111.353 179.045 111.475 179.531 111.475 180.096V185.76C111.475 185.856 111.459 185.92 111.427 185.952C111.395 185.984 111.342 186 111.267 186H110.451C110.377 186 110.323 185.979 110.291 185.936C110.259 185.883 110.238 185.819 110.227 185.744L110.211 185.008C110.179 184.859 110.099 184.848 109.971 184.976ZM110.179 181.936C110.179 181.755 110.105 181.669 109.955 181.68L108.899 181.776C108.409 181.797 107.971 181.861 107.587 181.968C107.203 182.064 106.878 182.192 106.611 182.352C106.345 182.512 106.142 182.704 106.003 182.928C105.865 183.141 105.795 183.392 105.795 183.68C105.795 184.149 105.955 184.517 106.275 184.784C106.606 185.04 107.049 185.168 107.603 185.168C107.945 185.168 108.27 185.109 108.579 184.992C108.899 184.864 109.177 184.704 109.411 184.512C109.657 184.309 109.843 184.101 109.971 183.888C110.11 183.675 110.179 183.467 110.179 183.264V181.936ZM115.217 185.728C115.217 185.835 115.196 185.909 115.153 185.952C115.11 185.984 115.036 186 114.929 186H114.097C113.937 186 113.857 185.925 113.857 185.776L113.873 174.352C113.873 174.203 113.937 174.128 114.065 174.128H115.025C115.153 174.128 115.217 174.197 115.217 174.336V185.728ZM117.909 186C117.76 186 117.685 185.931 117.685 185.792V177.728C117.685 177.589 117.744 177.52 117.861 177.52H118.821C118.928 177.52 118.981 177.579 118.981 177.696V178.624C118.981 178.677 118.992 178.709 119.013 178.72C119.045 178.731 119.088 178.715 119.141 178.672C119.482 178.395 119.797 178.16 120.085 177.968C120.384 177.765 120.682 177.616 120.981 177.52C121.29 177.413 121.621 177.36 121.973 177.36C122.602 177.36 123.104 177.504 123.477 177.792C123.861 178.08 124.117 178.405 124.245 178.768C124.266 178.811 124.298 178.827 124.341 178.816C124.384 178.805 124.426 178.779 124.469 178.736C124.81 178.448 125.13 178.203 125.429 178C125.738 177.797 126.048 177.643 126.357 177.536C126.677 177.419 127.013 177.36 127.365 177.36C128.144 177.36 128.746 177.584 129.173 178.032C129.6 178.469 129.813 179.061 129.813 179.808V185.744C129.813 185.915 129.733 186 129.573 186H128.677C128.602 186 128.549 185.984 128.517 185.952C128.485 185.909 128.469 185.856 128.469 185.792V180.08C128.469 179.557 128.341 179.152 128.085 178.864C127.84 178.565 127.45 178.416 126.917 178.416C126.608 178.416 126.309 178.475 126.021 178.592C125.744 178.709 125.488 178.853 125.253 179.024C125.029 179.195 124.826 179.355 124.645 179.504C124.56 179.579 124.501 179.653 124.469 179.728C124.437 179.792 124.421 179.877 124.421 179.984V185.744C124.421 185.915 124.341 186 124.181 186H123.285C123.221 186 123.168 185.984 123.125 185.952C123.093 185.909 123.077 185.856 123.077 185.792V180.08C123.077 179.557 122.954 179.152 122.709 178.864C122.464 178.565 122.074 178.416 121.541 178.416C121.093 178.416 120.682 178.523 120.309 178.736C119.936 178.949 119.509 179.275 119.029 179.712V185.76C119.029 185.92 118.949 186 118.789 186H117.909ZM137.065 184.976C136.67 185.36 136.238 185.653 135.769 185.856C135.31 186.059 134.793 186.16 134.217 186.16C133.385 186.16 132.729 185.947 132.249 185.52C131.78 185.093 131.545 184.533 131.545 183.84C131.545 183.275 131.705 182.789 132.025 182.384C132.345 181.968 132.82 181.643 133.449 181.408C134.078 181.163 134.852 181.013 135.769 180.96L137.017 180.864C137.081 180.853 137.14 180.832 137.193 180.8C137.246 180.768 137.273 180.709 137.273 180.624V180.192C137.273 179.616 137.092 179.163 136.729 178.832C136.377 178.491 135.897 178.32 135.289 178.32C134.82 178.32 134.393 178.427 134.009 178.64C133.636 178.853 133.3 179.173 133.001 179.6C132.958 179.653 132.921 179.691 132.889 179.712C132.868 179.723 132.825 179.717 132.761 179.696L131.897 179.408C131.865 179.387 131.838 179.36 131.817 179.328C131.806 179.296 131.822 179.237 131.865 179.152C132.185 178.597 132.633 178.16 133.209 177.84C133.796 177.52 134.51 177.36 135.353 177.36C136.068 177.36 136.66 177.472 137.129 177.696C137.609 177.909 137.966 178.224 138.201 178.64C138.446 179.045 138.569 179.531 138.569 180.096V185.76C138.569 185.856 138.553 185.92 138.521 185.952C138.489 185.984 138.436 186 138.361 186H137.545C137.47 186 137.417 185.979 137.385 185.936C137.353 185.883 137.332 185.819 137.321 185.744L137.305 185.008C137.273 184.859 137.193 184.848 137.065 184.976ZM137.273 181.936C137.273 181.755 137.198 181.669 137.049 181.68L135.993 181.776C135.502 181.797 135.065 181.861 134.681 181.968C134.297 182.064 133.972 182.192 133.705 182.352C133.438 182.512 133.236 182.704 133.097 182.928C132.958 183.141 132.889 183.392 132.889 183.68C132.889 184.149 133.049 184.517 133.369 184.784C133.7 185.04 134.142 185.168 134.697 185.168C135.038 185.168 135.364 185.109 135.673 184.992C135.993 184.864 136.27 184.704 136.505 184.512C136.75 184.309 136.937 184.101 137.065 183.888C137.204 183.675 137.273 183.467 137.273 183.264V181.936ZM150.405 186C150.33 186 150.271 185.984 150.229 185.952C150.197 185.909 150.181 185.851 150.181 185.776V185.104C150.181 185.019 150.159 184.971 150.117 184.96C150.085 184.949 150.037 184.976 149.973 185.04C149.855 185.147 149.685 185.291 149.461 185.472C149.247 185.653 148.975 185.813 148.645 185.952C148.314 186.091 147.919 186.16 147.461 186.16C146.789 186.16 146.186 186 145.653 185.68C145.119 185.36 144.693 184.885 144.373 184.256C144.063 183.616 143.909 182.827 143.909 181.888C143.909 180.981 144.063 180.192 144.373 179.52C144.693 178.837 145.135 178.309 145.701 177.936C146.277 177.552 146.927 177.36 147.653 177.36C148.175 177.36 148.613 177.445 148.965 177.616C149.317 177.787 149.626 177.984 149.893 178.208C149.989 178.283 150.053 178.315 150.085 178.304C150.127 178.283 150.149 178.213 150.149 178.096V174.336C150.149 174.197 150.207 174.128 150.325 174.128H151.301C151.418 174.128 151.477 174.197 151.477 174.336V185.744C151.477 185.84 151.461 185.909 151.429 185.952C151.397 185.984 151.327 186 151.221 186H150.405ZM150.133 179.392C149.802 179.061 149.466 178.805 149.125 178.624C148.783 178.443 148.399 178.352 147.973 178.352C147.461 178.352 146.997 178.485 146.581 178.752C146.175 179.008 145.855 179.397 145.621 179.92C145.397 180.443 145.285 181.083 145.285 181.84C145.285 182.619 145.402 183.259 145.637 183.76C145.871 184.251 146.186 184.613 146.581 184.848C146.975 185.072 147.407 185.184 147.877 185.184C148.314 185.184 148.698 185.083 149.029 184.88C149.37 184.677 149.637 184.427 149.829 184.128C150.031 183.829 150.133 183.536 150.133 183.248V179.392ZM158.831 184.976C158.436 185.36 158.004 185.653 157.535 185.856C157.076 186.059 156.559 186.16 155.983 186.16C155.151 186.16 154.495 185.947 154.015 185.52C153.545 185.093 153.311 184.533 153.311 183.84C153.311 183.275 153.471 182.789 153.791 182.384C154.111 181.968 154.585 181.643 155.215 181.408C155.844 181.163 156.617 181.013 157.535 180.96L158.783 180.864C158.847 180.853 158.905 180.832 158.959 180.8C159.012 180.768 159.039 180.709 159.039 180.624V180.192C159.039 179.616 158.857 179.163 158.495 178.832C158.143 178.491 157.663 178.32 157.055 178.32C156.585 178.32 156.159 178.427 155.775 178.64C155.401 178.853 155.065 179.173 154.767 179.6C154.724 179.653 154.687 179.691 154.655 179.712C154.633 179.723 154.591 179.717 154.527 179.696L153.663 179.408C153.631 179.387 153.604 179.36 153.583 179.328C153.572 179.296 153.588 179.237 153.631 179.152C153.951 178.597 154.399 178.16 154.975 177.84C155.561 177.52 156.276 177.36 157.119 177.36C157.833 177.36 158.425 177.472 158.895 177.696C159.375 177.909 159.732 178.224 159.967 178.64C160.212 179.045 160.335 179.531 160.335 180.096V185.76C160.335 185.856 160.319 185.92 160.287 185.952C160.255 185.984 160.201 186 160.127 186H159.311C159.236 186 159.183 185.979 159.151 185.936C159.119 185.883 159.097 185.819 159.087 185.744L159.071 185.008C159.039 184.859 158.959 184.848 158.831 184.976ZM159.039 181.936C159.039 181.755 158.964 181.669 158.815 181.68L157.759 181.776C157.268 181.797 156.831 181.861 156.447 181.968C156.063 182.064 155.737 182.192 155.471 182.352C155.204 182.512 155.001 182.704 154.863 182.928C154.724 183.141 154.655 183.392 154.655 183.68C154.655 184.149 154.815 184.517 155.135 184.784C155.465 185.04 155.908 185.168 156.463 185.168C156.804 185.168 157.129 185.109 157.439 184.992C157.759 184.864 158.036 184.704 158.271 184.512C158.516 184.309 158.703 184.101 158.831 183.888C158.969 183.675 159.039 183.467 159.039 183.264V181.936ZM166.362 186C166.213 186 166.138 185.931 166.138 185.792V177.728C166.138 177.589 166.197 177.52 166.314 177.52H167.274C167.381 177.52 167.434 177.579 167.434 177.696V178.624C167.434 178.677 167.445 178.709 167.466 178.72C167.498 178.731 167.541 178.715 167.594 178.672C167.936 178.395 168.25 178.16 168.538 177.968C168.837 177.765 169.136 177.616 169.434 177.52C169.744 177.413 170.074 177.36 170.426 177.36C171.056 177.36 171.557 177.504 171.93 177.792C172.314 178.08 172.57 178.405 172.698 178.768C172.72 178.811 172.752 178.827 172.794 178.816C172.837 178.805 172.88 178.779 172.922 178.736C173.264 178.448 173.584 178.203 173.882 178C174.192 177.797 174.501 177.643 174.81 177.536C175.13 177.419 175.466 177.36 175.818 177.36C176.597 177.36 177.2 177.584 177.626 178.032C178.053 178.469 178.266 179.061 178.266 179.808V185.744C178.266 185.915 178.186 186 178.026 186H177.13C177.056 186 177.002 185.984 176.97 185.952C176.938 185.909 176.922 185.856 176.922 185.792V180.08C176.922 179.557 176.794 179.152 176.538 178.864C176.293 178.565 175.904 178.416 175.37 178.416C175.061 178.416 174.762 178.475 174.474 178.592C174.197 178.709 173.941 178.853 173.706 179.024C173.482 179.195 173.28 179.355 173.098 179.504C173.013 179.579 172.954 179.653 172.922 179.728C172.89 179.792 172.874 179.877 172.874 179.984V185.744C172.874 185.915 172.794 186 172.634 186H171.738C171.674 186 171.621 185.984 171.578 185.952C171.546 185.909 171.53 185.856 171.53 185.792V180.08C171.53 179.557 171.408 179.152 171.162 178.864C170.917 178.565 170.528 178.416 169.994 178.416C169.546 178.416 169.136 178.523 168.762 178.736C168.389 178.949 167.962 179.275 167.482 179.712V185.76C167.482 185.92 167.402 186 167.242 186H166.362ZM185.518 184.976C185.124 185.36 184.692 185.653 184.222 185.856C183.764 186.059 183.246 186.16 182.67 186.16C181.838 186.16 181.182 185.947 180.702 185.52C180.233 185.093 179.998 184.533 179.998 183.84C179.998 183.275 180.158 182.789 180.478 182.384C180.798 181.968 181.273 181.643 181.902 181.408C182.532 181.163 183.305 181.013 184.222 180.96L185.47 180.864C185.534 180.853 185.593 180.832 185.646 180.8C185.7 180.768 185.726 180.709 185.726 180.624V180.192C185.726 179.616 185.545 179.163 185.182 178.832C184.83 178.491 184.35 178.32 183.742 178.32C183.273 178.32 182.846 178.427 182.462 178.64C182.089 178.853 181.753 179.173 181.454 179.6C181.412 179.653 181.374 179.691 181.342 179.712C181.321 179.723 181.278 179.717 181.214 179.696L180.35 179.408C180.318 179.387 180.292 179.36 180.27 179.328C180.26 179.296 180.276 179.237 180.318 179.152C180.638 178.597 181.086 178.16 181.662 177.84C182.249 177.52 182.964 177.36 183.806 177.36C184.521 177.36 185.113 177.472 185.582 177.696C186.062 177.909 186.42 178.224 186.654 178.64C186.9 179.045 187.022 179.531 187.022 180.096V185.76C187.022 185.856 187.006 185.92 186.974 185.952C186.942 185.984 186.889 186 186.814 186H185.998C185.924 186 185.87 185.979 185.838 185.936C185.806 185.883 185.785 185.819 185.774 185.744L185.758 185.008C185.726 184.859 185.646 184.848 185.518 184.976ZM185.726 181.936C185.726 181.755 185.652 181.669 185.502 181.68L184.446 181.776C183.956 181.797 183.518 181.861 183.134 181.968C182.75 182.064 182.425 182.192 182.158 182.352C181.892 182.512 181.689 182.704 181.55 182.928C181.412 183.141 181.342 183.392 181.342 183.68C181.342 184.149 181.502 184.517 181.822 184.784C182.153 185.04 182.596 185.168 183.15 185.168C183.492 185.168 183.817 185.109 184.126 184.992C184.446 184.864 184.724 184.704 184.958 184.512C185.204 184.309 185.39 184.101 185.518 183.888C185.657 183.675 185.726 183.467 185.726 183.264V181.936ZM186.014 175.168C185.897 175.243 185.737 175.323 185.534 175.408C185.342 175.483 185.097 175.52 184.798 175.52C184.521 175.52 184.27 175.488 184.046 175.424C183.833 175.349 183.625 175.28 183.422 175.216C183.23 175.141 183.012 175.104 182.766 175.104C182.532 175.104 182.345 175.141 182.206 175.216C182.078 175.291 181.945 175.365 181.806 175.44C181.753 175.472 181.705 175.488 181.662 175.488C181.63 175.477 181.604 175.435 181.582 175.36L181.422 174.944C181.412 174.88 181.406 174.837 181.406 174.816C181.406 174.784 181.433 174.747 181.486 174.704C181.657 174.576 181.833 174.464 182.014 174.368C182.196 174.272 182.425 174.224 182.702 174.224C182.969 174.224 183.214 174.261 183.438 174.336C183.673 174.4 183.902 174.475 184.126 174.56C184.35 174.635 184.58 174.672 184.814 174.672C185.017 174.672 185.182 174.64 185.31 174.576C185.449 174.512 185.588 174.437 185.726 174.352C185.79 174.32 185.844 174.309 185.886 174.32C185.929 174.32 185.961 174.357 185.982 174.432L186.142 174.928C186.164 175.003 186.121 175.083 186.014 175.168ZM192.956 186.16C192.156 186.16 191.447 185.979 190.828 185.616C190.22 185.243 189.745 184.731 189.404 184.08C189.073 183.419 188.908 182.661 188.908 181.808C188.908 180.923 189.079 180.149 189.42 179.488C189.772 178.816 190.252 178.293 190.86 177.92C191.468 177.547 192.172 177.36 192.972 177.36C193.783 177.36 194.487 177.552 195.084 177.936C195.692 178.309 196.161 178.832 196.492 179.504C196.833 180.165 197.004 180.928 197.004 181.792C197.004 182.645 196.833 183.403 196.492 184.064C196.151 184.715 195.676 185.227 195.068 185.6C194.471 185.973 193.767 186.16 192.956 186.16ZM192.988 185.152C193.543 185.152 194.017 185.019 194.412 184.752C194.807 184.475 195.105 184.085 195.308 183.584C195.521 183.072 195.628 182.464 195.628 181.76C195.628 181.056 195.521 180.453 195.308 179.952C195.095 179.44 194.791 179.045 194.396 178.768C194.001 178.491 193.527 178.352 192.972 178.352C192.428 178.352 191.953 178.491 191.548 178.768C191.143 179.045 190.828 179.44 190.604 179.952C190.391 180.453 190.284 181.056 190.284 181.76C190.284 182.453 190.391 183.056 190.604 183.568C190.828 184.08 191.143 184.475 191.548 184.752C191.953 185.019 192.433 185.152 192.988 185.152ZM198.145 188.288C198.091 188.288 198.054 188.267 198.033 188.224C198.011 188.181 198.011 188.123 198.033 188.048L198.753 186.256C198.827 186.085 198.785 186 198.625 186H198.417C198.278 186 198.209 185.936 198.209 185.808V184.384C198.209 184.267 198.257 184.208 198.353 184.208H199.697C199.803 184.208 199.857 184.261 199.857 184.368V185.68C199.857 185.744 199.841 185.808 199.809 185.872L198.641 188.112C198.609 188.165 198.561 188.208 198.497 188.24C198.443 188.272 198.385 188.288 198.321 188.288H198.145ZM210.445 179.392C210.232 179.072 209.933 178.811 209.549 178.608C209.165 178.405 208.706 178.304 208.173 178.304C207.597 178.304 207.117 178.427 206.733 178.672C206.36 178.917 206.173 179.248 206.173 179.664C206.173 179.888 206.258 180.101 206.429 180.304C206.6 180.496 206.946 180.677 207.469 180.848L209.501 181.456C210.237 181.659 210.765 181.952 211.085 182.336C211.416 182.72 211.581 183.163 211.581 183.664C211.581 184.165 211.432 184.603 211.133 184.976C210.834 185.349 210.424 185.643 209.901 185.856C209.378 186.059 208.786 186.16 208.125 186.16C207.282 186.16 206.546 185.995 205.917 185.664C205.288 185.323 204.84 184.901 204.573 184.4C204.541 184.347 204.525 184.299 204.525 184.256C204.525 184.213 204.552 184.176 204.605 184.144L205.229 183.792C205.282 183.76 205.33 183.749 205.373 183.76C205.416 183.76 205.448 183.776 205.469 183.808C205.65 184.085 205.858 184.325 206.093 184.528C206.338 184.731 206.626 184.891 206.957 185.008C207.298 185.125 207.693 185.184 208.141 185.184C208.546 185.173 208.914 185.115 209.245 185.008C209.576 184.901 209.837 184.747 210.029 184.544C210.221 184.331 210.317 184.085 210.317 183.808C210.317 183.52 210.2 183.275 209.965 183.072C209.73 182.859 209.325 182.672 208.749 182.512L207.101 182.048C206.301 181.835 205.736 181.547 205.405 181.184C205.085 180.821 204.92 180.395 204.909 179.904C204.909 179.392 205.048 178.949 205.325 178.576C205.602 178.192 205.986 177.893 206.477 177.68C206.978 177.467 207.549 177.36 208.189 177.36C208.904 177.36 209.538 177.499 210.093 177.776C210.658 178.043 211.085 178.4 211.373 178.848C211.405 178.891 211.421 178.933 211.421 178.976C211.421 179.008 211.4 179.04 211.357 179.072L210.685 179.44C210.642 179.461 210.6 179.472 210.557 179.472C210.525 179.461 210.488 179.435 210.445 179.392ZM214.441 182.288C214.441 182.811 214.563 183.291 214.809 183.728C215.065 184.155 215.401 184.496 215.817 184.752C216.243 185.008 216.718 185.136 217.241 185.136C217.774 185.136 218.249 185.029 218.665 184.816C219.081 184.592 219.438 184.256 219.737 183.808C219.779 183.765 219.811 183.744 219.833 183.744C219.865 183.733 219.907 183.739 219.961 183.76L220.633 184.096C220.729 184.149 220.739 184.224 220.665 184.32C220.377 184.747 220.057 185.099 219.705 185.376C219.363 185.643 218.979 185.84 218.553 185.968C218.126 186.096 217.646 186.16 217.113 186.16C216.323 186.16 215.625 185.979 215.017 185.616C214.409 185.253 213.929 184.747 213.577 184.096C213.225 183.445 213.049 182.693 213.049 181.84C213.049 180.912 213.225 180.117 213.577 179.456C213.939 178.784 214.425 178.267 215.033 177.904C215.651 177.541 216.339 177.36 217.097 177.36C217.875 177.36 218.553 177.531 219.129 177.872C219.705 178.213 220.153 178.709 220.473 179.36C220.793 180.011 220.953 180.795 220.953 181.712C220.953 181.787 220.942 181.861 220.921 181.936C220.91 182.011 220.841 182.048 220.713 182.048H214.585C214.542 182.048 214.505 182.075 214.473 182.128C214.451 182.171 214.441 182.224 214.441 182.288ZM219.337 181.168C219.454 181.168 219.529 181.157 219.561 181.136C219.593 181.104 219.609 181.04 219.609 180.944C219.609 180.485 219.507 180.059 219.305 179.664C219.113 179.259 218.83 178.933 218.457 178.688C218.094 178.443 217.651 178.32 217.129 178.32C216.553 178.32 216.067 178.459 215.673 178.736C215.278 179.003 214.979 179.355 214.777 179.792C214.574 180.229 214.473 180.688 214.473 181.168H219.337ZM223.065 186C222.916 186 222.841 185.931 222.841 185.792V177.728C222.841 177.589 222.9 177.52 223.017 177.52H223.977C224.084 177.52 224.137 177.579 224.137 177.696V178.624C224.137 178.677 224.148 178.709 224.169 178.72C224.201 178.731 224.244 178.715 224.297 178.672C224.639 178.395 224.953 178.16 225.241 177.968C225.54 177.765 225.839 177.616 226.137 177.52C226.447 177.413 226.777 177.36 227.129 177.36C227.759 177.36 228.26 177.504 228.633 177.792C229.017 178.08 229.273 178.405 229.401 178.768C229.423 178.811 229.455 178.827 229.497 178.816C229.54 178.805 229.583 178.779 229.625 178.736C229.967 178.448 230.287 178.203 230.585 178C230.895 177.797 231.204 177.643 231.513 177.536C231.833 177.419 232.169 177.36 232.521 177.36C233.3 177.36 233.903 177.584 234.329 178.032C234.756 178.469 234.969 179.061 234.969 179.808V185.744C234.969 185.915 234.889 186 234.729 186H233.833C233.759 186 233.705 185.984 233.673 185.952C233.641 185.909 233.625 185.856 233.625 185.792V180.08C233.625 179.557 233.497 179.152 233.241 178.864C232.996 178.565 232.607 178.416 232.073 178.416C231.764 178.416 231.465 178.475 231.177 178.592C230.9 178.709 230.644 178.853 230.409 179.024C230.185 179.195 229.983 179.355 229.801 179.504C229.716 179.579 229.657 179.653 229.625 179.728C229.593 179.792 229.577 179.877 229.577 179.984V185.744C229.577 185.915 229.497 186 229.337 186H228.441C228.377 186 228.324 185.984 228.281 185.952C228.249 185.909 228.233 185.856 228.233 185.792V180.08C228.233 179.557 228.111 179.152 227.865 178.864C227.62 178.565 227.231 178.416 226.697 178.416C226.249 178.416 225.839 178.523 225.465 178.736C225.092 178.949 224.665 179.275 224.185 179.712V185.76C224.185 185.92 224.105 186 223.945 186H223.065ZM241.867 177.52C242.017 177.52 242.091 177.6 242.091 177.76V178.432C242.091 178.517 242.107 178.565 242.139 178.576C242.182 178.576 242.235 178.549 242.299 178.496C242.417 178.368 242.577 178.219 242.779 178.048C242.982 177.867 243.243 177.707 243.563 177.568C243.894 177.429 244.31 177.36 244.811 177.36C245.462 177.36 246.049 177.52 246.571 177.84C247.105 178.149 247.526 178.619 247.835 179.248C248.155 179.877 248.315 180.672 248.315 181.632C248.315 182.592 248.161 183.408 247.851 184.08C247.542 184.752 247.11 185.269 246.555 185.632C246.011 185.984 245.371 186.16 244.635 186.16C244.145 186.16 243.707 186.085 243.323 185.936C242.95 185.776 242.63 185.584 242.363 185.36C242.267 185.275 242.198 185.243 242.155 185.264C242.123 185.275 242.107 185.339 242.107 185.456V188.432C242.107 188.571 242.049 188.64 241.931 188.64H240.939C240.822 188.64 240.763 188.571 240.763 188.432V177.776C240.763 177.68 240.779 177.616 240.811 177.584C240.854 177.541 240.923 177.52 241.019 177.52H241.867ZM242.107 184.128C242.438 184.448 242.774 184.704 243.115 184.896C243.467 185.088 243.857 185.184 244.283 185.184C244.795 185.184 245.249 185.051 245.643 184.784C246.049 184.517 246.363 184.123 246.587 183.6C246.822 183.077 246.939 182.427 246.939 181.648C246.939 180.869 246.822 180.235 246.587 179.744C246.353 179.253 246.038 178.896 245.643 178.672C245.259 178.448 244.833 178.336 244.363 178.336C243.926 178.336 243.537 178.432 243.195 178.624C242.854 178.816 242.587 179.056 242.395 179.344C242.203 179.621 242.107 179.899 242.107 180.176V184.128ZM250.534 186C250.459 186 250.401 185.984 250.358 185.952C250.326 185.909 250.31 185.856 250.31 185.792V177.728C250.31 177.589 250.369 177.52 250.486 177.52H251.414C251.531 177.52 251.59 177.579 251.59 177.696V178.736C251.59 178.8 251.606 178.837 251.638 178.848C251.67 178.859 251.713 178.837 251.766 178.784C252.043 178.453 252.315 178.187 252.582 177.984C252.859 177.771 253.137 177.616 253.414 177.52C253.691 177.413 253.969 177.36 254.246 177.36C254.619 177.36 254.806 177.429 254.806 177.568V178.528C254.806 178.635 254.758 178.677 254.662 178.656C254.566 178.645 254.454 178.635 254.326 178.624C254.209 178.613 254.081 178.608 253.942 178.608C253.707 178.608 253.457 178.661 253.19 178.768C252.923 178.864 252.673 179.003 252.438 179.184C252.214 179.365 252.027 179.568 251.878 179.792C251.729 180.016 251.654 180.24 251.654 180.464V185.76C251.654 185.92 251.574 186 251.414 186H250.534ZM257.128 182.288C257.128 182.811 257.251 183.291 257.496 183.728C257.752 184.155 258.088 184.496 258.504 184.752C258.931 185.008 259.405 185.136 259.928 185.136C260.461 185.136 260.936 185.029 261.352 184.816C261.768 184.592 262.125 184.256 262.424 183.808C262.467 183.765 262.499 183.744 262.52 183.744C262.552 183.733 262.595 183.739 262.648 183.76L263.32 184.096C263.416 184.149 263.427 184.224 263.352 184.32C263.064 184.747 262.744 185.099 262.392 185.376C262.051 185.643 261.667 185.84 261.24 185.968C260.813 186.096 260.333 186.16 259.8 186.16C259.011 186.16 258.312 185.979 257.704 185.616C257.096 185.253 256.616 184.747 256.264 184.096C255.912 183.445 255.736 182.693 255.736 181.84C255.736 180.912 255.912 180.117 256.264 179.456C256.627 178.784 257.112 178.267 257.72 177.904C258.339 177.541 259.027 177.36 259.784 177.36C260.563 177.36 261.24 177.531 261.816 177.872C262.392 178.213 262.84 178.709 263.16 179.36C263.48 180.011 263.64 180.795 263.64 181.712C263.64 181.787 263.629 181.861 263.608 181.936C263.597 182.011 263.528 182.048 263.4 182.048H257.272C257.229 182.048 257.192 182.075 257.16 182.128C257.139 182.171 257.128 182.224 257.128 182.288ZM262.024 181.168C262.141 181.168 262.216 181.157 262.248 181.136C262.28 181.104 262.296 181.04 262.296 180.944C262.296 180.485 262.195 180.059 261.992 179.664C261.8 179.259 261.517 178.933 261.144 178.688C260.781 178.443 260.339 178.32 259.816 178.32C259.24 178.32 258.755 178.459 258.36 178.736C257.965 179.003 257.667 179.355 257.464 179.792C257.261 180.229 257.16 180.688 257.16 181.168H262.024ZM269.049 177.36C269.604 177.36 270.089 177.451 270.505 177.632C270.932 177.803 271.294 178.043 271.593 178.352C271.902 178.651 272.158 178.981 272.361 179.344C272.425 179.472 272.398 179.552 272.281 179.584L271.401 179.792C271.326 179.824 271.257 179.792 271.193 179.696C270.98 179.387 270.766 179.136 270.553 178.944C270.35 178.752 270.132 178.608 269.897 178.512C269.662 178.405 269.406 178.352 269.129 178.352C268.585 178.352 268.105 178.491 267.689 178.768C267.284 179.035 266.969 179.424 266.745 179.936C266.521 180.448 266.409 181.056 266.409 181.76C266.409 182.475 266.521 183.088 266.745 183.6C266.98 184.112 267.3 184.501 267.705 184.768C268.121 185.035 268.606 185.168 269.161 185.168C269.673 185.168 270.116 185.04 270.489 184.784C270.862 184.528 271.204 184.155 271.513 183.664C271.545 183.611 271.572 183.584 271.593 183.584C271.625 183.573 271.668 183.579 271.721 183.6L272.409 183.856C272.484 183.888 272.505 183.957 272.473 184.064C272.313 184.341 272.126 184.608 271.913 184.864C271.7 185.12 271.449 185.344 271.161 185.536C270.884 185.728 270.569 185.883 270.217 186C269.865 186.107 269.476 186.16 269.049 186.16C268.26 186.16 267.561 185.979 266.953 185.616C266.356 185.243 265.886 184.731 265.545 184.08C265.204 183.419 265.033 182.656 265.033 181.792C265.033 180.917 265.204 180.149 265.545 179.488C265.897 178.827 266.372 178.309 266.969 177.936C267.577 177.552 268.27 177.36 269.049 177.36ZM275.545 185.728C275.545 185.835 275.523 185.909 275.481 185.952C275.449 185.984 275.374 186 275.257 186H274.441C274.345 186 274.281 185.984 274.249 185.952C274.217 185.92 274.201 185.861 274.201 185.776V177.744C274.201 177.595 274.265 177.52 274.393 177.52H275.369C275.486 177.52 275.545 177.589 275.545 177.728V185.728ZM275.609 175.696C275.609 175.899 275.513 176 275.321 176H274.393C274.297 176 274.233 175.979 274.201 175.936C274.169 175.883 274.153 175.813 274.153 175.728V174.384C274.153 174.213 274.227 174.128 274.377 174.128H275.385C275.534 174.128 275.609 174.208 275.609 174.368V175.696ZM283.117 179.392C282.904 179.072 282.605 178.811 282.221 178.608C281.837 178.405 281.378 178.304 280.845 178.304C280.269 178.304 279.789 178.427 279.405 178.672C279.032 178.917 278.845 179.248 278.845 179.664C278.845 179.888 278.93 180.101 279.101 180.304C279.272 180.496 279.618 180.677 280.141 180.848L282.173 181.456C282.909 181.659 283.437 181.952 283.757 182.336C284.088 182.72 284.253 183.163 284.253 183.664C284.253 184.165 284.104 184.603 283.805 184.976C283.506 185.349 283.096 185.643 282.573 185.856C282.05 186.059 281.458 186.16 280.797 186.16C279.954 186.16 279.218 185.995 278.589 185.664C277.96 185.323 277.512 184.901 277.245 184.4C277.213 184.347 277.197 184.299 277.197 184.256C277.197 184.213 277.224 184.176 277.277 184.144L277.901 183.792C277.954 183.76 278.002 183.749 278.045 183.76C278.088 183.76 278.12 183.776 278.141 183.808C278.322 184.085 278.53 184.325 278.765 184.528C279.01 184.731 279.298 184.891 279.629 185.008C279.97 185.125 280.365 185.184 280.813 185.184C281.218 185.173 281.586 185.115 281.917 185.008C282.248 184.901 282.509 184.747 282.701 184.544C282.893 184.331 282.989 184.085 282.989 183.808C282.989 183.52 282.872 183.275 282.637 183.072C282.402 182.859 281.997 182.672 281.421 182.512L279.773 182.048C278.973 181.835 278.408 181.547 278.077 181.184C277.757 180.821 277.592 180.395 277.581 179.904C277.581 179.392 277.72 178.949 277.997 178.576C278.274 178.192 278.658 177.893 279.149 177.68C279.65 177.467 280.221 177.36 280.861 177.36C281.576 177.36 282.21 177.499 282.765 177.776C283.33 178.043 283.757 178.4 284.045 178.848C284.077 178.891 284.093 178.933 284.093 178.976C284.093 179.008 284.072 179.04 284.029 179.072L283.357 179.44C283.314 179.461 283.272 179.472 283.229 179.472C283.197 179.461 283.16 179.435 283.117 179.392ZM291.096 184.976C290.702 185.36 290.27 185.653 289.8 185.856C289.342 186.059 288.824 186.16 288.248 186.16C287.416 186.16 286.76 185.947 286.28 185.52C285.811 185.093 285.576 184.533 285.576 183.84C285.576 183.275 285.736 182.789 286.056 182.384C286.376 181.968 286.851 181.643 287.48 181.408C288.11 181.163 288.883 181.013 289.8 180.96L291.048 180.864C291.112 180.853 291.171 180.832 291.224 180.8C291.278 180.768 291.304 180.709 291.304 180.624V180.192C291.304 179.616 291.123 179.163 290.76 178.832C290.408 178.491 289.928 178.32 289.32 178.32C288.851 178.32 288.424 178.427 288.04 178.64C287.667 178.853 287.331 179.173 287.032 179.6C286.99 179.653 286.952 179.691 286.92 179.712C286.899 179.723 286.856 179.717 286.792 179.696L285.928 179.408C285.896 179.387 285.87 179.36 285.848 179.328C285.838 179.296 285.854 179.237 285.896 179.152C286.216 178.597 286.664 178.16 287.24 177.84C287.827 177.52 288.542 177.36 289.384 177.36C290.099 177.36 290.691 177.472 291.16 177.696C291.64 177.909 291.998 178.224 292.232 178.64C292.478 179.045 292.6 179.531 292.6 180.096V185.76C292.6 185.856 292.584 185.92 292.552 185.952C292.52 185.984 292.467 186 292.392 186H291.576C291.502 186 291.448 185.979 291.416 185.936C291.384 185.883 291.363 185.819 291.352 185.744L291.336 185.008C291.304 184.859 291.224 184.848 291.096 184.976ZM291.304 181.936C291.304 181.755 291.23 181.669 291.08 181.68L290.024 181.776C289.534 181.797 289.096 181.861 288.712 181.968C288.328 182.064 288.003 182.192 287.736 182.352C287.47 182.512 287.267 182.704 287.128 182.928C286.99 183.141 286.92 183.392 286.92 183.68C286.92 184.149 287.08 184.517 287.4 184.784C287.731 185.04 288.174 185.168 288.728 185.168C289.07 185.168 289.395 185.109 289.704 184.992C290.024 184.864 290.302 184.704 290.536 184.512C290.782 184.309 290.968 184.101 291.096 183.888C291.235 183.675 291.304 183.467 291.304 183.264V181.936ZM295.206 186C295.131 186 295.073 185.984 295.03 185.952C294.998 185.909 294.982 185.856 294.982 185.792V177.728C294.982 177.589 295.041 177.52 295.158 177.52H296.086C296.203 177.52 296.262 177.579 296.262 177.696V178.736C296.262 178.8 296.278 178.837 296.31 178.848C296.342 178.859 296.385 178.837 296.438 178.784C296.715 178.453 296.987 178.187 297.254 177.984C297.531 177.771 297.809 177.616 298.086 177.52C298.363 177.413 298.641 177.36 298.918 177.36C299.291 177.36 299.478 177.429 299.478 177.568V178.528C299.478 178.635 299.43 178.677 299.334 178.656C299.238 178.645 299.126 178.635 298.998 178.624C298.881 178.613 298.753 178.608 298.614 178.608C298.379 178.608 298.129 178.661 297.862 178.768C297.595 178.864 297.345 179.003 297.11 179.184C296.886 179.365 296.699 179.568 296.55 179.792C296.401 180.016 296.326 180.24 296.326 180.464V185.76C296.326 185.92 296.246 186 296.086 186H295.206ZM304.785 186C304.689 186 304.62 185.979 304.577 185.936C304.545 185.893 304.529 185.829 304.529 185.744V174.352C304.529 174.203 304.593 174.128 304.721 174.128H305.713C305.82 174.128 305.873 174.203 305.873 174.352V178.272C305.873 178.389 305.894 178.453 305.937 178.464C305.98 178.464 306.038 178.432 306.113 178.368C306.209 178.272 306.364 178.144 306.577 177.984C306.801 177.824 307.084 177.68 307.425 177.552C307.777 177.424 308.193 177.36 308.673 177.36C309.452 177.36 310.092 177.552 310.593 177.936C311.094 178.32 311.468 178.843 311.713 179.504C311.969 180.155 312.097 180.891 312.097 181.712C312.097 183.077 311.777 184.16 311.137 184.96C310.497 185.76 309.601 186.16 308.449 186.16C307.958 186.16 307.537 186.085 307.185 185.936C306.844 185.787 306.561 185.611 306.337 185.408C306.113 185.205 305.948 185.035 305.841 184.896C305.798 184.843 305.761 184.821 305.729 184.832C305.697 184.843 305.676 184.88 305.665 184.944L305.585 185.744C305.564 185.915 305.468 186 305.297 186H304.785ZM305.873 183.136C305.873 183.52 305.98 183.872 306.193 184.192C306.417 184.501 306.705 184.747 307.057 184.928C307.409 185.109 307.777 185.2 308.161 185.2C308.641 185.2 309.073 185.083 309.457 184.848C309.841 184.603 310.145 184.224 310.369 183.712C310.593 183.2 310.705 182.544 310.705 181.744C310.705 180.656 310.497 179.819 310.081 179.232C309.665 178.635 309.062 178.336 308.273 178.336C307.772 178.336 307.313 178.453 306.897 178.688C306.492 178.912 306.15 179.189 305.873 179.52V183.136ZM318.987 184.976C318.592 185.36 318.16 185.653 317.691 185.856C317.232 186.059 316.715 186.16 316.139 186.16C315.307 186.16 314.651 185.947 314.171 185.52C313.702 185.093 313.467 184.533 313.467 183.84C313.467 183.275 313.627 182.789 313.947 182.384C314.267 181.968 314.742 181.643 315.371 181.408C316 181.163 316.774 181.013 317.691 180.96L318.939 180.864C319.003 180.853 319.062 180.832 319.115 180.8C319.168 180.768 319.195 180.709 319.195 180.624V180.192C319.195 179.616 319.014 179.163 318.651 178.832C318.299 178.491 317.819 178.32 317.211 178.32C316.742 178.32 316.315 178.427 315.931 178.64C315.558 178.853 315.222 179.173 314.923 179.6C314.88 179.653 314.843 179.691 314.811 179.712C314.79 179.723 314.747 179.717 314.683 179.696L313.819 179.408C313.787 179.387 313.76 179.36 313.739 179.328C313.728 179.296 313.744 179.237 313.787 179.152C314.107 178.597 314.555 178.16 315.131 177.84C315.718 177.52 316.432 177.36 317.275 177.36C317.99 177.36 318.582 177.472 319.051 177.696C319.531 177.909 319.888 178.224 320.123 178.64C320.368 179.045 320.491 179.531 320.491 180.096V185.76C320.491 185.856 320.475 185.92 320.443 185.952C320.411 185.984 320.358 186 320.283 186H319.467C319.392 186 319.339 185.979 319.307 185.936C319.275 185.883 319.254 185.819 319.243 185.744L319.227 185.008C319.195 184.859 319.115 184.848 318.987 184.976ZM319.195 181.936C319.195 181.755 319.12 181.669 318.971 181.68L317.915 181.776C317.424 181.797 316.987 181.861 316.603 181.968C316.219 182.064 315.894 182.192 315.627 182.352C315.36 182.512 315.158 182.704 315.019 182.928C314.88 183.141 314.811 183.392 314.811 183.68C314.811 184.149 314.971 184.517 315.291 184.784C315.622 185.04 316.064 185.168 316.619 185.168C316.96 185.168 317.286 185.109 317.595 184.992C317.915 184.864 318.192 184.704 318.427 184.512C318.672 184.309 318.859 184.101 318.987 183.888C319.126 183.675 319.195 183.467 319.195 183.264V181.936ZM324.217 185.728C324.217 185.835 324.195 185.909 324.153 185.952C324.121 185.984 324.046 186 323.929 186H323.113C323.017 186 322.953 185.984 322.921 185.952C322.889 185.92 322.873 185.861 322.873 185.776V177.744C322.873 177.595 322.937 177.52 323.065 177.52H324.041C324.158 177.52 324.217 177.589 324.217 177.728V185.728ZM324.281 175.696C324.281 175.899 324.185 176 323.993 176H323.065C322.969 176 322.905 175.979 322.873 175.936C322.841 175.883 322.825 175.813 322.825 175.728V174.384C322.825 174.213 322.899 174.128 323.049 174.128H324.057C324.206 174.128 324.281 174.208 324.281 174.368V175.696ZM333.629 185.664C333.714 185.792 333.751 185.883 333.741 185.936C333.73 185.979 333.671 186 333.565 186H332.445C332.285 186 332.173 185.952 332.109 185.856L329.853 182.752C329.799 182.677 329.751 182.64 329.709 182.64C329.677 182.629 329.634 182.667 329.581 182.752L327.229 185.856C327.165 185.952 327.053 186 326.893 186H326.141C326.034 186 325.959 185.973 325.917 185.92C325.874 185.856 325.911 185.755 326.029 185.616L328.941 181.904C328.994 181.829 329.015 181.771 329.005 181.728C329.005 181.675 328.983 181.616 328.941 181.552L326.141 177.776C326.109 177.723 326.103 177.669 326.125 177.616C326.157 177.552 326.21 177.52 326.285 177.52H327.357C327.442 177.52 327.501 177.531 327.533 177.552C327.575 177.573 327.618 177.611 327.661 177.664L329.821 180.592C329.906 180.709 329.986 180.709 330.061 180.592L332.157 177.664C332.199 177.611 332.242 177.573 332.285 177.552C332.327 177.531 332.391 177.52 332.477 177.52H333.309C333.405 177.52 333.453 177.547 333.453 177.6C333.463 177.643 333.447 177.691 333.405 177.744L330.701 181.36C330.647 181.424 330.621 181.483 330.621 181.536C330.631 181.589 330.658 181.648 330.701 181.712L333.629 185.664ZM340.034 184.976C339.639 185.36 339.207 185.653 338.738 185.856C338.279 186.059 337.762 186.16 337.186 186.16C336.354 186.16 335.698 185.947 335.218 185.52C334.749 185.093 334.514 184.533 334.514 183.84C334.514 183.275 334.674 182.789 334.994 182.384C335.314 181.968 335.789 181.643 336.418 181.408C337.047 181.163 337.821 181.013 338.738 180.96L339.986 180.864C340.05 180.853 340.109 180.832 340.162 180.8C340.215 180.768 340.242 180.709 340.242 180.624V180.192C340.242 179.616 340.061 179.163 339.698 178.832C339.346 178.491 338.866 178.32 338.258 178.32C337.789 178.32 337.362 178.427 336.978 178.64C336.605 178.853 336.269 179.173 335.97 179.6C335.927 179.653 335.89 179.691 335.858 179.712C335.837 179.723 335.794 179.717 335.73 179.696L334.866 179.408C334.834 179.387 334.807 179.36 334.786 179.328C334.775 179.296 334.791 179.237 334.834 179.152C335.154 178.597 335.602 178.16 336.178 177.84C336.765 177.52 337.479 177.36 338.322 177.36C339.037 177.36 339.629 177.472 340.098 177.696C340.578 177.909 340.935 178.224 341.17 178.64C341.415 179.045 341.538 179.531 341.538 180.096V185.76C341.538 185.856 341.522 185.92 341.49 185.952C341.458 185.984 341.405 186 341.33 186H340.514C340.439 186 340.386 185.979 340.354 185.936C340.322 185.883 340.301 185.819 340.29 185.744L340.274 185.008C340.242 184.859 340.162 184.848 340.034 184.976ZM340.242 181.936C340.242 181.755 340.167 181.669 340.018 181.68L338.962 181.776C338.471 181.797 338.034 181.861 337.65 181.968C337.266 182.064 336.941 182.192 336.674 182.352C336.407 182.512 336.205 182.704 336.066 182.928C335.927 183.141 335.858 183.392 335.858 183.68C335.858 184.149 336.018 184.517 336.338 184.784C336.669 185.04 337.111 185.168 337.666 185.168C338.007 185.168 338.333 185.109 338.642 184.992C338.962 184.864 339.239 184.704 339.474 184.512C339.719 184.309 339.906 184.101 340.034 183.888C340.173 183.675 340.242 183.467 340.242 183.264V181.936ZM344.144 186C344.069 186 344.01 185.984 343.968 185.952C343.936 185.909 343.92 185.856 343.92 185.792V177.728C343.92 177.589 343.978 177.52 344.096 177.52H345.024C345.141 177.52 345.2 177.579 345.2 177.696V178.736C345.2 178.8 345.216 178.837 345.248 178.848C345.28 178.859 345.322 178.837 345.376 178.784C345.653 178.453 345.925 178.187 346.192 177.984C346.469 177.771 346.746 177.616 347.024 177.52C347.301 177.413 347.578 177.36 347.856 177.36C348.229 177.36 348.416 177.429 348.416 177.568V178.528C348.416 178.635 348.368 178.677 348.272 178.656C348.176 178.645 348.064 178.635 347.936 178.624C347.818 178.613 347.69 178.608 347.552 178.608C347.317 178.608 347.066 178.661 346.799 178.768C346.533 178.864 346.282 179.003 346.048 179.184C345.824 179.365 345.637 179.568 345.488 179.792C345.338 180.016 345.264 180.24 345.264 180.464V185.76C345.264 185.92 345.184 186 345.024 186H344.144ZM39.5339 205.104C39.9925 205.104 40.4299 204.981 40.8459 204.736C41.2725 204.48 41.6939 204.139 42.1099 203.712V197.76C42.1099 197.6 42.1952 197.52 42.3659 197.52H43.2459C43.3952 197.52 43.4699 197.595 43.4699 197.744L43.4379 205.792C43.4379 205.931 43.3792 206 43.2619 206H42.3339C42.2165 206 42.1579 205.941 42.1579 205.824V204.88C42.1579 204.827 42.1472 204.795 42.1259 204.784C42.1045 204.773 42.0672 204.789 42.0139 204.832C41.4272 205.333 40.9045 205.68 40.4459 205.872C39.9979 206.064 39.5499 206.16 39.1019 206.16C38.6112 206.16 38.1739 206.059 37.7899 205.856C37.4059 205.653 37.1019 205.371 36.8779 205.008C36.6539 204.635 36.5419 204.203 36.5419 203.712V197.776C36.5419 197.605 36.6219 197.52 36.7819 197.52H37.6779C37.8165 197.52 37.8859 197.595 37.8859 197.744V203.36C37.8859 203.883 38.0299 204.304 38.3179 204.624C38.6165 204.944 39.0219 205.104 39.5339 205.104ZM46.1435 206C45.9942 206 45.9195 205.931 45.9195 205.792V197.728C45.9195 197.589 45.9782 197.52 46.0955 197.52H47.0555C47.1622 197.52 47.2155 197.579 47.2155 197.696V198.624C47.2155 198.677 47.2262 198.709 47.2475 198.72C47.2795 198.731 47.3222 198.715 47.3755 198.672C47.7168 198.395 48.0315 198.16 48.3195 197.968C48.6182 197.765 48.9168 197.616 49.2155 197.52C49.5248 197.413 49.8555 197.36 50.2075 197.36C50.8368 197.36 51.3382 197.504 51.7115 197.792C52.0955 198.08 52.3515 198.405 52.4795 198.768C52.5008 198.811 52.5328 198.827 52.5755 198.816C52.6182 198.805 52.6608 198.779 52.7035 198.736C53.0448 198.448 53.3648 198.203 53.6635 198C53.9728 197.797 54.2822 197.643 54.5915 197.536C54.9115 197.419 55.2475 197.36 55.5995 197.36C56.3782 197.36 56.9808 197.584 57.4075 198.032C57.8342 198.469 58.0475 199.061 58.0475 199.808V205.744C58.0475 205.915 57.9675 206 57.8075 206H56.9115C56.8368 206 56.7835 205.984 56.7515 205.952C56.7195 205.909 56.7035 205.856 56.7035 205.792V200.08C56.7035 199.557 56.5755 199.152 56.3195 198.864C56.0742 198.565 55.6848 198.416 55.1515 198.416C54.8422 198.416 54.5435 198.475 54.2555 198.592C53.9782 198.709 53.7222 198.853 53.4875 199.024C53.2635 199.195 53.0608 199.355 52.8795 199.504C52.7942 199.579 52.7355 199.653 52.7035 199.728C52.6715 199.792 52.6555 199.877 52.6555 199.984V205.744C52.6555 205.915 52.5755 206 52.4155 206H51.5195C51.4555 206 51.4022 205.984 51.3595 205.952C51.3275 205.909 51.3115 205.856 51.3115 205.792V200.08C51.3115 199.557 51.1888 199.152 50.9435 198.864C50.6982 198.565 50.3088 198.416 49.7755 198.416C49.3275 198.416 48.9168 198.523 48.5435 198.736C48.1702 198.949 47.7435 199.275 47.2635 199.712V205.76C47.2635 205.92 47.1835 206 47.0235 206H46.1435ZM68.7214 204.976C68.3267 205.36 67.8947 205.653 67.4254 205.856C66.9667 206.059 66.4494 206.16 65.8734 206.16C65.0414 206.16 64.3854 205.947 63.9054 205.52C63.436 205.093 63.2014 204.533 63.2014 203.84C63.2014 203.275 63.3614 202.789 63.6814 202.384C64.0014 201.968 64.476 201.643 65.1054 201.408C65.7347 201.163 66.508 201.013 67.4254 200.96L68.6734 200.864C68.7374 200.853 68.796 200.832 68.8494 200.8C68.9027 200.768 68.9294 200.709 68.9294 200.624V200.192C68.9294 199.616 68.748 199.163 68.3854 198.832C68.0334 198.491 67.5534 198.32 66.9454 198.32C66.476 198.32 66.0494 198.427 65.6654 198.64C65.292 198.853 64.956 199.173 64.6574 199.6C64.6147 199.653 64.5774 199.691 64.5454 199.712C64.524 199.723 64.4814 199.717 64.4174 199.696L63.5534 199.408C63.5214 199.387 63.4947 199.36 63.4734 199.328C63.4627 199.296 63.4787 199.237 63.5214 199.152C63.8414 198.597 64.2894 198.16 64.8654 197.84C65.452 197.52 66.1667 197.36 67.0094 197.36C67.724 197.36 68.316 197.472 68.7854 197.696C69.2654 197.909 69.6227 198.224 69.8574 198.64C70.1027 199.045 70.2254 199.531 70.2254 200.096V205.76C70.2254 205.856 70.2094 205.92 70.1774 205.952C70.1454 205.984 70.092 206 70.0174 206H69.2014C69.1267 206 69.0734 205.979 69.0414 205.936C69.0094 205.883 68.988 205.819 68.9774 205.744L68.9614 205.008C68.9294 204.859 68.8494 204.848 68.7214 204.976ZM68.9294 201.936C68.9294 201.755 68.8547 201.669 68.7054 201.68L67.6494 201.776C67.1587 201.797 66.7214 201.861 66.3374 201.968C65.9534 202.064 65.628 202.192 65.3614 202.352C65.0947 202.512 64.892 202.704 64.7534 202.928C64.6147 203.141 64.5454 203.392 64.5454 203.68C64.5454 204.149 64.7054 204.517 65.0254 204.784C65.356 205.04 65.7987 205.168 66.3534 205.168C66.6947 205.168 67.02 205.109 67.3294 204.992C67.6494 204.864 67.9267 204.704 68.1614 204.512C68.4067 204.309 68.5934 204.101 68.7214 203.888C68.86 203.675 68.9294 203.467 68.9294 203.264V201.936ZM73.711 197.52C73.8603 197.52 73.935 197.6 73.935 197.76V198.432C73.935 198.517 73.951 198.565 73.983 198.576C74.0257 198.576 74.079 198.549 74.143 198.496C74.2603 198.368 74.4203 198.219 74.623 198.048C74.8257 197.867 75.087 197.707 75.407 197.568C75.7377 197.429 76.1537 197.36 76.655 197.36C77.3057 197.36 77.8923 197.52 78.415 197.84C78.9483 198.149 79.3697 198.619 79.679 199.248C79.999 199.877 80.159 200.672 80.159 201.632C80.159 202.592 80.0043 203.408 79.695 204.08C79.3857 204.752 78.9537 205.269 78.399 205.632C77.855 205.984 77.215 206.16 76.479 206.16C75.9883 206.16 75.551 206.085 75.167 205.936C74.7937 205.776 74.4737 205.584 74.207 205.36C74.111 205.275 74.0417 205.243 73.999 205.264C73.967 205.275 73.951 205.339 73.951 205.456V208.432C73.951 208.571 73.8923 208.64 73.775 208.64H72.783C72.6657 208.64 72.607 208.571 72.607 208.432V197.776C72.607 197.68 72.623 197.616 72.655 197.584C72.6977 197.541 72.767 197.52 72.863 197.52H73.711ZM73.951 204.128C74.2817 204.448 74.6177 204.704 74.959 204.896C75.311 205.088 75.7003 205.184 76.127 205.184C76.639 205.184 77.0923 205.051 77.487 204.784C77.8923 204.517 78.207 204.123 78.431 203.6C78.6657 203.077 78.783 202.427 78.783 201.648C78.783 200.869 78.6657 200.235 78.431 199.744C78.1963 199.253 77.8817 198.896 77.487 198.672C77.103 198.448 76.6763 198.336 76.207 198.336C75.7697 198.336 75.3803 198.432 75.039 198.624C74.6977 198.816 74.431 199.056 74.239 199.344C74.047 199.621 73.951 199.899 73.951 200.176V204.128ZM83.5139 205.728C83.5139 205.835 83.4925 205.909 83.4499 205.952C83.4072 205.984 83.3325 206 83.2259 206H82.3939C82.2339 206 82.1539 205.925 82.1539 205.776L82.1699 194.352C82.1699 194.203 82.2339 194.128 82.3619 194.128H83.3219C83.4499 194.128 83.5139 194.197 83.5139 194.336V205.728ZM87.326 205.728C87.326 205.835 87.3047 205.909 87.262 205.952C87.23 205.984 87.1553 206 87.038 206H86.222C86.126 206 86.062 205.984 86.03 205.952C85.998 205.92 85.982 205.861 85.982 205.776V197.744C85.982 197.595 86.046 197.52 86.174 197.52H87.15C87.2673 197.52 87.326 197.589 87.326 197.728V205.728ZM87.39 195.696C87.39 195.899 87.294 196 87.102 196H86.174C86.078 196 86.014 195.979 85.982 195.936C85.95 195.883 85.934 195.813 85.934 195.728V194.384C85.934 194.213 86.0087 194.128 86.158 194.128H87.166C87.3153 194.128 87.39 194.208 87.39 194.368V195.696ZM93.3301 197.36C93.8848 197.36 94.3701 197.451 94.7861 197.632C95.2128 197.803 95.5755 198.043 95.8741 198.352C96.1835 198.651 96.4395 198.981 96.6421 199.344C96.7061 199.472 96.6795 199.552 96.5621 199.584L95.6821 199.792C95.6075 199.824 95.5381 199.792 95.4741 199.696C95.2608 199.387 95.0475 199.136 94.8341 198.944C94.6315 198.752 94.4128 198.608 94.1781 198.512C93.9435 198.405 93.6875 198.352 93.4101 198.352C92.8661 198.352 92.3861 198.491 91.9701 198.768C91.5648 199.035 91.2501 199.424 91.0261 199.936C90.8021 200.448 90.6901 201.056 90.6901 201.76C90.6901 202.475 90.8021 203.088 91.0261 203.6C91.2608 204.112 91.5808 204.501 91.9861 204.768C92.4021 205.035 92.8875 205.168 93.4421 205.168C93.9541 205.168 94.3968 205.04 94.7701 204.784C95.1435 204.528 95.4848 204.155 95.7941 203.664C95.8261 203.611 95.8528 203.584 95.8741 203.584C95.9061 203.573 95.9488 203.579 96.0021 203.6L96.6901 203.856C96.7648 203.888 96.7861 203.957 96.7541 204.064C96.5941 204.341 96.4075 204.608 96.1941 204.864C95.9808 205.12 95.7301 205.344 95.4421 205.536C95.1648 205.728 94.8501 205.883 94.4981 206C94.1461 206.107 93.7568 206.16 93.3301 206.16C92.5408 206.16 91.8421 205.979 91.2341 205.616C90.6368 205.243 90.1675 204.731 89.8261 204.08C89.4848 203.419 89.3141 202.656 89.3141 201.792C89.3141 200.917 89.4848 200.149 89.8261 199.488C90.1781 198.827 90.6528 198.309 91.2501 197.936C91.8581 197.552 92.5515 197.36 93.3301 197.36ZM103.362 204.976C102.967 205.36 102.535 205.653 102.066 205.856C101.607 206.059 101.09 206.16 100.514 206.16C99.682 206.16 99.026 205.947 98.546 205.52C98.0767 205.093 97.842 204.533 97.842 203.84C97.842 203.275 98.002 202.789 98.322 202.384C98.642 201.968 99.1167 201.643 99.746 201.408C100.375 201.163 101.149 201.013 102.066 200.96L103.314 200.864C103.378 200.853 103.437 200.832 103.49 200.8C103.543 200.768 103.57 200.709 103.57 200.624V200.192C103.57 199.616 103.389 199.163 103.026 198.832C102.674 198.491 102.194 198.32 101.586 198.32C101.117 198.32 100.69 198.427 100.306 198.64C99.9327 198.853 99.5967 199.173 99.298 199.6C99.2553 199.653 99.218 199.691 99.186 199.712C99.1647 199.723 99.122 199.717 99.058 199.696L98.194 199.408C98.162 199.387 98.1353 199.36 98.114 199.328C98.1033 199.296 98.1193 199.237 98.162 199.152C98.482 198.597 98.93 198.16 99.506 197.84C100.093 197.52 100.807 197.36 101.65 197.36C102.365 197.36 102.957 197.472 103.426 197.696C103.906 197.909 104.263 198.224 104.498 198.64C104.743 199.045 104.866 199.531 104.866 200.096V205.76C104.866 205.856 104.85 205.92 104.818 205.952C104.786 205.984 104.733 206 104.658 206H103.842C103.767 206 103.714 205.979 103.682 205.936C103.65 205.883 103.629 205.819 103.618 205.744L103.602 205.008C103.57 204.859 103.49 204.848 103.362 204.976ZM103.57 201.936C103.57 201.755 103.495 201.669 103.346 201.68L102.29 201.776C101.799 201.797 101.362 201.861 100.978 201.968C100.594 202.064 100.269 202.192 100.002 202.352C99.7353 202.512 99.5327 202.704 99.394 202.928C99.2553 203.141 99.186 203.392 99.186 203.68C99.186 204.149 99.346 204.517 99.666 204.784C99.9967 205.04 100.439 205.168 100.994 205.168C101.335 205.168 101.661 205.109 101.97 204.992C102.29 204.864 102.567 204.704 102.802 204.512C103.047 204.309 103.234 204.101 103.362 203.888C103.501 203.675 103.57 203.467 103.57 203.264V201.936ZM109.285 198.528C109.199 198.528 109.157 198.571 109.157 198.656V203.728C109.157 204.229 109.242 204.565 109.413 204.736C109.583 204.907 109.839 204.992 110.181 204.992H111.285C111.338 204.992 111.381 205.008 111.413 205.04C111.445 205.061 111.461 205.104 111.461 205.168L111.445 205.712C111.445 205.819 111.381 205.888 111.253 205.92C111.146 205.941 110.991 205.957 110.789 205.968C110.597 205.979 110.405 205.989 110.213 206C110.031 206 109.877 206 109.749 206C109.077 206 108.586 205.845 108.277 205.536C107.967 205.216 107.812 204.715 107.812 204.032V198.688C107.812 198.581 107.759 198.528 107.653 198.528H106.373C106.255 198.528 106.197 198.469 106.197 198.352V197.68C106.197 197.573 106.25 197.52 106.357 197.52H107.717C107.791 197.52 107.829 197.477 107.829 197.392L108.005 194.848C108.015 194.709 108.074 194.64 108.181 194.64H108.981C109.109 194.64 109.173 194.715 109.173 194.864V197.392C109.173 197.477 109.215 197.52 109.301 197.52H111.317C111.434 197.52 111.493 197.568 111.493 197.664V198.352C111.493 198.469 111.434 198.528 111.317 198.528H109.285ZM114.576 205.728C114.576 205.835 114.555 205.909 114.512 205.952C114.48 205.984 114.405 206 114.288 206H113.472C113.376 206 113.312 205.984 113.28 205.952C113.248 205.92 113.232 205.861 113.232 205.776V197.744C113.232 197.595 113.296 197.52 113.424 197.52H114.4C114.517 197.52 114.576 197.589 114.576 197.728V205.728ZM114.64 195.696C114.64 195.899 114.544 196 114.352 196H113.424C113.328 196 113.264 195.979 113.232 195.936C113.2 195.883 113.184 195.813 113.184 195.728V194.384C113.184 194.213 113.259 194.128 113.408 194.128H114.416C114.565 194.128 114.64 194.208 114.64 194.368V195.696ZM123.956 197.52C124.031 197.52 124.084 197.547 124.116 197.6C124.148 197.643 124.148 197.696 124.116 197.76L120.868 205.76C120.815 205.92 120.692 206 120.5 206H119.924C119.721 206 119.588 205.925 119.524 205.776L116.292 197.76C116.271 197.696 116.276 197.643 116.308 197.6C116.34 197.547 116.393 197.52 116.468 197.52H117.46C117.524 197.52 117.577 197.536 117.62 197.568C117.663 197.589 117.695 197.632 117.716 197.696L120.228 203.984C120.303 204.187 120.388 204.181 120.484 203.968L122.98 197.696C123.001 197.632 123.028 197.589 123.06 197.568C123.103 197.536 123.156 197.52 123.22 197.52H123.956ZM128.94 206.16C128.14 206.16 127.431 205.979 126.812 205.616C126.204 205.243 125.73 204.731 125.388 204.08C125.058 203.419 124.892 202.661 124.892 201.808C124.892 200.923 125.063 200.149 125.404 199.488C125.756 198.816 126.236 198.293 126.844 197.92C127.452 197.547 128.156 197.36 128.956 197.36C129.767 197.36 130.471 197.552 131.068 197.936C131.676 198.309 132.146 198.832 132.476 199.504C132.818 200.165 132.988 200.928 132.988 201.792C132.988 202.645 132.818 203.403 132.476 204.064C132.135 204.715 131.66 205.227 131.052 205.6C130.455 205.973 129.751 206.16 128.94 206.16ZM128.972 205.152C129.527 205.152 130.002 205.019 130.396 204.752C130.791 204.475 131.09 204.085 131.292 203.584C131.506 203.072 131.612 202.464 131.612 201.76C131.612 201.056 131.506 200.453 131.292 199.952C131.079 199.44 130.775 199.045 130.38 198.768C129.986 198.491 129.511 198.352 128.956 198.352C128.412 198.352 127.938 198.491 127.532 198.768C127.127 199.045 126.812 199.44 126.588 199.952C126.375 200.453 126.268 201.056 126.268 201.76C126.268 202.453 126.375 203.056 126.588 203.568C126.812 204.08 127.127 204.475 127.532 204.752C127.938 205.019 128.418 205.152 128.972 205.152Z" fill="#53565A"/>
</g>
<defs>
<filter id="filter0_d_134_11089" x="0" y="0" width="374" height="242" filterUnits="userSpaceOnUse" color-interpolation-filters="sRGB">
<feFlood flood-opacity="0" result="BackgroundImageFix"/>
<feColorMatrix in="SourceAlpha" type="matrix" values="0 0 0 0 0 0 0 0 0 0 0 0 0 0 0 0 0 0 127 0" result="hardAlpha"/>
<feOffset dy="4"/>
<feGaussianBlur stdDeviation="6"/>
<feColorMatrix type="matrix" values="0 0 0 0 0 0 0 0 0 0 0 0 0 0 0 0 0 0 0.08 0"/>
<feBlend mode="normal" in2="BackgroundImageFix" result="effect1_dropShadow_134_11089"/>
<feBlend mode="normal" in="SourceGraphic" in2="effect1_dropShadow_134_11089" result="shape"/>
</filter>
</defs>
</svg>
