<svg width="1196" height="354" viewBox="0 0 1196 354" fill="none" xmlns="http://www.w3.org/2000/svg">
<g filter="url(#filter0_dd_134_11134)">
<rect x="20" y="18" width="1156" height="312.954" rx="12" fill="#F5F5F5"/>
<path d="M83.4707 230.809C86.4688 230.809 88.6953 229.139 89.1641 226.561V226.542H87.3867L87.3672 226.561C86.9277 228.182 85.4336 229.188 83.4707 229.188C80.7559 229.188 79.0566 226.971 79.0566 223.446V223.426C79.0566 219.901 80.7559 217.674 83.4609 217.674C85.4043 217.674 86.9082 218.817 87.377 220.624L87.3867 220.643H89.1543L89.1641 220.624C88.7441 217.918 86.4297 216.053 83.4609 216.053C79.6328 216.053 77.25 218.885 77.25 223.426V223.446C77.25 227.977 79.6426 230.809 83.4707 230.809ZM96.2246 230.663C99.2227 230.663 101.078 228.592 101.078 225.223V225.204C101.078 221.825 99.2227 219.764 96.2246 219.764C93.2266 219.764 91.3711 221.825 91.3711 225.204V225.223C91.3711 228.592 93.2266 230.663 96.2246 230.663ZM96.2246 229.159C94.2324 229.159 93.1094 227.704 93.1094 225.223V225.204C93.1094 222.713 94.2324 221.268 96.2246 221.268C98.2168 221.268 99.3398 222.713 99.3398 225.204V225.223C99.3398 227.704 98.2168 229.159 96.2246 229.159ZM103.715 230.477H105.414V223.954C105.414 222.469 106.459 221.268 107.836 221.268C109.164 221.268 110.023 222.079 110.023 223.329V230.477H111.723V223.709C111.723 222.372 112.689 221.268 114.154 221.268C115.639 221.268 116.352 222.04 116.352 223.592V230.477H118.051V223.202C118.051 220.995 116.85 219.764 114.701 219.764C113.246 219.764 112.045 220.497 111.479 221.61H111.322C110.834 220.516 109.838 219.764 108.412 219.764C107.035 219.764 106.039 220.418 105.57 221.551H105.414V219.95H103.715V230.477ZM129.633 230.663C131.049 230.663 132.152 230.047 132.816 228.924H132.973V230.477H134.672V223.27C134.672 221.083 133.236 219.764 130.668 219.764C128.422 219.764 126.82 220.877 126.547 222.528L126.537 222.586H128.236L128.246 222.557C128.52 221.737 129.35 221.268 130.609 221.268C132.182 221.268 132.973 221.971 132.973 223.27V224.227L129.955 224.413C127.504 224.559 126.117 225.643 126.117 227.518V227.538C126.117 229.452 127.631 230.663 129.633 230.663ZM127.855 227.499V227.479C127.855 226.434 128.559 225.868 130.16 225.77L132.973 225.594V226.551C132.973 228.055 131.713 229.188 129.984 229.188C128.764 229.188 127.855 228.563 127.855 227.499ZM141.391 230.663C143.783 230.663 145.609 229.364 145.609 227.489V227.469C145.609 225.965 144.652 225.106 142.67 224.627L141.049 224.237C139.809 223.934 139.281 223.485 139.281 222.772V222.752C139.281 221.825 140.199 221.18 141.449 221.18C142.719 221.18 143.539 221.756 143.764 222.586H145.434C145.199 220.868 143.666 219.764 141.459 219.764C139.223 219.764 137.543 221.083 137.543 222.831V222.84C137.543 224.354 138.432 225.213 140.404 225.682L142.035 226.073C143.334 226.385 143.871 226.883 143.871 227.596V227.616C143.871 228.573 142.865 229.247 141.449 229.247C140.102 229.247 139.262 228.67 138.979 227.792H137.24C137.436 229.53 139.047 230.663 141.391 230.663ZM153.871 230.477H155.57V224.247C155.57 222.401 156.635 221.268 158.314 221.268C159.994 221.268 160.775 222.176 160.775 224.071V230.477H162.475V223.661C162.475 221.161 161.156 219.764 158.793 219.764C157.24 219.764 156.254 220.418 155.727 221.532H155.57V219.95H153.871V230.477ZM169.877 230.663C172.875 230.663 174.73 228.592 174.73 225.223V225.204C174.73 221.825 172.875 219.764 169.877 219.764C166.879 219.764 165.023 221.825 165.023 225.204V225.223C165.023 228.592 166.879 230.663 169.877 230.663ZM169.877 229.159C167.885 229.159 166.762 227.704 166.762 225.223V225.204C166.762 222.713 167.885 221.268 169.877 221.268C171.869 221.268 172.992 222.713 172.992 225.204V225.223C172.992 227.704 171.869 229.159 169.877 229.159ZM180.98 230.663C183.373 230.663 185.199 229.364 185.199 227.489V227.469C185.199 225.965 184.242 225.106 182.26 224.627L180.639 224.237C179.398 223.934 178.871 223.485 178.871 222.772V222.752C178.871 221.825 179.789 221.18 181.039 221.18C182.309 221.18 183.129 221.756 183.354 222.586H185.023C184.789 220.868 183.256 219.764 181.049 219.764C178.812 219.764 177.133 221.083 177.133 222.831V222.84C177.133 224.354 178.021 225.213 179.994 225.682L181.625 226.073C182.924 226.385 183.461 226.883 183.461 227.596V227.616C183.461 228.573 182.455 229.247 181.039 229.247C179.691 229.247 178.852 228.67 178.568 227.792H176.83C177.025 229.53 178.637 230.663 180.98 230.663ZM191.254 230.663C193.646 230.663 195.473 229.364 195.473 227.489V227.469C195.473 225.965 194.516 225.106 192.533 224.627L190.912 224.237C189.672 223.934 189.145 223.485 189.145 222.772V222.752C189.145 221.825 190.062 221.18 191.312 221.18C192.582 221.18 193.402 221.756 193.627 222.586H195.297C195.062 220.868 193.529 219.764 191.322 219.764C189.086 219.764 187.406 221.083 187.406 222.831V222.84C187.406 224.354 188.295 225.213 190.268 225.682L191.898 226.073C193.197 226.385 193.734 226.883 193.734 227.596V227.616C193.734 228.573 192.729 229.247 191.312 229.247C189.965 229.247 189.125 228.67 188.842 227.792H187.104C187.299 229.53 188.91 230.663 191.254 230.663ZM201 230.663C202.416 230.663 203.52 230.047 204.184 228.924H204.34V230.477H206.039V223.27C206.039 221.083 204.604 219.764 202.035 219.764C199.789 219.764 198.188 220.877 197.914 222.528L197.904 222.586H199.604L199.613 222.557C199.887 221.737 200.717 221.268 201.977 221.268C203.549 221.268 204.34 221.971 204.34 223.27V224.227L201.322 224.413C198.871 224.559 197.484 225.643 197.484 227.518V227.538C197.484 229.452 198.998 230.663 201 230.663ZM199.223 227.499V227.479C199.223 226.434 199.926 225.868 201.527 225.77L204.34 225.594V226.551C204.34 228.055 203.08 229.188 201.352 229.188C200.131 229.188 199.223 228.563 199.223 227.499ZM212.758 230.663C215.15 230.663 216.977 229.364 216.977 227.489V227.469C216.977 225.965 216.02 225.106 214.037 224.627L212.416 224.237C211.176 223.934 210.648 223.485 210.648 222.772V222.752C210.648 221.825 211.566 221.18 212.816 221.18C214.086 221.18 214.906 221.756 215.131 222.586H216.801C216.566 220.868 215.033 219.764 212.826 219.764C210.59 219.764 208.91 221.083 208.91 222.831V222.84C208.91 224.354 209.799 225.213 211.771 225.682L213.402 226.073C214.701 226.385 215.238 226.883 215.238 227.596V227.616C215.238 228.573 214.232 229.247 212.816 229.247C211.469 229.247 210.629 228.67 210.346 227.792H208.607C208.803 229.53 210.414 230.663 212.758 230.663ZM228.852 230.663C231.244 230.663 233.07 229.364 233.07 227.489V227.469C233.07 225.965 232.113 225.106 230.131 224.627L228.51 224.237C227.27 223.934 226.742 223.485 226.742 222.772V222.752C226.742 221.825 227.66 221.18 228.91 221.18C230.18 221.18 231 221.756 231.225 222.586H232.895C232.66 220.868 231.127 219.764 228.92 219.764C226.684 219.764 225.004 221.083 225.004 222.831V222.84C225.004 224.354 225.893 225.213 227.865 225.682L229.496 226.073C230.795 226.385 231.332 226.883 231.332 227.596V227.616C231.332 228.573 230.326 229.247 228.91 229.247C227.562 229.247 226.723 228.67 226.439 227.792H224.701C224.896 229.53 226.508 230.663 228.852 230.663ZM240.033 230.663C243.031 230.663 244.887 228.592 244.887 225.223V225.204C244.887 221.825 243.031 219.764 240.033 219.764C237.035 219.764 235.18 221.825 235.18 225.204V225.223C235.18 228.592 237.035 230.663 240.033 230.663ZM240.033 229.159C238.041 229.159 236.918 227.704 236.918 225.223V225.204C236.918 222.713 238.041 221.268 240.033 221.268C242.025 221.268 243.148 222.713 243.148 225.204V225.223C243.148 227.704 242.025 229.159 240.033 229.159ZM247.621 230.477H249.32V215.77H247.621V230.477ZM256.107 230.663C257.65 230.663 258.715 230.028 259.232 228.905H259.389V230.477H261.088V219.95H259.389V226.18C259.389 228.026 258.402 229.159 256.547 229.159C254.867 229.159 254.184 228.25 254.184 226.356V219.95H252.484V226.766C252.484 229.256 253.715 230.663 256.107 230.663ZM268.295 235.301C269.623 235.301 270.863 234.754 270.863 233.309V233.29C270.863 232.196 270.023 231.493 268.764 231.493L269.389 230.614C271.41 230.35 272.562 229.09 272.943 227.401L272.963 227.293L271.283 227.303L271.264 227.362C270.873 228.534 269.975 229.159 268.559 229.159C266.684 229.159 265.473 227.606 265.473 225.184V225.165C265.473 222.792 266.664 221.268 268.559 221.268C270.072 221.268 271.01 222.108 271.273 223.143L271.283 223.172H272.973L272.963 223.114C272.65 221.239 271.117 219.764 268.559 219.764C265.609 219.764 263.734 221.893 263.734 225.165V225.184C263.734 228.299 265.375 230.37 267.992 230.633L267.299 231.668V232.547H267.66C268.705 232.547 269.232 232.713 269.232 233.348V233.368C269.232 233.934 268.578 234.12 267.982 234.12C267.406 234.12 266.898 234.032 266.723 233.993V235.125C267.23 235.243 267.758 235.301 268.295 235.301ZM281.225 218.417C282.475 218.417 283.178 217.391 283.178 215.711V215.604H281.811V215.643C281.811 216.639 281.537 217.127 281.068 217.127C280.805 217.127 280.6 217.02 280.238 216.659L280.131 216.551C279.594 216.014 279.086 215.643 278.334 215.643C277.084 215.643 276.381 216.668 276.381 218.348V218.456H277.748V218.417C277.748 217.42 278.021 216.932 278.49 216.932C278.754 216.932 278.959 217.04 279.32 217.401L279.428 217.508C279.965 218.045 280.473 218.417 281.225 218.417ZM279.779 230.663C282.777 230.663 284.633 228.592 284.633 225.223V225.204C284.633 221.825 282.777 219.764 279.779 219.764C276.781 219.764 274.926 221.825 274.926 225.204V225.223C274.926 228.592 276.781 230.663 279.779 230.663ZM279.779 229.159C277.787 229.159 276.664 227.704 276.664 225.223V225.204C276.664 222.713 277.787 221.268 279.779 221.268C281.771 221.268 282.895 222.713 282.895 225.204V225.223C282.895 227.704 281.771 229.159 279.779 229.159ZM291.566 230.663C294.047 230.663 295.551 229.256 295.912 227.831L295.932 227.752H294.232L294.193 227.84C293.91 228.475 293.031 229.149 291.605 229.149C289.73 229.149 288.529 227.879 288.48 225.702H296.059V225.038C296.059 221.893 294.32 219.764 291.459 219.764C288.598 219.764 286.742 221.991 286.742 225.243V225.252C286.742 228.553 288.559 230.663 291.566 230.663ZM291.449 221.278C293.002 221.278 294.154 222.264 294.33 224.344H288.51C288.695 222.342 289.887 221.278 291.449 221.278ZM302.309 230.663C304.701 230.663 306.527 229.364 306.527 227.489V227.469C306.527 225.965 305.57 225.106 303.588 224.627L301.967 224.237C300.727 223.934 300.199 223.485 300.199 222.772V222.752C300.199 221.825 301.117 221.18 302.367 221.18C303.637 221.18 304.457 221.756 304.682 222.586H306.352C306.117 220.868 304.584 219.764 302.377 219.764C300.141 219.764 298.461 221.083 298.461 222.831V222.84C298.461 224.354 299.35 225.213 301.322 225.682L302.953 226.073C304.252 226.385 304.789 226.883 304.789 227.596V227.616C304.789 228.573 303.783 229.247 302.367 229.247C301.02 229.247 300.18 228.67 299.896 227.792H298.158C298.354 229.53 299.965 230.663 302.309 230.663ZM319.096 230.663C321.625 230.663 323.041 229.305 323.471 227.401L323.49 227.293L321.811 227.303L321.791 227.362C321.4 228.534 320.502 229.159 319.086 229.159C317.211 229.159 316 227.606 316 225.184V225.165C316 222.792 317.191 221.268 319.086 221.268C320.6 221.268 321.537 222.108 321.801 223.143L321.811 223.172H323.5L323.49 223.114C323.178 221.239 321.645 219.764 319.086 219.764C316.137 219.764 314.262 221.893 314.262 225.165V225.184C314.262 228.524 316.146 230.663 319.096 230.663ZM330.307 230.663C333.305 230.663 335.16 228.592 335.16 225.223V225.204C335.16 221.825 333.305 219.764 330.307 219.764C327.309 219.764 325.453 221.825 325.453 225.204V225.223C325.453 228.592 327.309 230.663 330.307 230.663ZM330.307 229.159C328.314 229.159 327.191 227.704 327.191 225.223V225.204C327.191 222.713 328.314 221.268 330.307 221.268C332.299 221.268 333.422 222.713 333.422 225.204V225.223C333.422 227.704 332.299 229.159 330.307 229.159ZM337.797 230.477H339.496V223.954C339.496 222.469 340.541 221.268 341.918 221.268C343.246 221.268 344.105 222.079 344.105 223.329V230.477H345.805V223.709C345.805 222.372 346.771 221.268 348.236 221.268C349.721 221.268 350.434 222.04 350.434 223.592V230.477H352.133V223.202C352.133 220.995 350.932 219.764 348.783 219.764C347.328 219.764 346.127 220.497 345.561 221.61H345.404C344.916 220.516 343.92 219.764 342.494 219.764C341.117 219.764 340.121 220.418 339.652 221.551H339.496V219.95H337.797V230.477ZM355.199 233.993H356.898V228.817H357.055C357.631 229.94 358.891 230.663 360.336 230.663C363.012 230.663 364.75 228.524 364.75 225.223V225.204C364.75 221.922 363.002 219.764 360.336 219.764C358.871 219.764 357.699 220.458 357.055 221.629H356.898V219.95H355.199V233.993ZM359.945 229.159C358.031 229.159 356.859 227.655 356.859 225.223V225.204C356.859 222.772 358.031 221.268 359.945 221.268C361.869 221.268 363.012 222.752 363.012 225.204V225.223C363.012 227.674 361.869 229.159 359.945 229.159ZM367.504 230.477H369.203V215.77H367.504V230.477ZM376.762 230.663C379.242 230.663 380.746 229.256 381.107 227.831L381.127 227.752H379.428L379.389 227.84C379.105 228.475 378.227 229.149 376.801 229.149C374.926 229.149 373.725 227.879 373.676 225.702H381.254V225.038C381.254 221.893 379.516 219.764 376.654 219.764C373.793 219.764 371.938 221.991 371.938 225.243V225.252C371.938 228.553 373.754 230.663 376.762 230.663ZM376.645 221.278C378.197 221.278 379.35 222.264 379.525 224.344H373.705C373.891 222.342 375.082 221.278 376.645 221.278ZM383.891 230.477H385.59V223.954C385.59 222.469 386.635 221.268 388.012 221.268C389.34 221.268 390.199 222.079 390.199 223.329V230.477H391.898V223.709C391.898 222.372 392.865 221.268 394.33 221.268C395.814 221.268 396.527 222.04 396.527 223.592V230.477H398.227V223.202C398.227 220.995 397.025 219.764 394.877 219.764C393.422 219.764 392.221 220.497 391.654 221.61H391.498C391.01 220.516 390.014 219.764 388.588 219.764C387.211 219.764 386.215 220.418 385.746 221.551H385.59V219.95H383.891V230.477ZM405.59 230.663C408.07 230.663 409.574 229.256 409.936 227.831L409.955 227.752H408.256L408.217 227.84C407.934 228.475 407.055 229.149 405.629 229.149C403.754 229.149 402.553 227.879 402.504 225.702H410.082V225.038C410.082 221.893 408.344 219.764 405.482 219.764C402.621 219.764 400.766 221.991 400.766 225.243V225.252C400.766 228.553 402.582 230.663 405.59 230.663ZM405.473 221.278C407.025 221.278 408.178 222.264 408.354 224.344H402.533C402.719 222.342 403.91 221.278 405.473 221.278ZM412.719 230.477H414.418V224.247C414.418 222.401 415.482 221.268 417.162 221.268C418.842 221.268 419.623 222.176 419.623 224.071V230.477H421.322V223.661C421.322 221.161 420.004 219.764 417.641 219.764C416.088 219.764 415.102 220.418 414.574 221.532H414.418V219.95H412.719V230.477ZM428.139 230.555C428.471 230.555 428.793 230.516 429.125 230.458V229.012C428.812 229.042 428.646 229.051 428.344 229.051C427.25 229.051 426.82 228.553 426.82 227.313V221.356H429.125V219.95H426.82V217.225H425.062V219.95H423.402V221.356H425.062V227.743C425.062 229.754 425.971 230.555 428.139 230.555ZM434.555 230.663C435.971 230.663 437.074 230.047 437.738 228.924H437.895V230.477H439.594V223.27C439.594 221.083 438.158 219.764 435.59 219.764C433.344 219.764 431.742 220.877 431.469 222.528L431.459 222.586H433.158L433.168 222.557C433.441 221.737 434.271 221.268 435.531 221.268C437.104 221.268 437.895 221.971 437.895 223.27V224.227L434.877 224.413C432.426 224.559 431.039 225.643 431.039 227.518V227.538C431.039 229.452 432.553 230.663 434.555 230.663ZM432.777 227.499V227.479C432.777 226.434 433.48 225.868 435.082 225.77L437.895 225.594V226.551C437.895 228.055 436.635 229.188 434.906 229.188C433.686 229.188 432.777 228.563 432.777 227.499ZM442.699 230.477H444.398V223.954C444.398 222.411 445.551 221.385 447.172 221.385C447.543 221.385 447.865 221.424 448.217 221.483V219.833C448.051 219.803 447.689 219.764 447.367 219.764C445.941 219.764 444.955 220.409 444.555 221.512H444.398V219.95H442.699V230.477ZM454.32 230.663C456.801 230.663 458.305 229.256 458.666 227.831L458.686 227.752H456.986L456.947 227.84C456.664 228.475 455.785 229.149 454.359 229.149C452.484 229.149 451.283 227.879 451.234 225.702H458.812V225.038C458.812 221.893 457.074 219.764 454.213 219.764C451.352 219.764 449.496 221.991 449.496 225.243V225.252C449.496 228.553 451.312 230.663 454.32 230.663ZM454.203 221.278C455.756 221.278 456.908 222.264 457.084 224.344H451.264C451.449 222.342 452.641 221.278 454.203 221.278ZM465.062 230.663C467.455 230.663 469.281 229.364 469.281 227.489V227.469C469.281 225.965 468.324 225.106 466.342 224.627L464.721 224.237C463.48 223.934 462.953 223.485 462.953 222.772V222.752C462.953 221.825 463.871 221.18 465.121 221.18C466.391 221.18 467.211 221.756 467.436 222.586H469.105C468.871 220.868 467.338 219.764 465.131 219.764C462.895 219.764 461.215 221.083 461.215 222.831V222.84C461.215 224.354 462.104 225.213 464.076 225.682L465.707 226.073C467.006 226.385 467.543 226.883 467.543 227.596V227.616C467.543 228.573 466.537 229.247 465.121 229.247C463.773 229.247 462.934 228.67 462.65 227.792H460.912C461.107 229.53 462.719 230.663 465.062 230.663ZM81.1074 254.663C82.6504 254.663 83.7148 254.028 84.2324 252.905H84.3887V254.477H86.0879V243.95H84.3887V250.18C84.3887 252.026 83.4023 253.159 81.5469 253.159C79.8672 253.159 79.1836 252.25 79.1836 250.356V243.95H77.4844V250.766C77.4844 253.256 78.7148 254.663 81.1074 254.663ZM92.875 254.663C95.2676 254.663 97.0938 253.364 97.0938 251.489V251.469C97.0938 249.965 96.1367 249.106 94.1543 248.627L92.5332 248.237C91.293 247.934 90.7656 247.485 90.7656 246.772V246.752C90.7656 245.825 91.6836 245.18 92.9336 245.18C94.2031 245.18 95.0234 245.756 95.248 246.586H96.918C96.6836 244.868 95.1504 243.764 92.9434 243.764C90.707 243.764 89.0273 245.083 89.0273 246.831V246.84C89.0273 248.354 89.916 249.213 91.8887 249.682L93.5195 250.073C94.8184 250.385 95.3555 250.883 95.3555 251.596V251.616C95.3555 252.573 94.3496 253.247 92.9336 253.247C91.5859 253.247 90.7461 252.67 90.4629 251.792H88.7246C88.9199 253.53 90.5312 254.663 92.875 254.663ZM104.027 254.663C106.508 254.663 108.012 253.256 108.373 251.831L108.393 251.752H106.693L106.654 251.84C106.371 252.475 105.492 253.149 104.066 253.149C102.191 253.149 100.99 251.879 100.941 249.702H108.52V249.038C108.52 245.893 106.781 243.764 103.92 243.764C101.059 243.764 99.2031 245.991 99.2031 249.243V249.252C99.2031 252.553 101.02 254.663 104.027 254.663ZM103.91 245.278C105.463 245.278 106.615 246.264 106.791 248.344H100.971C101.156 246.342 102.348 245.278 103.91 245.278ZM359.535 254.663C360.951 254.663 362.055 254.047 362.719 252.924H362.875V254.477H364.574V247.27C364.574 245.083 363.139 243.764 360.57 243.764C358.324 243.764 356.723 244.877 356.449 246.528L356.439 246.586H358.139L358.148 246.557C358.422 245.737 359.252 245.268 360.512 245.268C362.084 245.268 362.875 245.971 362.875 247.27V248.227L359.857 248.413C357.406 248.559 356.02 249.643 356.02 251.518V251.538C356.02 253.452 357.533 254.663 359.535 254.663ZM357.758 251.499V251.479C357.758 250.434 358.461 249.868 360.062 249.77L362.875 249.594V250.551C362.875 252.055 361.615 253.188 359.887 253.188C358.666 253.188 357.758 252.563 357.758 251.499ZM376.918 254.663C379.311 254.663 381.137 253.364 381.137 251.489V251.469C381.137 249.965 380.18 249.106 378.197 248.627L376.576 248.237C375.336 247.934 374.809 247.485 374.809 246.772V246.752C374.809 245.825 375.727 245.18 376.977 245.18C378.246 245.18 379.066 245.756 379.291 246.586H380.961C380.727 244.868 379.193 243.764 376.986 243.764C374.75 243.764 373.07 245.083 373.07 246.831V246.84C373.07 248.354 373.959 249.213 375.932 249.682L377.562 250.073C378.861 250.385 379.398 250.883 379.398 251.596V251.616C379.398 252.573 378.393 253.247 376.977 253.247C375.629 253.247 374.789 252.67 374.506 251.792H372.768C372.963 253.53 374.574 254.663 376.918 254.663ZM388.07 254.663C390.551 254.663 392.055 253.256 392.416 251.831L392.436 251.752H390.736L390.697 251.84C390.414 252.475 389.535 253.149 388.109 253.149C386.234 253.149 385.033 251.879 384.984 249.702H392.562V249.038C392.562 245.893 390.824 243.764 387.963 243.764C385.102 243.764 383.246 245.991 383.246 249.243V249.252C383.246 252.553 385.062 254.663 388.07 254.663ZM387.953 245.278C389.506 245.278 390.658 246.264 390.834 248.344H385.014C385.199 246.342 386.391 245.278 387.953 245.278ZM398.725 254.663C400.268 254.663 401.332 254.028 401.85 252.905H402.006V254.477H403.705V243.95H402.006V250.18C402.006 252.026 401.02 253.159 399.164 253.159C397.484 253.159 396.801 252.25 396.801 250.356V243.95H395.102V250.766C395.102 253.256 396.332 254.663 398.725 254.663ZM413.207 254.477H414.906V245.356H417.299V243.95H414.906V242.827C414.906 241.674 415.395 241.079 416.605 241.079C416.908 241.079 417.191 241.088 417.396 241.127V239.77C417.045 239.702 416.674 239.672 416.264 239.672C414.262 239.672 413.207 240.678 413.207 242.778V243.95H411.459V245.356H413.207V254.477ZM422.348 254.663C423.764 254.663 424.867 254.047 425.531 252.924H425.688V254.477H427.387V247.27C427.387 245.083 425.951 243.764 423.383 243.764C421.137 243.764 419.535 244.877 419.262 246.528L419.252 246.586H420.951L420.961 246.557C421.234 245.737 422.064 245.268 423.324 245.268C424.896 245.268 425.688 245.971 425.688 247.27V248.227L422.67 248.413C420.219 248.559 418.832 249.643 418.832 251.518V251.538C418.832 253.452 420.346 254.663 422.348 254.663ZM420.57 251.499V251.479C420.57 250.434 421.273 249.868 422.875 249.77L425.688 249.594V250.551C425.688 252.055 424.428 253.188 422.699 253.188C421.479 253.188 420.57 252.563 420.57 251.499ZM433.08 254.477H434.799L438.695 243.95H436.898L434.018 252.622H433.861L430.98 243.95H429.184L433.08 254.477ZM444.877 254.663C447.875 254.663 449.73 252.592 449.73 249.223V249.204C449.73 245.825 447.875 243.764 444.877 243.764C441.879 243.764 440.023 245.825 440.023 249.204V249.223C440.023 252.592 441.879 254.663 444.877 254.663ZM444.877 253.159C442.885 253.159 441.762 251.704 441.762 249.223V249.204C441.762 246.713 442.885 245.268 444.877 245.268C446.869 245.268 447.992 246.713 447.992 249.204V249.223C447.992 251.704 446.869 253.159 444.877 253.159ZM452.367 254.477H454.066V247.954C454.066 246.411 455.219 245.385 456.84 245.385C457.211 245.385 457.533 245.424 457.885 245.483V243.833C457.719 243.803 457.357 243.764 457.035 243.764C455.609 243.764 454.623 244.409 454.223 245.512H454.066V243.95H452.367V254.477ZM460.697 249.79H462.318L462.484 240.375H460.531L460.697 249.79ZM461.518 254.653C462.309 254.653 462.865 254.086 462.865 253.295C462.865 252.495 462.309 251.928 461.518 251.928C460.727 251.928 460.16 252.495 460.16 253.295C460.16 254.086 460.727 254.653 461.518 254.653Z" fill="#888888"/>
<path d="M117.533 241.977C118.256 241.977 118.861 241.381 118.861 240.659C118.861 239.926 118.256 239.331 117.533 239.331C116.801 239.331 116.205 239.926 116.205 240.659C116.205 241.381 116.801 241.977 117.533 241.977ZM116.469 254.477H118.578V243.872H116.469V254.477ZM121.664 254.477H123.783V248.256C123.783 246.547 124.75 245.483 126.303 245.483C127.855 245.483 128.588 246.352 128.588 248.11V254.477H130.697V247.612C130.697 245.083 129.389 243.667 127.016 243.667C125.473 243.667 124.457 244.35 123.939 245.483H123.783V243.872H121.664V254.477ZM137.66 254.545C138.07 254.545 138.461 254.497 138.803 254.438V252.749C138.51 252.778 138.324 252.788 138.002 252.788C136.957 252.788 136.527 252.319 136.527 251.176V245.542H138.803V243.872H136.527V241.196H134.369V243.872H132.709V245.542H134.369V251.684C134.369 253.725 135.326 254.545 137.66 254.545ZM145.609 254.682C148.324 254.682 149.789 253.12 150.141 251.723L150.16 251.635L148.119 251.645L148.08 251.723C147.826 252.27 147.016 252.944 145.658 252.944C143.91 252.944 142.797 251.762 142.758 249.731H150.277V248.989C150.277 245.805 148.461 243.667 145.502 243.667C142.543 243.667 140.629 245.883 140.629 249.194V249.204C140.629 252.563 142.504 254.682 145.609 254.682ZM145.512 245.405C146.947 245.405 148.012 246.323 148.178 248.217H142.787C142.973 246.391 144.066 245.405 145.512 245.405ZM152.895 254.477H155.014V239.711H152.895V254.477ZM159.271 241.977C159.994 241.977 160.6 241.381 160.6 240.659C160.6 239.926 159.994 239.331 159.271 239.331C158.539 239.331 157.943 239.926 157.943 240.659C157.943 241.381 158.539 241.977 159.271 241.977ZM158.207 254.477H160.316V243.872H158.207V254.477ZM167.885 258.217C170.893 258.217 172.797 256.674 172.797 254.262V243.872H170.688V245.61H170.561C169.945 244.418 168.793 243.686 167.309 243.686C164.555 243.686 162.865 245.825 162.865 248.852V248.872C162.865 251.86 164.545 253.959 167.27 253.959C168.725 253.959 169.896 253.315 170.541 252.163H170.697V254.252C170.697 255.698 169.662 256.518 167.914 256.518C166.479 256.518 165.619 256 165.443 255.268L165.434 255.249H163.295L163.275 255.268C163.529 257.036 165.189 258.217 167.885 258.217ZM167.855 252.211C166.049 252.211 165.033 250.834 165.033 248.862V248.842C165.033 246.87 166.049 245.483 167.855 245.483C169.643 245.483 170.736 246.87 170.736 248.842V248.862C170.736 250.844 169.652 252.211 167.855 252.211ZM176.635 242.407H178.666L180.15 240.249H180.316L181.801 242.407H183.832L181.4 239.047H179.057L176.635 242.407ZM180.297 254.682C183.012 254.682 184.477 253.12 184.828 251.723L184.848 251.635L182.807 251.645L182.768 251.723C182.514 252.27 181.703 252.944 180.346 252.944C178.598 252.944 177.484 251.762 177.445 249.731H184.965V248.989C184.965 245.805 183.148 243.667 180.189 243.667C177.23 243.667 175.316 245.883 175.316 249.194V249.204C175.316 252.563 177.191 254.682 180.297 254.682ZM180.199 245.405C181.635 245.405 182.699 246.323 182.865 248.217H177.475C177.66 246.391 178.754 245.405 180.199 245.405ZM187.484 254.477H189.604V248.256C189.604 246.547 190.57 245.483 192.123 245.483C193.676 245.483 194.408 246.352 194.408 248.11V254.477H196.518V247.612C196.518 245.083 195.209 243.667 192.836 243.667C191.293 243.667 190.277 244.35 189.76 245.483H189.604V243.872H187.484V254.477ZM203.939 254.682C206.566 254.682 208.08 253.266 208.461 251.206L208.48 251.118H206.449L206.43 251.167C206.088 252.309 205.268 252.915 203.939 252.915C202.191 252.915 201.107 251.489 201.107 249.145V249.125C201.107 246.84 202.172 245.434 203.939 245.434C205.346 245.434 206.205 246.215 206.439 247.26L206.449 247.29L208.48 247.28V247.231C208.188 245.17 206.596 243.667 203.93 243.667C200.834 243.667 198.949 245.766 198.949 249.125V249.145C198.949 252.573 200.844 254.682 203.939 254.682ZM211.986 241.977C212.709 241.977 213.314 241.381 213.314 240.659C213.314 239.926 212.709 239.331 211.986 239.331C211.254 239.331 210.658 239.926 210.658 240.659C210.658 241.381 211.254 241.977 211.986 241.977ZM210.922 254.477H213.031V243.872H210.922V254.477ZM219.027 254.653C220.434 254.653 221.547 254.047 222.172 252.973H222.338V254.477H224.438V247.221C224.438 244.995 222.934 243.667 220.268 243.667C217.855 243.667 216.186 244.829 215.932 246.567L215.922 246.635H217.963L217.973 246.596C218.227 245.844 218.998 245.415 220.17 245.415C221.605 245.415 222.338 246.059 222.338 247.221V248.159L219.467 248.325C216.938 248.481 215.512 249.584 215.512 251.479V251.499C215.512 253.422 217.006 254.653 219.027 254.653ZM217.621 251.411V251.391C217.621 250.434 218.285 249.907 219.75 249.819L222.338 249.653V250.561C222.338 251.928 221.176 252.963 219.594 252.963C218.451 252.963 217.621 252.387 217.621 251.411ZM237.348 254.682C240.062 254.682 241.527 253.12 241.879 251.723L241.898 251.635L239.857 251.645L239.818 251.723C239.564 252.27 238.754 252.944 237.396 252.944C235.648 252.944 234.535 251.762 234.496 249.731H242.016V248.989C242.016 245.805 240.199 243.667 237.24 243.667C234.281 243.667 232.367 245.883 232.367 249.194V249.204C232.367 252.563 234.242 254.682 237.348 254.682ZM237.25 245.405C238.686 245.405 239.75 246.323 239.916 248.217H234.525C234.711 246.391 235.805 245.405 237.25 245.405ZM254.008 254.545C254.418 254.545 254.809 254.497 255.15 254.438V252.749C254.857 252.778 254.672 252.788 254.35 252.788C253.305 252.788 252.875 252.319 252.875 251.176V245.542H255.15V243.872H252.875V241.196H250.717V243.872H249.057V245.542H250.717V251.684C250.717 253.725 251.674 254.545 254.008 254.545ZM261.957 254.682C264.672 254.682 266.137 253.12 266.488 251.723L266.508 251.635L264.467 251.645L264.428 251.723C264.174 252.27 263.363 252.944 262.006 252.944C260.258 252.944 259.145 251.762 259.105 249.731H266.625V248.989C266.625 245.805 264.809 243.667 261.85 243.667C258.891 243.667 256.977 245.883 256.977 249.194V249.204C256.977 252.563 258.852 254.682 261.957 254.682ZM261.859 245.405C263.295 245.405 264.359 246.323 264.525 248.217H259.135C259.32 246.391 260.414 245.405 261.859 245.405ZM273.607 254.682C276.234 254.682 277.748 253.266 278.129 251.206L278.148 251.118H276.117L276.098 251.167C275.756 252.309 274.936 252.915 273.607 252.915C271.859 252.915 270.775 251.489 270.775 249.145V249.125C270.775 246.84 271.84 245.434 273.607 245.434C275.014 245.434 275.873 246.215 276.107 247.26L276.117 247.29L278.148 247.28V247.231C277.855 245.17 276.264 243.667 273.598 243.667C270.502 243.667 268.617 245.766 268.617 249.125V249.145C268.617 252.573 270.512 254.682 273.607 254.682ZM280.551 254.477H282.67V248.256C282.67 246.547 283.637 245.483 285.189 245.483C286.742 245.483 287.475 246.352 287.475 248.11V254.477H289.584V247.612C289.584 245.083 288.275 243.667 285.902 243.667C284.359 243.667 283.344 244.35 282.826 245.483H282.67V243.872H280.551V254.477ZM297.035 254.682C300.141 254.682 302.045 252.602 302.045 249.184V249.165C302.045 245.747 300.131 243.667 297.035 243.667C293.93 243.667 292.016 245.756 292.016 249.165V249.184C292.016 252.602 293.92 254.682 297.035 254.682ZM297.035 252.915C295.209 252.915 294.184 251.538 294.184 249.184V249.165C294.184 246.811 295.209 245.434 297.035 245.434C298.852 245.434 299.887 246.811 299.887 249.165V249.184C299.887 251.528 298.852 252.915 297.035 252.915ZM304.672 254.477H306.791V239.711H304.672V254.477ZM314.438 254.682C317.543 254.682 319.447 252.602 319.447 249.184V249.165C319.447 245.747 317.533 243.667 314.438 243.667C311.332 243.667 309.418 245.756 309.418 249.165V249.184C309.418 252.602 311.322 254.682 314.438 254.682ZM314.438 252.915C312.611 252.915 311.586 251.538 311.586 249.184V249.165C311.586 246.811 312.611 245.434 314.438 245.434C316.254 245.434 317.289 246.811 317.289 249.165V249.184C317.289 251.528 316.254 252.915 314.438 252.915ZM326.459 258.217C329.467 258.217 331.371 256.674 331.371 254.262V243.872H329.262V245.61H329.135C328.52 244.418 327.367 243.686 325.883 243.686C323.129 243.686 321.439 245.825 321.439 248.852V248.872C321.439 251.86 323.119 253.959 325.844 253.959C327.299 253.959 328.471 253.315 329.115 252.163H329.271V254.252C329.271 255.698 328.236 256.518 326.488 256.518C325.053 256.518 324.193 256 324.018 255.268L324.008 255.249H321.869L321.85 255.268C322.104 257.036 323.764 258.217 326.459 258.217ZM326.43 252.211C324.623 252.211 323.607 250.834 323.607 248.862V248.842C323.607 246.87 324.623 245.483 326.43 245.483C328.217 245.483 329.311 246.87 329.311 248.842V248.862C329.311 250.844 328.227 252.211 326.43 252.211ZM335.521 241.977C336.244 241.977 336.85 241.381 336.85 240.659C336.85 239.926 336.244 239.331 335.521 239.331C334.789 239.331 334.193 239.926 334.193 240.659C334.193 241.381 334.789 241.977 335.521 241.977ZM334.457 254.477H336.566V243.872H334.457V254.477ZM342.562 254.653C343.969 254.653 345.082 254.047 345.707 252.973H345.873V254.477H347.973V247.221C347.973 244.995 346.469 243.667 343.803 243.667C341.391 243.667 339.721 244.829 339.467 246.567L339.457 246.635H341.498L341.508 246.596C341.762 245.844 342.533 245.415 343.705 245.415C345.141 245.415 345.873 246.059 345.873 247.221V248.159L343.002 248.325C340.473 248.481 339.047 249.584 339.047 251.479V251.499C339.047 253.422 340.541 254.653 342.562 254.653ZM341.156 251.411V251.391C341.156 250.434 341.82 249.907 343.285 249.819L345.873 249.653V250.561C345.873 251.928 344.711 252.963 343.129 252.963C341.986 252.963 341.156 252.387 341.156 251.411Z" fill="black"/>
<g filter="url(#filter1_d_134_11134)">
<path d="M735.5 86C735.5 79.3726 740.873 74 747.5 74H985.809C992.436 74 997.809 79.3726 997.809 86V119.924C997.809 126.551 992.436 131.924 985.809 131.924H747.5C740.873 131.924 735.5 126.551 735.5 119.924V86Z" fill="white"/>
<path d="M762.38 112.054C768.493 112.054 773.555 106.982 773.555 100.88C773.555 94.7669 768.482 89.7056 762.369 89.7056C756.267 89.7056 751.206 94.7669 751.206 100.88C751.206 106.982 756.278 112.054 762.38 112.054ZM761.142 106.237C760.77 106.237 760.463 106.084 760.178 105.7L757.429 102.326C757.264 102.107 757.166 101.866 757.166 101.614C757.166 101.121 757.549 100.716 758.042 100.716C758.36 100.716 758.601 100.814 758.875 101.176L761.099 104.046L765.776 96.5307C765.985 96.202 766.269 96.0267 766.554 96.0267C767.036 96.0267 767.485 96.3554 767.485 96.8703C767.485 97.1113 767.343 97.3633 767.212 97.5933L762.063 105.7C761.833 106.062 761.515 106.237 761.142 106.237Z" fill="#00C1D5"/>
<path d="M806.966 104.59H806.84C805.249 107.796 803.331 108.831 801.085 108.831C797.273 108.831 794.446 105.978 794.446 100.678C794.446 95.4278 797.223 92.7018 800.656 92.7018C802.927 92.7018 804.846 93.9386 806.284 96.6646H806.385V92.727C805.249 92.2222 803.028 91.6922 800.984 91.6922C795.961 91.6922 790.408 94.923 790.408 100.956C790.408 106.559 795.204 109.84 800.984 109.84C803.18 109.84 805.426 109.361 806.612 108.755L806.966 104.59ZM815.487 107.619C815.108 107.821 814.628 107.947 814.225 107.947C813.165 107.947 811.902 107.114 811.902 105.676C811.902 103.555 813.417 102.975 814.805 102.975C815.032 102.975 815.26 103 815.487 103.051V107.619ZM821.115 108.452C819.778 108.301 819.02 108.048 819.02 106.054V100.804C819.02 97.6995 817.38 96.286 814.225 96.286C811.448 96.286 808.747 97.6995 808.747 99.5168C808.747 100.425 809.555 101.157 810.439 101.157C811.372 101.157 812.155 100.476 812.155 99.4663C812.155 98.6586 811.524 97.9519 810.489 97.7499C810.893 97.4975 811.6 97.1946 812.306 97.1946C814.225 97.1946 815.487 98.6334 815.487 100.678V102.142C810.565 102.672 808.344 104.666 808.344 106.736C808.344 108.553 809.782 109.765 811.625 109.765C813.24 109.765 814.654 108.755 815.512 107.998C815.663 109.159 816.547 109.714 817.632 109.714C818.793 109.714 820.282 109.058 821.115 108.553V108.452ZM828.623 109.462V109.361C826.957 108.755 826.679 107.972 826.679 106.029V96.286H826.578C825.165 96.7403 823.07 97.2956 821.253 97.4218V97.5228C822.893 98.179 823.146 98.7343 823.146 100.956V106.029C823.146 107.972 822.893 108.78 821.53 109.361V109.462H828.623ZM831.298 98.2295C831.298 97.1694 830.44 96.286 829.38 96.286C828.295 96.286 827.487 97.1694 827.487 98.2295C827.487 99.2896 828.295 100.123 829.38 100.123C830.44 100.123 831.298 99.2896 831.298 98.2295ZM846.261 108.528C844.62 107.871 844.368 107.316 844.368 105.095V90.4301H844.267C842.853 90.8844 840.531 91.4397 838.714 91.5659V91.6669C840.481 92.3232 840.733 92.8785 840.733 95.0997V96.4879C840.127 96.3869 839.421 96.286 838.739 96.286C835.205 96.286 831.192 99.0372 831.192 103.707C831.192 107.569 833.893 109.765 836.266 109.765C838.361 109.765 839.875 108.528 840.733 107.619V109.765H840.834C842.248 109.31 844.065 108.831 846.261 108.629V108.528ZM840.733 107.341C840.228 107.594 839.673 107.72 839.093 107.72C836.947 107.72 834.827 106.004 834.827 102.52C834.827 99.3654 836.669 97.0432 838.512 97.0432C839.446 97.0432 840.178 97.6995 840.733 98.4062V107.341ZM854.013 107.619C853.635 107.821 853.155 107.947 852.751 107.947C851.691 107.947 850.429 107.114 850.429 105.676C850.429 103.555 851.944 102.975 853.332 102.975C853.559 102.975 853.786 103 854.013 103.051V107.619ZM859.642 108.452C858.304 108.301 857.547 108.048 857.547 106.054V100.804C857.547 97.6995 855.906 96.286 852.751 96.286C849.975 96.286 847.274 97.6995 847.274 99.5168C847.274 100.425 848.082 101.157 848.965 101.157C849.899 101.157 850.682 100.476 850.682 99.4663C850.682 98.6586 850.051 97.9519 849.016 97.7499C849.42 97.4975 850.126 97.1946 850.833 97.1946C852.751 97.1946 854.013 98.6334 854.013 100.678V102.142C849.091 102.672 846.87 104.666 846.87 106.736C846.87 108.553 848.309 109.765 850.152 109.765C851.767 109.765 853.18 108.755 854.039 107.998C854.19 109.159 855.073 109.714 856.159 109.714C857.32 109.714 858.809 109.058 859.642 108.553V108.452ZM850.253 94.8472C852.474 94.4434 854.241 93.6609 855.452 92.0455L852.676 91.7426C852.12 92.8027 850.858 94.2415 850.126 94.822L850.253 94.8472ZM867.15 115.267V115.166C865.484 114.56 865.206 113.778 865.206 111.834V109.664C865.66 109.739 866.796 109.765 867.276 109.765C869.926 109.765 874.722 107.518 874.722 102.344C874.722 98.9363 872.753 96.286 869.472 96.286C867.427 96.286 865.787 97.8509 865.206 98.4567V96.286H865.105C863.692 96.7403 861.874 97.2199 859.678 97.4218V97.5228C861.319 98.179 861.571 98.7343 861.571 100.956V111.834C861.571 113.778 861.319 114.586 859.956 115.166V115.267H867.15ZM865.206 98.8353C865.66 98.5324 866.493 98.1538 867.276 98.1538C869.32 98.1538 871.112 100.148 871.112 103.151C871.112 107.14 869.068 109.058 867.402 109.058C866.418 109.058 865.585 108.25 865.206 107.846V98.8353ZM881.578 93.3328C881.578 92.2979 880.72 91.4397 879.66 91.4397C878.625 91.4397 877.767 92.2979 877.767 93.3328C877.767 94.3677 878.625 95.2259 879.66 95.2259C880.72 95.2259 881.578 94.3677 881.578 93.3328ZM883.118 109.462V109.361C881.755 108.78 881.502 107.972 881.502 106.029V96.286H881.401C879.988 96.7403 877.893 97.2956 876.075 97.4218V97.5228C877.716 98.179 877.968 98.7343 877.968 100.956V106.029C877.968 107.972 877.716 108.78 876.353 109.361V109.462H883.118ZM898.245 103.025C898.245 99.012 894.914 96.286 891.304 96.286C887.72 96.286 884.388 99.012 884.388 103.025C884.388 106.837 887.568 109.765 891.304 109.765C895.04 109.765 898.245 106.837 898.245 103.025ZM891.304 109.007C889.032 109.007 888.225 105.978 888.225 103.025C888.225 99.6682 889.26 97.0432 891.304 97.0432C893.349 97.0432 894.409 99.6682 894.409 103.025C894.409 105.978 893.601 109.007 891.304 109.007ZM910.773 108.452V93.0552H913.55C917.235 93.0552 919.961 96.0083 919.961 100.627C919.961 104.918 917.613 108.452 913.247 108.452H910.773ZM913.297 109.462C919.103 109.462 923.999 105.978 923.999 100.325C923.999 94.6453 919.027 92.0455 913.6 92.0455H905.018V92.1465C906.709 92.7523 906.987 93.5347 906.987 95.4783V105.978C906.987 107.922 906.709 108.755 905.018 109.361V109.462H913.297ZM931.074 93.3328C931.074 92.2979 930.215 91.4397 929.155 91.4397C928.12 91.4397 927.262 92.2979 927.262 93.3328C927.262 94.3677 928.12 95.2259 929.155 95.2259C930.215 95.2259 931.074 94.3677 931.074 93.3328ZM932.613 109.462V109.361C931.25 108.78 930.998 107.972 930.998 106.029V96.286H930.897C929.483 96.7403 927.388 97.2956 925.571 97.4218V97.5228C927.212 98.179 927.464 98.7343 927.464 100.956V106.029C927.464 107.972 927.212 108.78 925.849 109.361V109.462H932.613ZM938.149 107.039C936.155 106.938 936.408 105.575 937.518 104.817C938.175 104.994 938.881 105.095 939.563 105.095C942.516 105.095 944.914 103.429 944.914 100.678C944.914 99.5168 944.308 98.4819 943.601 97.8509L946.353 98.1286L946.706 96.286H946.58L942.087 96.8413C941.279 96.4879 940.371 96.286 939.563 96.286C936.484 96.286 934.187 97.9771 934.187 100.779C934.187 102.798 935.423 104.035 937.014 104.641C935.802 105.398 934.818 106.66 934.818 107.922C934.818 108.704 935.171 109.462 936.181 109.891C934.464 110.295 932.899 111.153 932.899 112.617C932.899 114.308 935.953 115.519 938.856 115.519C942.213 115.519 946.252 113.778 946.252 110.547C946.252 108.174 944.611 107.341 941.986 107.215L938.149 107.039ZM941.002 110.37C943.122 110.446 944.081 110.673 944.081 111.86C944.081 113.45 941.986 114.888 939.664 114.888C936.938 114.888 935.651 113.601 935.651 112.188C935.651 111.43 936.13 110.598 936.837 110.093C937.089 110.143 937.367 110.168 937.67 110.194L941.002 110.37ZM939.563 104.338C938.074 104.338 937.695 102.672 937.695 100.678C937.695 98.7091 938.175 97.0432 939.563 97.0432C940.926 97.0432 941.405 98.7091 941.405 100.678C941.405 102.697 941.002 104.338 939.563 104.338ZM952.247 93.3328C952.247 92.2979 951.389 91.4397 950.329 91.4397C949.294 91.4397 948.436 92.2979 948.436 93.3328C948.436 94.3677 949.294 95.2259 950.329 95.2259C951.389 95.2259 952.247 94.3677 952.247 93.3328ZM953.787 109.462V109.361C952.424 108.78 952.171 107.972 952.171 106.029V96.286H952.071C950.657 96.7403 948.562 97.2956 946.745 97.4218V97.5228C948.385 98.179 948.638 98.7343 948.638 100.956V106.029C948.638 107.972 948.385 108.78 947.022 109.361V109.462H953.787ZM963.639 107.468C963.185 107.771 962.63 107.922 961.999 107.922C960.787 107.922 959.929 107.013 959.929 105.6V98.1286H963.21V96.5889H959.929V93.3328H959.752C958.465 95.0744 956.799 96.7403 954.25 97.8004V97.9519H956.395V105.777C956.395 108.629 957.834 109.664 960.055 109.664C961.696 109.664 963.185 108.376 963.74 107.594L963.639 107.468ZM970.925 107.619C970.546 107.821 970.066 107.947 969.663 107.947C968.602 107.947 967.34 107.114 967.34 105.676C967.34 103.555 968.855 102.975 970.243 102.975C970.47 102.975 970.697 103 970.925 103.051V107.619ZM976.553 108.452C975.216 108.301 974.458 108.048 974.458 106.054V100.804C974.458 97.6995 972.818 96.286 969.663 96.286C966.886 96.286 964.185 97.6995 964.185 99.5168C964.185 100.425 964.993 101.157 965.876 101.157C966.81 101.157 967.593 100.476 967.593 99.4663C967.593 98.6586 966.962 97.9519 965.927 97.7499C966.331 97.4975 967.038 97.1946 967.744 97.1946C969.663 97.1946 970.925 98.6334 970.925 100.678V102.142C966.003 102.672 963.781 104.666 963.781 106.736C963.781 108.553 965.22 109.765 967.063 109.765C968.678 109.765 970.092 108.755 970.95 107.998C971.101 109.159 971.985 109.714 973.07 109.714C974.231 109.714 975.72 109.058 976.553 108.553V108.452ZM983.733 109.462V109.361C982.37 108.78 982.117 107.972 982.117 106.029V90.4301H982.016C980.603 90.8844 978.407 91.4397 976.59 91.5659V91.6669C978.23 92.3232 978.483 92.8785 978.483 95.0997V106.029C978.483 107.972 978.23 108.78 976.867 109.361V109.462H983.733Z" fill="black"/>
</g>
<g filter="url(#filter2_d_134_11134)">
<path d="M718 159.924C718 153.296 723.373 147.924 730 147.924H1003.31C1009.94 147.924 1015.31 153.296 1015.31 159.924V193.847C1015.31 200.475 1009.94 205.847 1003.31 205.847H730C723.373 205.847 718 200.475 718 193.847V159.924Z" fill="white"/>
<path d="M744.88 185.978C750.993 185.978 756.055 180.906 756.055 174.803C756.055 168.69 750.982 163.629 744.869 163.629C738.767 163.629 733.706 168.69 733.706 174.803C733.706 180.906 738.778 185.978 744.88 185.978ZM743.642 180.161C743.27 180.161 742.963 180.007 742.678 179.624L739.929 176.25C739.764 176.03 739.666 175.789 739.666 175.537C739.666 175.044 740.049 174.639 740.542 174.639C740.86 174.639 741.101 174.738 741.375 175.099L743.599 177.97L748.276 170.454C748.485 170.126 748.769 169.95 749.054 169.95C749.536 169.95 749.985 170.279 749.985 170.794C749.985 171.035 749.843 171.287 749.712 171.517L744.563 179.624C744.333 179.985 744.015 180.161 743.642 180.161Z" fill="#00C1D5"/>
<path d="M773.211 182.653C774.422 183.31 776.568 183.764 778.284 183.764C782.045 183.764 784.569 181.593 784.569 178.665C784.569 173.415 776.391 172.86 776.391 169.124C776.391 167.812 777.375 166.625 778.89 166.625C780.455 166.625 782.095 167.887 783.559 170.538H783.66V166.625C782.726 166.247 781.01 165.616 779.193 165.616C776.038 165.616 773.16 167.534 773.16 170.437C773.16 175.333 781.338 176.217 781.338 179.978C781.338 181.467 780.051 182.729 778.385 182.729C776.492 182.729 774.902 181.063 773.312 178.085H773.211V182.653ZM791.56 167.256C791.56 166.222 790.702 165.363 789.642 165.363C788.607 165.363 787.749 166.222 787.749 167.256C787.749 168.291 788.607 169.149 789.642 169.149C790.702 169.149 791.56 168.291 791.56 167.256ZM793.1 183.385V183.284C791.737 182.704 791.484 181.896 791.484 179.953V170.21H791.383C789.97 170.664 787.875 171.219 786.057 171.345V171.446C787.698 172.103 787.95 172.658 787.95 174.879V179.953C787.95 181.896 787.698 182.704 786.335 183.284V183.385H793.1ZM794.623 182.88C795.733 183.385 797.147 183.688 798.813 183.688C801.488 183.688 803.911 182.224 803.911 179.549C803.911 175.056 797.222 175.434 797.222 172.809C797.222 171.598 798.106 170.967 799.141 170.967C800.302 170.967 801.513 172.103 802.876 174.172H802.977V170.891C801.968 170.512 800.554 170.21 799.317 170.21C796.768 170.21 794.572 171.825 794.572 174.172C794.572 178.59 801.059 178.135 801.059 180.836C801.059 182.249 800.125 182.931 798.913 182.931C797.5 182.931 796.036 181.543 794.623 179.069H794.496L794.623 182.88ZM813.255 181.391C812.801 181.694 812.246 181.846 811.615 181.846C810.403 181.846 809.545 180.937 809.545 179.523V172.052H812.826V170.512H809.545V167.256H809.368C808.081 168.998 806.415 170.664 803.866 171.724V171.875H806.011V179.7C806.011 182.552 807.45 183.587 809.671 183.587C811.312 183.587 812.801 182.3 813.356 181.517L813.255 181.391ZM824.436 180.028C823.83 180.483 822.467 181.139 821.079 181.139C818.807 181.139 816.788 179.826 816.788 176.368H824.386V175.333C824.386 171.825 822.265 170.21 819.312 170.21C815.955 170.21 813.103 173.314 813.103 177.226C813.103 181.013 815.299 183.688 818.959 183.688C822.089 183.688 823.805 181.341 824.562 180.129L824.436 180.028ZM816.788 175.788C816.788 173.188 817.672 170.967 819.135 170.967C820.7 170.967 821.256 172.532 821.256 175.384L816.788 175.788ZM848.188 183.385V183.284C846.825 182.704 846.573 181.896 846.573 179.953V174.601C846.573 171.421 844.983 170.21 842.989 170.21C841.197 170.21 839.177 171.573 838.395 172.406C837.789 170.79 836.477 170.235 835.063 170.235C833.422 170.235 831.681 171.421 830.848 172.254V170.21H830.747C829.333 170.664 827.289 171.219 825.472 171.345V171.446C827.112 172.103 827.365 172.658 827.365 174.879V179.953C827.365 181.896 827.112 182.704 825.749 183.284V183.385H832.514V183.284C831.151 182.704 830.898 181.896 830.898 179.953V172.582C831.479 172.279 832.362 172.002 833.119 172.002C834.382 172.002 835.189 172.809 835.189 174.425V179.953C835.189 181.896 834.937 182.704 833.574 183.284V183.385H840.338V183.284C838.975 182.704 838.723 181.896 838.723 179.953V174.601C838.723 173.844 838.622 173.188 838.445 172.633C839.001 172.355 840.162 172.002 840.868 172.002C842.105 172.002 843.039 172.809 843.039 174.425V179.953C843.039 181.896 842.787 182.704 841.424 183.284V183.385H848.188ZM856.529 181.543C856.15 181.745 855.67 181.871 855.267 181.871C854.206 181.871 852.944 181.038 852.944 179.599C852.944 177.479 854.459 176.898 855.847 176.898C856.074 176.898 856.301 176.924 856.529 176.974V181.543ZM862.157 182.376C860.819 182.224 860.062 181.972 860.062 179.978V174.728C860.062 171.623 858.422 170.21 855.267 170.21C852.49 170.21 849.789 171.623 849.789 173.44C849.789 174.349 850.597 175.081 851.48 175.081C852.414 175.081 853.197 174.4 853.197 173.39C853.197 172.582 852.566 171.875 851.531 171.674C851.935 171.421 852.641 171.118 853.348 171.118C855.267 171.118 856.529 172.557 856.529 174.601V176.065C851.607 176.595 849.385 178.59 849.385 180.659C849.385 182.477 850.824 183.688 852.667 183.688C854.282 183.688 855.696 182.679 856.554 181.921C856.705 183.082 857.589 183.638 858.674 183.638C859.835 183.638 861.324 182.981 862.157 182.477V182.376ZM882.915 182.451C881.275 181.795 881.022 181.24 881.022 179.019V164.354H880.921C879.508 164.808 877.186 165.363 875.368 165.49V165.59C877.135 166.247 877.387 166.802 877.387 169.023V170.411C876.782 170.311 876.075 170.21 875.393 170.21C871.86 170.21 867.846 172.961 867.846 177.63C867.846 181.492 870.547 183.688 872.92 183.688C875.015 183.688 876.529 182.451 877.387 181.543V183.688H877.488C878.902 183.234 880.719 182.754 882.915 182.552V182.451ZM877.387 181.265C876.883 181.517 876.327 181.644 875.747 181.644C873.601 181.644 871.481 179.927 871.481 176.444C871.481 173.289 873.324 170.967 875.166 170.967C876.1 170.967 876.832 171.623 877.387 172.33V181.265ZM894.908 180.028C894.302 180.483 892.939 181.139 891.551 181.139C889.279 181.139 887.26 179.826 887.26 176.368H894.858V175.333C894.858 171.825 892.737 170.21 889.784 170.21C886.427 170.21 883.575 173.314 883.575 177.226C883.575 181.013 885.771 183.688 889.431 183.688C892.561 183.688 894.277 181.341 895.034 180.129L894.908 180.028ZM887.26 175.788C887.26 173.188 888.144 170.967 889.608 170.967C891.173 170.967 891.728 172.532 891.728 175.384L887.26 175.788ZM918.71 183.385V183.284C917.524 183.007 917.145 182.628 915.807 180.785L911.617 174.98C913.636 174.5 916.161 173.188 916.161 170.588C916.161 167.458 913.712 165.969 908.992 165.969H901.445V166.07C903.136 166.676 903.414 167.458 903.414 169.402V179.902C903.414 181.846 903.136 182.679 901.445 183.284V183.385H909.169V183.284C907.503 182.679 907.2 181.846 907.2 179.902V175.636H908.26L911.44 180.937C912.854 183.284 913.056 183.385 916.413 183.385H918.71ZM907.2 174.829V166.853H909.017C910.86 166.853 912.349 168.367 912.349 170.714C912.349 173.819 910.128 174.829 908.134 174.829H907.2ZM929.269 180.028C928.663 180.483 927.3 181.139 925.912 181.139C923.64 181.139 921.621 179.826 921.621 176.368H929.219V175.333C929.219 171.825 927.098 170.21 924.145 170.21C920.788 170.21 917.936 173.314 917.936 177.226C917.936 181.013 920.132 183.688 923.792 183.688C926.922 183.688 928.638 181.341 929.395 180.129L929.269 180.028ZM921.621 175.788C921.621 173.188 922.505 170.967 923.969 170.967C925.534 170.967 926.089 172.532 926.089 175.384L921.621 175.788ZM930.809 182.88C931.92 183.385 933.334 183.688 934.999 183.688C937.675 183.688 940.098 182.224 940.098 179.549C940.098 175.056 933.409 175.434 933.409 172.809C933.409 171.598 934.293 170.967 935.328 170.967C936.489 170.967 937.7 172.103 939.063 174.172H939.164V170.891C938.155 170.512 936.741 170.21 935.504 170.21C932.955 170.21 930.759 171.825 930.759 174.172C930.759 178.59 937.246 178.135 937.246 180.836C937.246 182.249 936.312 182.931 935.1 182.931C933.687 182.931 932.223 181.543 930.809 179.069H930.683L930.809 182.88ZM952.563 180.028C951.957 180.483 950.594 181.139 949.206 181.139C946.934 181.139 944.915 179.826 944.915 176.368H952.512V175.333C952.512 171.825 950.392 170.21 947.439 170.21C944.082 170.21 941.23 173.314 941.23 177.226C941.23 181.013 943.425 183.688 947.085 183.688C950.215 183.688 951.932 181.341 952.689 180.129L952.563 180.028ZM944.915 175.788C944.915 173.188 945.798 170.967 947.262 170.967C948.827 170.967 949.382 172.532 949.382 175.384L944.915 175.788ZM960.842 183.385V183.284C959.176 182.679 958.899 181.896 958.899 179.953V170.21H958.798C957.384 170.664 955.289 171.219 953.472 171.345V171.446C955.113 172.103 955.365 172.658 955.365 174.879V179.953C955.365 181.896 955.113 182.704 953.75 183.284V183.385H960.842ZM963.518 172.153C963.518 171.093 962.66 170.21 961.599 170.21C960.514 170.21 959.706 171.093 959.706 172.153C959.706 173.213 960.514 174.046 961.599 174.046C962.66 174.046 963.518 173.213 963.518 172.153ZM971.88 183.385L974.934 175.132C976.171 171.825 976.979 170.916 978.064 170.613V170.512H972.637V170.613C973.596 170.79 974.152 171.345 974.152 172.607C974.152 173.541 973.798 175.132 973.192 176.873L971.703 181.164L969.482 173.97C969.255 173.213 969.154 172.607 969.154 172.153C969.154 171.169 969.634 170.79 970.542 170.613V170.512H963.399V170.613C964.459 170.967 964.888 171.699 965.797 174.223L969.078 183.385H971.88ZM984.976 181.543C984.597 181.745 984.117 181.871 983.714 181.871C982.653 181.871 981.391 181.038 981.391 179.599C981.391 177.479 982.906 176.898 984.294 176.898C984.521 176.898 984.748 176.924 984.976 176.974V181.543ZM990.604 182.376C989.267 182.224 988.509 181.972 988.509 179.978V174.728C988.509 171.623 986.869 170.21 983.714 170.21C980.937 170.21 978.236 171.623 978.236 173.44C978.236 174.349 979.044 175.081 979.927 175.081C980.861 175.081 981.644 174.4 981.644 173.39C981.644 172.582 981.013 171.875 979.978 171.674C980.382 171.421 981.089 171.118 981.795 171.118C983.714 171.118 984.976 172.557 984.976 174.601V176.065C980.054 176.595 977.832 178.59 977.832 180.659C977.832 182.477 979.271 183.688 981.114 183.688C982.729 183.688 984.143 182.679 985.001 181.921C985.152 183.082 986.036 183.638 987.121 183.638C988.282 183.638 989.771 182.981 990.604 182.477V182.376ZM991.373 182.88C992.483 183.385 993.897 183.688 995.563 183.688C998.238 183.688 1000.66 182.224 1000.66 179.549C1000.66 175.056 993.972 175.434 993.972 172.809C993.972 171.598 994.856 170.967 995.891 170.967C997.052 170.967 998.263 172.103 999.626 174.172H999.727V170.891C998.718 170.512 997.304 170.21 996.067 170.21C993.518 170.21 991.322 171.825 991.322 174.172C991.322 178.59 997.809 178.135 997.809 180.836C997.809 182.249 996.875 182.931 995.663 182.931C994.25 182.931 992.786 181.543 991.373 179.069H991.246L991.373 182.88Z" fill="black"/>
</g>
<g filter="url(#filter3_d_134_11134)">
<path d="M749.5 233.847C749.5 227.22 754.873 221.847 761.5 221.847H971.809C978.436 221.847 983.809 227.22 983.809 233.847V267.77C983.809 274.398 978.436 279.77 971.809 279.77H761.5C754.873 279.77 749.5 274.398 749.5 267.77V233.847Z" fill="white"/>
<path d="M776.38 259.901C782.493 259.901 787.555 254.829 787.555 248.727C787.555 242.614 782.482 237.552 776.369 237.552C770.267 237.552 765.206 242.614 765.206 248.727C765.206 254.829 770.278 259.901 776.38 259.901ZM775.142 254.084C774.77 254.084 774.463 253.931 774.178 253.547L771.429 250.173C771.264 249.954 771.166 249.713 771.166 249.461C771.166 248.968 771.549 248.562 772.042 248.562C772.36 248.562 772.601 248.661 772.875 249.023L775.099 251.893L779.776 244.378C779.985 244.049 780.269 243.874 780.554 243.874C781.036 243.874 781.485 244.202 781.485 244.717C781.485 244.958 781.343 245.21 781.212 245.44L776.063 253.547C775.833 253.909 775.515 254.084 775.142 254.084Z" fill="#00C1D5"/>
<path d="M817.811 256.072C817.356 256.223 816.119 256.501 815.11 256.501C811.399 256.501 808.446 253.724 808.446 248.399C808.446 243.552 811.248 240.549 814.857 240.549C817.028 240.549 819.073 241.76 820.739 244.461H820.84V240.523C819.88 240.12 817.457 239.514 814.958 239.514C810.44 239.514 804.408 242.568 804.408 248.701C804.408 254.557 809.33 257.662 814.176 257.662C816.65 257.662 819.527 257.031 821.319 256.501V251.958C821.319 249.913 821.572 249.509 822.859 248.929V248.828H815.892V248.929C817.508 249.534 817.811 250.367 817.811 251.983V256.072ZM835.231 253.952C834.625 254.406 833.262 255.062 831.874 255.062C829.602 255.062 827.583 253.75 827.583 250.292H835.18V249.257C835.18 245.748 833.06 244.133 830.107 244.133C826.75 244.133 823.898 247.238 823.898 251.15C823.898 254.936 826.094 257.611 829.753 257.611C832.883 257.611 834.6 255.264 835.357 254.053L835.231 253.952ZM827.583 249.711C827.583 247.111 828.466 244.89 829.93 244.89C831.495 244.89 832.05 246.455 832.05 249.307L827.583 249.711ZM836.771 256.804C837.882 257.309 839.295 257.611 840.961 257.611C843.636 257.611 846.06 256.148 846.06 253.472C846.06 248.979 839.371 249.358 839.371 246.733C839.371 245.521 840.254 244.89 841.289 244.89C842.45 244.89 843.662 246.026 845.025 248.096H845.126V244.814C844.116 244.436 842.703 244.133 841.466 244.133C838.916 244.133 836.721 245.748 836.721 248.096C836.721 252.513 843.207 252.059 843.207 254.759C843.207 256.173 842.273 256.854 841.062 256.854C839.648 256.854 838.184 255.466 836.771 252.992H836.645L836.771 256.804ZM855.404 255.315C854.949 255.617 854.394 255.769 853.763 255.769C852.552 255.769 851.693 254.86 851.693 253.447V245.975H854.975V244.436H851.693V241.18H851.517C850.229 242.921 848.564 244.587 846.014 245.647V245.799H848.16V253.623C848.16 256.476 849.598 257.511 851.82 257.511C853.46 257.511 854.949 256.223 855.505 255.441L855.404 255.315ZM862.689 255.466C862.311 255.668 861.831 255.794 861.427 255.794C860.367 255.794 859.105 254.961 859.105 253.522C859.105 251.402 860.619 250.822 862.008 250.822C862.235 250.822 862.462 250.847 862.689 250.897V255.466ZM868.318 256.299C866.98 256.148 866.223 255.895 866.223 253.901V248.651C866.223 245.546 864.582 244.133 861.427 244.133C858.651 244.133 855.95 245.546 855.95 247.364C855.95 248.272 856.758 249.004 857.641 249.004C858.575 249.004 859.357 248.323 859.357 247.313C859.357 246.506 858.726 245.799 857.691 245.597C858.095 245.344 858.802 245.042 859.509 245.042C861.427 245.042 862.689 246.48 862.689 248.525V249.989C857.767 250.519 855.546 252.513 855.546 254.583C855.546 256.4 856.985 257.611 858.827 257.611C860.443 257.611 861.856 256.602 862.714 255.845C862.866 257.006 863.749 257.561 864.835 257.561C865.996 257.561 867.485 256.905 868.318 256.4V256.299ZM865.112 239.842C864.734 240.372 864.305 240.725 863.522 240.725C862.412 240.725 861.326 239.993 859.988 239.993C858.6 239.993 857.818 242.316 857.691 242.77L857.818 242.82C858.196 242.29 858.625 241.937 859.408 241.937C860.342 241.937 861.579 242.694 862.942 242.694C864.33 242.694 865.112 240.347 865.238 239.892L865.112 239.842ZM882.691 250.872C882.691 246.859 879.359 244.133 875.75 244.133C872.165 244.133 868.834 246.859 868.834 250.872C868.834 254.684 872.014 257.611 875.75 257.611C879.485 257.611 882.691 254.684 882.691 250.872ZM875.75 256.854C873.478 256.854 872.67 253.825 872.67 250.872C872.67 247.515 873.705 244.89 875.75 244.89C877.794 244.89 878.854 247.515 878.854 250.872C878.854 253.825 878.047 256.854 875.75 256.854ZM904.457 256.375C902.816 255.718 902.564 255.163 902.564 252.942V238.277H902.463C901.049 238.731 898.727 239.287 896.91 239.413V239.514C898.677 240.17 898.929 240.725 898.929 242.947V244.335C898.323 244.234 897.617 244.133 896.935 244.133C893.401 244.133 889.388 246.884 889.388 251.554C889.388 255.416 892.089 257.611 894.462 257.611C896.557 257.611 898.071 256.375 898.929 255.466V257.611H899.03C900.444 257.157 902.261 256.678 904.457 256.476V256.375ZM898.929 255.188C898.424 255.441 897.869 255.567 897.289 255.567C895.143 255.567 893.023 253.851 893.023 250.367C893.023 247.212 894.865 244.89 896.708 244.89C897.642 244.89 898.374 245.546 898.929 246.253V255.188ZM916.45 253.952C915.844 254.406 914.481 255.062 913.093 255.062C910.821 255.062 908.802 253.75 908.802 250.292H916.399V249.257C916.399 245.748 914.279 244.133 911.326 244.133C907.969 244.133 905.117 247.238 905.117 251.15C905.117 254.936 907.313 257.611 910.973 257.611C914.102 257.611 915.819 255.264 916.576 254.053L916.45 253.952ZM908.802 249.711C908.802 247.111 909.685 244.89 911.149 244.89C912.714 244.89 913.27 246.455 913.27 249.307L908.802 249.711ZM937.803 257.309V257.208C936.44 256.627 936.188 255.819 936.188 253.876V244.133H936.087C934.572 244.335 933.033 244.436 931.518 244.436H928.06V243.88C928.06 240.094 929.398 238.883 931.872 238.883C932.906 238.883 933.714 239.236 934.093 239.413C933.386 239.64 932.578 240.12 932.578 241.205C932.578 242.265 933.411 242.972 934.421 242.972C935.279 242.972 936.264 242.189 936.264 241.154C936.264 239.59 934.32 238.277 931.947 238.277C927.631 238.277 924.426 239.842 924.426 244.259V244.436H922.861L922.558 245.723H924.426V253.876C924.426 255.819 924.173 256.627 922.81 257.208V257.309H930.004V257.208C928.338 256.602 928.06 255.819 928.06 253.876V245.723H931.089C932.2 245.723 932.654 246.556 932.654 248.802V253.876C932.654 255.819 932.402 256.627 931.039 257.208V257.309H937.803ZM945.723 257.309V257.208C944.36 256.627 944.107 255.819 944.107 253.876V238.277H944.007C942.593 238.731 940.397 239.287 938.58 239.413V239.514C940.22 240.17 940.473 240.725 940.473 242.947V253.876C940.473 255.819 940.22 256.627 938.857 257.208V257.309H945.723ZM953.817 255.466C953.439 255.668 952.959 255.794 952.555 255.794C951.495 255.794 950.233 254.961 950.233 253.522C950.233 251.402 951.748 250.822 953.136 250.822C953.363 250.822 953.59 250.847 953.817 250.897V255.466ZM959.446 256.299C958.108 256.148 957.351 255.895 957.351 253.901V248.651C957.351 245.546 955.71 244.133 952.555 244.133C949.779 244.133 947.078 245.546 947.078 247.364C947.078 248.272 947.886 249.004 948.769 249.004C949.703 249.004 950.486 248.323 950.486 247.313C950.486 246.506 949.854 245.799 948.82 245.597C949.223 245.344 949.93 245.042 950.637 245.042C952.555 245.042 953.817 246.48 953.817 248.525V249.989C948.895 250.519 946.674 252.513 946.674 254.583C946.674 256.4 948.113 257.611 949.955 257.611C951.571 257.611 952.984 256.602 953.843 255.845C953.994 257.006 954.877 257.561 955.963 257.561C957.124 257.561 958.613 256.905 959.446 256.4V256.299ZM960.214 256.804C961.325 257.309 962.738 257.611 964.404 257.611C967.08 257.611 969.503 256.148 969.503 253.472C969.503 248.979 962.814 249.358 962.814 246.733C962.814 245.521 963.697 244.89 964.732 244.89C965.893 244.89 967.105 246.026 968.468 248.096H968.569V244.814C967.559 244.436 966.146 244.133 964.909 244.133C962.36 244.133 960.164 245.748 960.164 248.096C960.164 252.513 966.651 252.059 966.651 254.759C966.651 256.173 965.717 256.854 964.505 256.854C963.092 256.854 961.628 255.466 960.214 252.992H960.088L960.214 256.804Z" fill="black"/>
</g>
<rect x="390" y="139" width="199" height="56" fill="#00C1D5"/>
<path d="M106.712 118.985H106.492C103.72 124.573 100.376 126.377 96.46 126.377C89.816 126.377 84.888 121.405 84.888 112.165C84.888 103.013 89.728 98.261 95.712 98.261C99.672 98.261 103.016 100.417 105.524 105.169H105.7V98.305C103.72 97.425 99.848 96.501 96.284 96.501C87.528 96.501 77.848 102.133 77.848 112.649C77.848 122.417 86.208 128.137 96.284 128.137C100.112 128.137 104.028 127.301 106.096 126.245L106.712 118.985ZM133.402 116.257C133.402 109.261 127.594 104.509 121.302 104.509C115.054 104.509 109.246 109.261 109.246 116.257C109.246 122.901 114.79 128.005 121.302 128.005C127.814 128.005 133.402 122.901 133.402 116.257ZM121.302 126.685C117.342 126.685 115.934 121.405 115.934 116.257C115.934 110.405 117.738 105.829 121.302 105.829C124.866 105.829 126.714 110.405 126.714 116.257C126.714 121.405 125.306 126.685 121.302 126.685ZM162.062 127.477V127.301C159.686 126.289 159.246 124.881 159.246 121.493V112.165C159.246 106.489 156.122 104.553 152.646 104.553C149.786 104.553 146.442 106.621 144.99 108.073V104.509H144.814C142.35 105.301 138.786 106.269 135.618 106.489V106.665C138.478 107.809 138.918 108.777 138.918 112.649V121.493C138.918 124.881 138.478 126.289 136.102 127.301V127.477H147.894V127.301C145.518 126.289 145.078 124.881 145.078 121.493V108.645C146.09 108.117 147.586 107.633 148.906 107.633C151.062 107.633 153.086 109.041 153.086 111.857V121.493C153.086 124.881 152.646 126.289 150.27 127.301V127.477H162.062ZM189.942 127.477V127.301C187.566 126.289 187.126 124.881 187.126 121.493V112.165C187.126 106.621 184.134 104.509 180.702 104.509C177.886 104.509 174.938 106.489 173.266 107.897V94.3011H173.09C170.626 95.093 166.798 96.017 163.63 96.281V96.457C166.49 97.601 166.93 98.5691 166.93 102.441V121.493C166.93 124.881 166.49 126.289 164.114 127.301V127.477H176.082V127.301C173.706 126.289 173.266 124.881 173.266 121.493V108.645C174.19 108.161 176.038 107.633 177.138 107.633C179.294 107.633 180.966 109.041 180.966 111.857V121.493C180.966 124.881 180.526 126.289 178.15 127.301V127.477H189.942ZM211.845 121.625C210.789 122.417 208.413 123.561 205.993 123.561C202.033 123.561 198.513 121.273 198.513 115.245H211.757V113.441C211.757 107.325 208.061 104.509 202.913 104.509C197.061 104.509 192.089 109.921 192.089 116.741C192.089 123.341 195.917 128.005 202.297 128.005C207.753 128.005 210.745 123.913 212.065 121.801L211.845 121.625ZM198.513 114.233C198.513 109.701 200.053 105.829 202.605 105.829C205.333 105.829 206.301 108.557 206.301 113.529L198.513 114.233ZM233.23 122.241C232.13 123.033 229.93 124.001 227.686 124.001C223.814 124.001 220.382 121.273 220.382 114.761C220.382 108.865 222.758 105.785 226.982 105.785C227.246 105.785 227.554 105.829 227.862 105.873C226.674 106.489 225.838 108.073 225.838 109.217C225.838 111.153 227.334 112.385 229.182 112.385C231.074 112.385 232.482 110.889 232.482 108.865C232.482 106.269 229.402 104.509 225.838 104.509C220.602 104.509 214.046 108.337 214.046 116.873C214.046 122.989 218.006 127.213 223.022 127.873L220.294 131.437C221.834 131.481 224.078 132.361 224.078 133.725C224.078 134.913 223.11 135.617 222.098 135.617C221.218 135.617 220.294 135.485 219.282 135.045L218.754 135.529C219.59 136.145 220.954 136.673 222.758 136.673C224.518 136.673 227.334 135.793 227.334 133.241C227.334 130.997 224.826 129.897 223.154 129.721L224.254 128.005H224.518C229.666 128.005 232.13 124.353 233.494 122.417L233.23 122.241ZM246.992 124.265C246.332 124.617 245.496 124.837 244.792 124.837C242.944 124.837 240.744 123.385 240.744 120.877C240.744 117.181 243.384 116.169 245.804 116.169C246.2 116.169 246.596 116.213 246.992 116.301V124.265ZM256.804 125.717C254.472 125.453 253.152 125.013 253.152 121.537V112.385C253.152 106.973 250.292 104.509 244.792 104.509C239.952 104.509 235.244 106.973 235.244 110.141C235.244 111.725 236.652 113.001 238.192 113.001C239.82 113.001 241.184 111.813 241.184 110.053C241.184 108.645 240.084 107.413 238.28 107.061C238.984 106.621 240.216 106.093 241.448 106.093C244.792 106.093 246.992 108.601 246.992 112.165V114.717C238.412 115.641 234.54 119.117 234.54 122.725C234.54 125.893 237.048 128.005 240.26 128.005C243.076 128.005 245.54 126.245 247.036 124.925C247.3 126.949 248.84 127.917 250.732 127.917C252.756 127.917 255.352 126.773 256.804 125.893V125.717ZM281.901 124.001C281.109 124.529 280.141 124.793 279.041 124.793C276.929 124.793 275.433 123.209 275.433 120.745V107.721H281.153V105.037H275.433V99.361H275.125C272.881 102.397 269.977 105.301 265.533 107.149V107.413H269.273V121.053C269.273 126.025 271.781 127.829 275.653 127.829C278.513 127.829 281.109 125.585 282.077 124.221L281.901 124.001ZM294.601 124.265C293.941 124.617 293.105 124.837 292.401 124.837C290.553 124.837 288.353 123.385 288.353 120.877C288.353 117.181 290.993 116.169 293.413 116.169C293.809 116.169 294.205 116.213 294.601 116.301V124.265ZM304.413 125.717C302.081 125.453 300.761 125.013 300.761 121.537V112.385C300.761 106.973 297.901 104.509 292.401 104.509C287.561 104.509 282.853 106.973 282.853 110.141C282.853 111.725 284.261 113.001 285.801 113.001C287.429 113.001 288.793 111.813 288.793 110.053C288.793 108.645 287.693 107.413 285.889 107.061C286.593 106.621 287.825 106.093 289.057 106.093C292.401 106.093 294.601 108.601 294.601 112.165V114.717C286.021 115.641 282.149 119.117 282.149 122.725C282.149 125.893 284.657 128.005 287.869 128.005C290.685 128.005 293.149 126.245 294.645 124.925C294.909 126.949 296.449 127.917 298.341 127.917C300.365 127.917 302.961 126.773 304.413 125.893V125.717ZM344.472 127.477V127.301C342.096 126.289 341.656 124.881 341.656 121.493V112.165C341.656 106.621 338.884 104.509 335.408 104.509C332.284 104.509 328.764 106.885 327.4 108.337C326.344 105.521 324.056 104.553 321.592 104.553C318.732 104.553 315.696 106.621 314.244 108.073V104.509H314.068C311.604 105.301 308.04 106.269 304.872 106.489V106.665C307.732 107.809 308.172 108.777 308.172 112.649V121.493C308.172 124.881 307.732 126.289 305.356 127.301V127.477H317.148V127.301C314.772 126.289 314.332 124.881 314.332 121.493V108.645C315.344 108.117 316.884 107.633 318.204 107.633C320.404 107.633 321.812 109.041 321.812 111.857V121.493C321.812 124.881 321.372 126.289 318.996 127.301V127.477H330.788V127.301C328.412 126.289 327.972 124.881 327.972 121.493V112.165C327.972 110.845 327.796 109.701 327.488 108.733C328.456 108.249 330.48 107.633 331.712 107.633C333.868 107.633 335.496 109.041 335.496 111.857V121.493C335.496 124.881 335.056 126.289 332.68 127.301V127.477H344.472ZM348.891 126.509C350.607 127.081 355.007 128.005 357.999 128.005C363.411 128.005 371.815 124.001 371.815 115.025C371.815 108.469 367.855 104.509 362.707 104.509C359.011 104.509 356.195 107.193 355.227 108.205V94.3011H355.051C352.587 95.093 348.759 96.061 345.635 96.281V96.457C348.451 97.601 348.891 98.5691 348.891 102.441V126.509ZM355.227 108.777C356.063 108.249 357.339 107.721 358.835 107.721C362.223 107.721 365.523 110.977 365.523 116.433C365.523 123.385 361.959 126.685 358.219 126.685C356.987 126.685 356.151 126.069 355.227 124.969V108.777ZM394.161 121.625C393.105 122.417 390.729 123.561 388.309 123.561C384.349 123.561 380.829 121.273 380.829 115.245H394.073V113.441C394.073 107.325 390.377 104.509 385.229 104.509C379.377 104.509 374.405 109.921 374.405 116.741C374.405 123.341 378.233 128.005 384.613 128.005C390.069 128.005 393.061 123.913 394.381 121.801L394.161 121.625ZM380.829 114.233C380.829 109.701 382.369 105.829 384.921 105.829C387.649 105.829 388.617 108.557 388.617 113.529L380.829 114.233ZM381.973 102.001C385.845 101.297 388.925 99.933 391.037 97.117L386.197 96.589C385.229 98.437 383.029 100.945 381.753 101.957L381.973 102.001ZM435.566 127.477V127.301C433.19 126.289 432.75 124.881 432.75 121.493V112.165C432.75 106.621 429.978 104.509 426.502 104.509C423.378 104.509 419.858 106.885 418.494 108.337C417.438 105.521 415.15 104.553 412.686 104.553C409.826 104.553 406.79 106.621 405.338 108.073V104.509H405.162C402.698 105.301 399.134 106.269 395.966 106.489V106.665C398.826 107.809 399.266 108.777 399.266 112.649V121.493C399.266 124.881 398.826 126.289 396.45 127.301V127.477H408.242V127.301C405.866 126.289 405.426 124.881 405.426 121.493V108.645C406.438 108.117 407.978 107.633 409.298 107.633C411.498 107.633 412.906 109.041 412.906 111.857V121.493C412.906 124.881 412.466 126.289 410.09 127.301V127.477H421.882V127.301C419.506 126.289 419.066 124.881 419.066 121.493V112.165C419.066 110.845 418.89 109.701 418.582 108.733C419.55 108.249 421.574 107.633 422.806 107.633C424.962 107.633 426.59 109.041 426.59 111.857V121.493C426.59 124.881 426.15 126.289 423.774 127.301V127.477H435.566ZM473.027 127.477V127.301C470.651 126.289 470.211 124.881 470.211 121.493V112.165C470.211 106.489 467.087 104.553 463.611 104.553C460.751 104.553 457.407 106.621 455.955 108.073V104.509H455.779C453.315 105.301 449.751 106.269 446.583 106.489V106.665C449.443 107.809 449.883 108.777 449.883 112.649V121.493C449.883 124.881 449.443 126.289 447.067 127.301V127.477H458.859V127.301C456.483 126.289 456.043 124.881 456.043 121.493V108.645C457.055 108.117 458.551 107.633 459.871 107.633C462.027 107.633 464.051 109.041 464.051 111.857V121.493C464.051 124.881 463.611 126.289 461.235 127.301V127.477H473.027ZM499.367 116.257C499.367 109.261 493.559 104.509 487.267 104.509C481.019 104.509 475.211 109.261 475.211 116.257C475.211 122.901 480.755 128.005 487.267 128.005C493.779 128.005 499.367 122.901 499.367 116.257ZM487.267 126.685C483.307 126.685 481.899 121.405 481.899 116.257C481.899 110.405 483.703 105.829 487.267 105.829C490.831 105.829 492.679 110.405 492.679 116.257C492.679 121.405 491.271 126.685 487.267 126.685ZM502.463 126.597C504.399 127.477 506.863 128.005 509.767 128.005C514.431 128.005 518.655 125.453 518.655 120.789C518.655 112.957 506.995 113.617 506.995 109.041C506.995 106.929 508.535 105.829 510.339 105.829C512.363 105.829 514.475 107.809 516.851 111.417H517.027V105.697C515.267 105.037 512.803 104.509 510.647 104.509C506.203 104.509 502.375 107.325 502.375 111.417C502.375 119.117 513.683 118.325 513.683 123.033C513.683 125.497 512.055 126.685 509.943 126.685C507.479 126.685 504.927 124.265 502.463 119.953H502.243L502.463 126.597ZM521.112 126.597C523.048 127.477 525.512 128.005 528.416 128.005C533.08 128.005 537.304 125.453 537.304 120.789C537.304 112.957 525.644 113.617 525.644 109.041C525.644 106.929 527.184 105.829 528.988 105.829C531.012 105.829 533.124 107.809 535.5 111.417H535.676V105.697C533.916 105.037 531.452 104.509 529.296 104.509C524.852 104.509 521.024 107.325 521.024 111.417C521.024 119.117 532.332 118.325 532.332 123.033C532.332 125.497 530.704 126.685 528.592 126.685C526.128 126.685 523.576 124.265 521.112 119.953H520.892L521.112 126.597ZM551.64 124.265C550.98 124.617 550.144 124.837 549.44 124.837C547.592 124.837 545.392 123.385 545.392 120.877C545.392 117.181 548.032 116.169 550.452 116.169C550.848 116.169 551.244 116.213 551.64 116.301V124.265ZM561.452 125.717C559.12 125.453 557.8 125.013 557.8 121.537V112.385C557.8 106.973 554.94 104.509 549.44 104.509C544.6 104.509 539.892 106.973 539.892 110.141C539.892 111.725 541.3 113.001 542.84 113.001C544.468 113.001 545.832 111.813 545.832 110.053C545.832 108.645 544.732 107.413 542.928 107.061C543.632 106.621 544.864 106.093 546.096 106.093C549.44 106.093 551.64 108.601 551.64 112.165V114.717C543.06 115.641 539.188 119.117 539.188 122.725C539.188 125.893 541.696 128.005 544.908 128.005C547.724 128.005 550.188 126.245 551.684 124.925C551.948 126.949 553.488 127.917 555.38 127.917C557.404 127.917 560 126.773 561.452 125.893V125.717ZM562.791 126.597C564.727 127.477 567.191 128.005 570.095 128.005C574.759 128.005 578.983 125.453 578.983 120.789C578.983 112.957 567.323 113.617 567.323 109.041C567.323 106.929 568.863 105.829 570.667 105.829C572.691 105.829 574.803 107.809 577.179 111.417H577.355V105.697C575.595 105.037 573.131 104.509 570.975 104.509C566.531 104.509 562.703 107.325 562.703 111.417C562.703 119.117 574.011 118.325 574.011 123.033C574.011 125.497 572.383 126.685 570.271 126.685C567.807 126.685 565.255 124.265 562.791 119.953H562.571L562.791 126.597ZM101.476 169.257C101.476 162.261 95.668 157.509 89.376 157.509C83.128 157.509 77.32 162.261 77.32 169.257C77.32 175.901 82.864 181.005 89.376 181.005C95.888 181.005 101.476 175.901 101.476 169.257ZM89.376 179.685C85.416 179.685 84.008 174.405 84.008 169.257C84.008 163.405 85.812 158.829 89.376 158.829C92.94 158.829 94.788 163.405 94.788 169.257C94.788 174.405 93.38 179.685 89.376 179.685ZM129.653 178.849C126.793 177.705 126.353 176.737 126.353 172.865V157.509H126.177C123.713 158.301 120.061 159.269 116.893 159.489V159.665C119.753 160.809 120.193 161.777 120.193 165.649V176.737C119.137 177.265 118.433 177.441 117.157 177.441C115.177 177.441 112.845 176.297 112.845 172.997V157.509H112.669C110.205 158.301 106.553 159.269 103.385 159.489V159.665C106.245 160.809 106.685 161.777 106.685 165.649V173.789C106.685 179.377 109.721 181.005 112.933 181.005C116.145 181.005 118.609 178.805 120.281 177.353V181.005H120.457C122.921 180.213 125.825 179.377 129.653 179.025V178.849ZM145.69 177.001C144.898 177.529 143.93 177.793 142.83 177.793C140.718 177.793 139.222 176.209 139.222 173.745V160.721H144.942V158.037H139.222V152.361H138.914C136.67 155.397 133.766 158.301 129.322 160.149V160.413H133.062V174.053C133.062 179.025 135.57 180.829 139.442 180.829C142.302 180.829 144.898 178.585 145.866 177.221L145.69 177.001ZM158.688 180.477V180.301C155.784 179.245 155.3 177.881 155.3 174.493V157.509H155.124C152.66 158.301 149.008 159.269 145.84 159.489V159.665C148.7 160.809 149.14 161.777 149.14 165.649V174.493C149.14 177.881 148.7 179.289 146.324 180.301V180.477H158.688ZM163.352 160.897C163.352 159.049 161.856 157.509 160.008 157.509C158.116 157.509 156.708 159.049 156.708 160.897C156.708 162.745 158.116 164.197 160.008 164.197C161.856 164.197 163.352 162.745 163.352 160.897ZM176.007 177.265C175.347 177.617 174.511 177.837 173.807 177.837C171.959 177.837 169.759 176.385 169.759 173.877C169.759 170.181 172.399 169.169 174.819 169.169C175.215 169.169 175.611 169.213 176.007 169.301V177.265ZM185.819 178.717C183.487 178.453 182.167 178.013 182.167 174.537V165.385C182.167 159.973 179.307 157.509 173.807 157.509C168.967 157.509 164.259 159.973 164.259 163.141C164.259 164.725 165.667 166.001 167.207 166.001C168.835 166.001 170.199 164.813 170.199 163.053C170.199 161.645 169.099 160.413 167.295 160.061C167.999 159.621 169.231 159.093 170.463 159.093C173.807 159.093 176.007 161.601 176.007 165.165V167.717C167.427 168.641 163.555 172.117 163.555 175.725C163.555 178.893 166.063 181.005 169.275 181.005C172.091 181.005 174.555 179.245 176.051 177.925C176.315 179.949 177.855 180.917 179.747 180.917C181.771 180.917 184.367 179.773 185.819 178.893V178.717ZM187.158 179.597C189.094 180.477 191.558 181.005 194.462 181.005C199.126 181.005 203.35 178.453 203.35 173.789C203.35 165.957 191.69 166.617 191.69 162.041C191.69 159.929 193.23 158.829 195.034 158.829C197.058 158.829 199.17 160.809 201.546 164.417H201.722V158.697C199.962 158.037 197.498 157.509 195.342 157.509C190.898 157.509 187.07 160.325 187.07 164.417C187.07 172.117 198.378 171.325 198.378 176.033C198.378 178.497 196.75 179.685 194.638 179.685C192.174 179.685 189.622 177.265 187.158 172.953H186.938L187.158 179.597ZM215.045 179.597C216.981 180.477 219.445 181.005 222.349 181.005C227.013 181.005 231.237 178.453 231.237 173.789C231.237 165.957 219.577 166.617 219.577 162.041C219.577 159.929 221.117 158.829 222.921 158.829C224.945 158.829 227.057 160.809 229.433 164.417H229.609V158.697C227.849 158.037 225.385 157.509 223.229 157.509C218.785 157.509 214.957 160.325 214.957 164.417C214.957 172.117 226.265 171.325 226.265 176.033C226.265 178.497 224.637 179.685 222.525 179.685C220.061 179.685 217.509 177.265 215.045 172.953H214.825L215.045 179.597ZM257.41 169.257C257.41 162.261 251.602 157.509 245.31 157.509C239.062 157.509 233.254 162.261 233.254 169.257C233.254 175.901 238.798 181.005 245.31 181.005C251.822 181.005 257.41 175.901 257.41 169.257ZM245.31 179.685C241.35 179.685 239.942 174.405 239.942 169.257C239.942 163.405 241.746 158.829 245.31 158.829C248.874 158.829 250.722 163.405 250.722 169.257C250.722 174.405 249.314 179.685 245.31 179.685ZM271.682 180.477V180.301C269.306 179.289 268.866 177.881 268.866 174.493V147.301H268.69C266.226 148.093 262.398 149.061 259.23 149.281V149.457C262.09 150.601 262.53 151.569 262.53 155.441V174.493C262.53 177.881 262.09 179.289 259.714 180.301V180.477H271.682ZM298.992 178.849C296.132 177.705 295.692 176.737 295.692 172.865V157.509H295.516C293.052 158.301 289.4 159.269 286.232 159.489V159.665C289.092 160.809 289.532 161.777 289.532 165.649V176.737C288.476 177.265 287.772 177.441 286.496 177.441C284.516 177.441 282.184 176.297 282.184 172.997V157.509H282.008C279.544 158.301 275.892 159.269 272.724 159.489V159.665C275.584 160.809 276.024 161.777 276.024 165.649V173.789C276.024 179.377 279.06 181.005 282.272 181.005C285.484 181.005 287.948 178.805 289.62 177.353V181.005H289.796C292.26 180.213 295.164 179.377 298.992 179.025V178.849ZM319.64 175.241C318.54 176.033 316.34 177.001 314.096 177.001C310.224 177.001 306.792 174.273 306.792 167.761C306.792 161.865 309.168 158.785 313.392 158.785C313.656 158.785 313.964 158.829 314.272 158.873C313.084 159.489 312.248 161.073 312.248 162.217C312.248 164.153 313.744 165.385 315.592 165.385C317.484 165.385 318.892 163.889 318.892 161.865C318.892 159.269 315.812 157.509 312.248 157.509C307.012 157.509 300.456 161.337 300.456 169.873C300.456 175.989 304.416 180.213 309.432 180.873L306.704 184.437C308.244 184.481 310.488 185.361 310.488 186.725C310.488 187.913 309.52 188.617 308.508 188.617C307.628 188.617 306.704 188.485 305.692 188.045L305.164 188.529C306 189.145 307.364 189.673 309.168 189.673C310.928 189.673 313.744 188.793 313.744 186.241C313.744 183.997 311.236 182.897 309.564 182.721L310.664 181.005H310.928C316.076 181.005 318.54 177.353 319.904 175.417L319.64 175.241ZM344.808 169.257C344.808 162.261 339 157.509 332.708 157.509C326.46 157.509 320.652 162.261 320.652 169.257C320.652 175.901 326.196 181.005 332.708 181.005C339.22 181.005 344.808 175.901 344.808 169.257ZM332.708 179.685C328.748 179.685 327.34 174.405 327.34 169.257C327.34 163.405 329.144 158.829 332.708 158.829C336.272 158.829 338.12 163.405 338.12 169.257C338.12 174.405 336.712 179.685 332.708 179.685ZM339.088 150.029C338.428 150.953 337.68 151.569 336.316 151.569C334.38 151.569 332.488 150.293 330.156 150.293C327.736 150.293 326.372 154.341 326.152 155.133L326.372 155.221C327.032 154.297 327.78 153.681 329.144 153.681C330.772 153.681 332.928 155.001 335.304 155.001C337.724 155.001 339.088 150.909 339.308 150.117L339.088 150.029ZM367.177 174.625C366.121 175.417 363.745 176.561 361.325 176.561C357.365 176.561 353.845 174.273 353.845 168.245H367.089V166.441C367.089 160.325 363.393 157.509 358.245 157.509C352.393 157.509 347.421 162.921 347.421 169.741C347.421 176.341 351.249 181.005 357.629 181.005C363.085 181.005 366.077 176.913 367.397 174.801L367.177 174.625ZM353.845 167.233C353.845 162.701 355.385 158.829 357.937 158.829C360.665 158.829 361.633 161.557 361.633 166.529L353.845 167.233ZM369.862 179.597C371.798 180.477 374.262 181.005 377.166 181.005C381.83 181.005 386.054 178.453 386.054 173.789C386.054 165.957 374.394 166.617 374.394 162.041C374.394 159.929 375.934 158.829 377.738 158.829C379.762 158.829 381.874 160.809 384.25 164.417H384.426V158.697C382.666 158.037 380.202 157.509 378.046 157.509C373.602 157.509 369.774 160.325 369.774 164.417C369.774 172.117 381.082 171.325 381.082 176.033C381.082 178.497 379.454 179.685 377.342 179.685C374.878 179.685 372.326 177.265 369.862 172.953H369.642L369.862 179.597Z" fill="black"/>
<path d="M404.744 176.253C401.268 176.077 401.708 173.701 403.644 172.381C404.788 172.689 406.02 172.865 407.208 172.865C412.356 172.865 416.536 169.961 416.536 165.165C416.536 163.141 415.48 161.337 414.248 160.237L419.044 160.721L419.66 157.509H419.44L411.608 158.477C410.2 157.861 408.616 157.509 407.208 157.509C401.84 157.509 397.836 160.457 397.836 165.341C397.836 168.861 399.992 171.017 402.764 172.073C400.652 173.393 398.936 175.593 398.936 177.793C398.936 179.157 399.552 180.477 401.312 181.225C398.32 181.929 395.592 183.425 395.592 185.977C395.592 188.925 400.916 191.037 405.976 191.037C411.828 191.037 418.868 188.001 418.868 182.369C418.868 178.233 416.008 176.781 411.432 176.561L404.744 176.253ZM409.716 182.061C413.412 182.193 415.084 182.589 415.084 184.657C415.084 187.429 411.432 189.937 407.384 189.937C402.632 189.937 400.388 187.693 400.388 185.229C400.388 183.909 401.224 182.457 402.456 181.577C402.896 181.665 403.38 181.709 403.908 181.753L409.716 182.061ZM407.208 171.545C404.612 171.545 403.952 168.641 403.952 165.165C403.952 161.733 404.788 158.829 407.208 158.829C409.584 158.829 410.42 161.733 410.42 165.165C410.42 168.685 409.716 171.545 407.208 171.545ZM432.356 180.477V180.301C429.452 179.245 428.968 177.881 428.968 174.493V157.509H428.792C426.328 158.301 422.676 159.269 419.508 159.489V159.665C422.368 160.809 422.808 161.777 422.808 165.649V174.493C422.808 177.881 422.368 179.289 419.992 180.301V180.477H432.356ZM437.02 160.897C437.02 159.049 435.524 157.509 433.676 157.509C431.784 157.509 430.376 159.049 430.376 160.897C430.376 162.745 431.784 164.197 433.676 164.197C435.524 164.197 437.02 162.745 437.02 160.897ZM449.675 177.265C449.015 177.617 448.179 177.837 447.475 177.837C445.627 177.837 443.427 176.385 443.427 173.877C443.427 170.181 446.067 169.169 448.487 169.169C448.883 169.169 449.279 169.213 449.675 169.301V177.265ZM459.487 178.717C457.155 178.453 455.835 178.013 455.835 174.537V165.385C455.835 159.973 452.975 157.509 447.475 157.509C442.635 157.509 437.927 159.973 437.927 163.141C437.927 164.725 439.335 166.001 440.875 166.001C442.503 166.001 443.867 164.813 443.867 163.053C443.867 161.645 442.767 160.413 440.963 160.061C441.667 159.621 442.899 159.093 444.131 159.093C447.475 159.093 449.675 161.601 449.675 165.165V167.717C441.095 168.641 437.223 172.117 437.223 175.725C437.223 178.893 439.731 181.005 442.943 181.005C445.759 181.005 448.223 179.245 449.719 177.925C449.983 179.949 451.523 180.917 453.415 180.917C455.439 180.917 458.035 179.773 459.487 178.893V178.717ZM475.346 177.001C474.554 177.529 473.586 177.793 472.486 177.793C470.374 177.793 468.878 176.209 468.878 173.745V160.721H474.598V158.037H468.878V152.361H468.57C466.326 155.397 463.422 158.301 458.978 160.149V160.413H462.718V174.053C462.718 179.025 465.226 180.829 469.098 180.829C471.958 180.829 474.554 178.585 475.522 177.221L475.346 177.001ZM501.676 178.849C498.816 177.705 498.376 176.737 498.376 172.865V157.509H498.2C495.736 158.301 492.084 159.269 488.916 159.489V159.665C491.776 160.809 492.216 161.777 492.216 165.649V176.737C491.16 177.265 490.456 177.441 489.18 177.441C487.2 177.441 484.868 176.297 484.868 172.997V157.509H484.692C482.228 158.301 478.576 159.269 475.408 159.489V159.665C478.268 160.809 478.708 161.777 478.708 165.649V173.789C478.708 179.377 481.744 181.005 484.956 181.005C488.168 181.005 490.632 178.805 492.304 177.353V181.005H492.48C494.944 180.213 497.848 179.377 501.676 179.025V178.849ZM512.335 152.361C512.335 150.557 510.839 149.061 508.991 149.061C507.187 149.061 505.691 150.557 505.691 152.361C505.691 154.165 507.187 155.661 508.991 155.661C510.839 155.661 512.335 154.165 512.335 152.361ZM515.019 180.477V180.301C512.643 179.289 512.203 177.881 512.203 174.493V157.509H512.027C509.563 158.301 505.911 159.269 502.743 159.489V159.665C505.603 160.809 506.043 161.777 506.043 165.649V174.493C506.043 177.881 505.603 179.289 503.227 180.301V180.477H515.019ZM532.194 177.001C531.402 177.529 530.434 177.793 529.334 177.793C527.222 177.793 525.726 176.209 525.726 173.745V160.721H531.446V158.037H525.726V152.361H525.418C523.174 155.397 520.27 158.301 515.826 160.149V160.413H519.566V174.053C519.566 179.025 522.074 180.829 525.946 180.829C528.806 180.829 531.402 178.585 532.37 177.221L532.194 177.001ZM544.894 177.265C544.234 177.617 543.398 177.837 542.694 177.837C540.846 177.837 538.646 176.385 538.646 173.877C538.646 170.181 541.286 169.169 543.706 169.169C544.102 169.169 544.498 169.213 544.894 169.301V177.265ZM554.706 178.717C552.374 178.453 551.054 178.013 551.054 174.537V165.385C551.054 159.973 548.194 157.509 542.694 157.509C537.854 157.509 533.146 159.973 533.146 163.141C533.146 164.725 534.554 166.001 536.094 166.001C537.722 166.001 539.086 164.813 539.086 163.053C539.086 161.645 537.986 160.413 536.182 160.061C536.886 159.621 538.118 159.093 539.35 159.093C542.694 159.093 544.894 161.601 544.894 165.165V167.717C536.314 168.641 532.442 172.117 532.442 175.725C532.442 178.893 534.95 181.005 538.162 181.005C540.978 181.005 543.442 179.245 544.938 177.925C545.202 179.949 546.742 180.917 548.634 180.917C550.658 180.917 553.254 179.773 554.706 178.893V178.717ZM556.045 179.597C557.981 180.477 560.445 181.005 563.349 181.005C568.013 181.005 572.237 178.453 572.237 173.789C572.237 165.957 560.577 166.617 560.577 162.041C560.577 159.929 562.117 158.829 563.921 158.829C565.945 158.829 568.057 160.809 570.433 164.417H570.609V158.697C568.849 158.037 566.385 157.509 564.229 157.509C559.785 157.509 555.957 160.325 555.957 164.417C555.957 172.117 567.265 171.325 567.265 176.033C567.265 178.497 565.637 179.685 563.525 179.685C561.061 179.685 558.509 177.265 556.045 172.953H555.825L556.045 179.597ZM578.918 171.677C579.534 164.241 582.482 156.629 582.482 153.197C582.482 151.041 580.722 149.501 578.742 149.501C576.674 149.501 575.046 151.085 575.046 153.285C575.046 156.849 577.994 164.285 578.61 171.677H578.918ZM582.438 177.397C582.438 175.373 580.81 173.789 578.786 173.789C576.762 173.789 575.134 175.373 575.134 177.397C575.134 179.421 576.762 181.005 578.786 181.005C580.81 181.005 582.438 179.421 582.438 177.397Z" fill="white"/>
</g>
<defs>
<filter id="filter0_dd_134_11134" x="0" y="0.75" width="1196" height="352.954" filterUnits="userSpaceOnUse" color-interpolation-filters="sRGB">
<feFlood flood-opacity="0" result="BackgroundImageFix"/>
<feColorMatrix in="SourceAlpha" type="matrix" values="0 0 0 0 0 0 0 0 0 0 0 0 0 0 0 0 0 0 127 0" result="hardAlpha"/>
<feOffset dy="2.75"/>
<feGaussianBlur stdDeviation="10"/>
<feColorMatrix type="matrix" values="0 0 0 0 0 0 0 0 0 0 0 0 0 0 0 0 0 0 0.19 0"/>
<feBlend mode="normal" in2="BackgroundImageFix" result="effect1_dropShadow_134_11134"/>
<feColorMatrix in="SourceAlpha" type="matrix" values="0 0 0 0 0 0 0 0 0 0 0 0 0 0 0 0 0 0 127 0" result="hardAlpha"/>
<feOffset dy="0.25"/>
<feGaussianBlur stdDeviation="1.5"/>
<feColorMatrix type="matrix" values="0 0 0 0 0 0 0 0 0 0 0 0 0 0 0 0 0 0 0.039 0"/>
<feBlend mode="normal" in2="effect1_dropShadow_134_11134" result="effect2_dropShadow_134_11134"/>
<feBlend mode="normal" in="SourceGraphic" in2="effect2_dropShadow_134_11134" result="shape"/>
</filter>
<filter id="filter1_d_134_11134" x="723.5" y="66" width="286.309" height="81.9236" filterUnits="userSpaceOnUse" color-interpolation-filters="sRGB">
<feFlood flood-opacity="0" result="BackgroundImageFix"/>
<feColorMatrix in="SourceAlpha" type="matrix" values="0 0 0 0 0 0 0 0 0 0 0 0 0 0 0 0 0 0 127 0" result="hardAlpha"/>
<feOffset dy="4"/>
<feGaussianBlur stdDeviation="6"/>
<feColorMatrix type="matrix" values="0 0 0 0 0 0 0 0 0 0 0 0 0 0 0 0 0 0 0.08 0"/>
<feBlend mode="normal" in2="BackgroundImageFix" result="effect1_dropShadow_134_11134"/>
<feBlend mode="normal" in="SourceGraphic" in2="effect1_dropShadow_134_11134" result="shape"/>
</filter>
<filter id="filter2_d_134_11134" x="706" y="139.924" width="321.309" height="81.9236" filterUnits="userSpaceOnUse" color-interpolation-filters="sRGB">
<feFlood flood-opacity="0" result="BackgroundImageFix"/>
<feColorMatrix in="SourceAlpha" type="matrix" values="0 0 0 0 0 0 0 0 0 0 0 0 0 0 0 0 0 0 127 0" result="hardAlpha"/>
<feOffset dy="4"/>
<feGaussianBlur stdDeviation="6"/>
<feColorMatrix type="matrix" values="0 0 0 0 0 0 0 0 0 0 0 0 0 0 0 0 0 0 0.08 0"/>
<feBlend mode="normal" in2="BackgroundImageFix" result="effect1_dropShadow_134_11134"/>
<feBlend mode="normal" in="SourceGraphic" in2="effect1_dropShadow_134_11134" result="shape"/>
</filter>
<filter id="filter3_d_134_11134" x="737.5" y="213.847" width="258.309" height="81.9236" filterUnits="userSpaceOnUse" color-interpolation-filters="sRGB">
<feFlood flood-opacity="0" result="BackgroundImageFix"/>
<feColorMatrix in="SourceAlpha" type="matrix" values="0 0 0 0 0 0 0 0 0 0 0 0 0 0 0 0 0 0 127 0" result="hardAlpha"/>
<feOffset dy="4"/>
<feGaussianBlur stdDeviation="6"/>
<feColorMatrix type="matrix" values="0 0 0 0 0 0 0 0 0 0 0 0 0 0 0 0 0 0 0.08 0"/>
<feBlend mode="normal" in2="BackgroundImageFix" result="effect1_dropShadow_134_11134"/>
<feBlend mode="normal" in="SourceGraphic" in2="effect1_dropShadow_134_11134" result="shape"/>
</filter>
</defs>
</svg>
