<svg width="362" height="205" viewBox="0 0 362 205" fill="none" xmlns="http://www.w3.org/2000/svg">
<g filter="url(#filter0_d_134_11066)">
<path d="M12 20C12 13.3726 17.3726 8 24 8H338C344.627 8 350 13.3726 350 20V177C350 183.627 344.627 189 338 189H24C17.3726 189 12 183.627 12 177V20Z" fill="white"/>
<path d="M53.7693 52C54.9164 52 55.8462 51.0702 55.8462 49.9231C55.8462 48.7761 54.9164 47.8462 53.7693 47.8462C52.6223 47.8462 51.6924 48.7761 51.6924 49.9231C51.6924 51.0702 52.6223 52 53.7693 52Z" fill="#F96D7E"/>
<path d="M60.0044 63.077C56.0738 63.077 52.768 60.5215 51.7218 57.034C51.6925 56.9302 51.6879 56.821 51.7083 56.7151C51.7287 56.6092 51.7736 56.5096 51.8393 56.4241C51.905 56.3386 51.9898 56.2697 52.0869 56.2228C52.184 56.1759 52.2907 56.1523 52.3985 56.1539H67.6025C67.7103 56.1523 67.817 56.1759 67.9141 56.2228C68.0112 56.2697 68.0959 56.3386 68.1617 56.4241C68.2274 56.5096 68.2723 56.6092 68.2927 56.7151C68.3131 56.821 68.3084 56.9302 68.2792 57.034C67.2416 60.5215 63.9349 63.077 60.0044 63.077Z" fill="#F96D7E"/>
<path d="M66.2307 52C67.3778 52 68.3077 51.0702 68.3077 49.9231C68.3077 48.7761 67.3778 47.8462 66.2307 47.8462C65.0837 47.8462 64.1538 48.7761 64.1538 49.9231C64.1538 51.0702 65.0837 52 66.2307 52Z" fill="#F96D7E"/>
<path d="M60 70C69.9411 70 78 61.9411 78 52C78 42.0589 69.9411 34 60 34C50.0589 34 42 42.0589 42 52C42 61.9411 50.0589 70 60 70Z" stroke="#F96D7E" stroke-width="3.16484" stroke-miterlimit="10"/>
<path d="M54.23 118V117.88C52.91 117.34 52.07 116.47 50.48 111.91L45.44 97.3H41.18L36.86 109.84C34.58 116.44 33.92 117.25 32.06 117.88V118H39.32V117.88C37.91 117.52 37.19 117.04 37.19 115.6C37.19 114.55 37.55 112.96 38.33 110.53H45.5C46.43 113.29 46.88 114.97 46.88 116.02C46.88 117.19 46.34 117.61 45.26 117.88V118H54.23ZM45.08 109.24H38.75L41.93 99.64L45.08 109.24ZM88.1938 118V117.88C86.5738 117.19 86.2738 116.23 86.2738 113.92V107.56C86.2738 103.78 84.3838 102.34 82.0138 102.34C79.8838 102.34 77.4838 103.96 76.5538 104.95C75.8338 103.03 74.2738 102.37 72.5938 102.37C70.6438 102.37 68.5738 103.78 67.5838 104.77V102.34H67.4638C65.7838 102.88 63.3538 103.54 61.1938 103.69V103.81C63.1438 104.59 63.4438 105.25 63.4438 107.89V113.92C63.4438 116.23 63.1438 117.19 61.5238 117.88V118H69.5638V117.88C67.9438 117.19 67.6438 116.23 67.6438 113.92V105.16C68.3338 104.8 69.3838 104.47 70.2838 104.47C71.7838 104.47 72.7438 105.43 72.7438 107.35V113.92C72.7438 116.23 72.4438 117.19 70.8238 117.88V118H78.8638V117.88C77.2438 117.19 76.9438 116.23 76.9438 113.92V107.56C76.9438 106.66 76.8238 105.88 76.6138 105.22C77.2738 104.89 78.6538 104.47 79.4938 104.47C80.9638 104.47 82.0738 105.43 82.0738 107.35V113.92C82.0738 116.23 81.7738 117.19 80.1538 117.88V118H88.1938ZM103.147 114.01C102.427 114.55 100.807 115.33 99.1566 115.33C96.4566 115.33 94.0566 113.77 94.0566 109.66H103.087V108.43C103.087 104.26 100.567 102.34 97.0566 102.34C93.0666 102.34 89.6766 106.03 89.6766 110.68C89.6766 115.18 92.2866 118.36 96.6366 118.36C100.357 118.36 102.397 115.57 103.297 114.13L103.147 114.01ZM94.0566 108.97C94.0566 105.88 95.1066 103.24 96.8466 103.24C98.7066 103.24 99.3666 105.1 99.3666 108.49L94.0566 108.97ZM112.597 118V117.88C110.977 117.19 110.677 116.23 110.677 113.92V95.38H110.557C108.877 95.92 106.267 96.58 104.107 96.73V96.85C106.057 97.63 106.357 98.29 106.357 100.93V113.92C106.357 116.23 106.057 117.19 104.437 117.88V118H112.597ZM131.338 118V117.88C129.718 117.19 129.418 116.23 129.418 113.92V107.56C129.418 103.78 127.378 102.34 125.038 102.34C123.118 102.34 121.108 103.69 119.968 104.65V95.38H119.848C118.168 95.92 115.558 96.55 113.398 96.73V96.85C115.348 97.63 115.648 98.29 115.648 100.93V113.92C115.648 116.23 115.348 117.19 113.728 117.88V118H121.888V117.88C120.268 117.19 119.968 116.23 119.968 113.92V105.16C120.598 104.83 121.858 104.47 122.608 104.47C124.078 104.47 125.218 105.43 125.218 107.35V113.92C125.218 116.23 124.918 117.19 123.298 117.88V118H131.338ZM149.302 110.35C149.302 105.58 145.342 102.34 141.052 102.34C136.792 102.34 132.832 105.58 132.832 110.35C132.832 114.88 136.612 118.36 141.052 118.36C145.492 118.36 149.302 114.88 149.302 110.35ZM141.052 117.46C138.352 117.46 137.392 113.86 137.392 110.35C137.392 106.36 138.622 103.24 141.052 103.24C143.482 103.24 144.742 106.36 144.742 110.35C144.742 113.86 143.782 117.46 141.052 117.46ZM159.423 118V117.88C157.443 117.16 157.113 116.23 157.113 113.92V102.34H156.993C155.313 102.88 152.823 103.54 150.663 103.69V103.81C152.613 104.59 152.913 105.25 152.913 107.89V113.92C152.913 116.23 152.613 117.19 150.993 117.88V118H159.423ZM162.603 104.65C162.603 103.39 161.583 102.34 160.323 102.34C159.033 102.34 158.073 103.39 158.073 104.65C158.073 105.91 159.033 106.9 160.323 106.9C161.583 106.9 162.603 105.91 162.603 104.65ZM183.274 114.01C182.554 114.55 180.934 115.33 179.284 115.33C176.584 115.33 174.184 113.77 174.184 109.66H183.214V108.43C183.214 104.26 180.694 102.34 177.184 102.34C173.194 102.34 169.804 106.03 169.804 110.68C169.804 115.18 172.414 118.36 176.764 118.36C180.484 118.36 182.524 115.57 183.424 114.13L183.274 114.01ZM174.184 108.97C174.184 105.88 175.234 103.24 176.974 103.24C178.834 103.24 179.494 105.1 179.494 108.49L174.184 108.97ZM200.576 118V117.88C199.076 117.1 198.146 116.2 197.096 114.61L193.376 109.06L194.786 107.02C196.796 104.11 198.716 103.39 200.186 102.85V102.7H193.436V102.85C194.636 103.36 195.326 103.99 193.796 106.51L192.776 108.19L191.576 106.39C190.946 105.46 190.586 104.89 190.586 104.41C190.586 103.78 191.096 103.36 192.086 102.85V102.7H183.266V102.82C184.766 103.69 185.876 104.65 186.926 106.24L189.956 110.77L187.406 114.4C186.056 116.32 184.496 117.19 182.936 117.88V118H190.406V117.85C187.856 117.31 187.586 115.96 190.556 111.64L192.446 114.43C193.046 115.3 193.406 115.93 193.406 116.35C193.406 116.95 192.926 117.4 191.876 117.85V118H200.576ZM209.726 124.9V124.78C207.746 124.06 207.416 123.13 207.416 120.82V118.24C207.956 118.33 209.306 118.36 209.876 118.36C213.026 118.36 218.726 115.69 218.726 109.54C218.726 105.49 216.386 102.34 212.486 102.34C210.056 102.34 208.106 104.2 207.416 104.92V102.34H207.296C205.616 102.88 203.456 103.45 200.846 103.69V103.81C202.796 104.59 203.096 105.25 203.096 107.89V120.82C203.096 123.13 202.796 124.09 201.176 124.78V124.9H209.726ZM207.416 105.37C207.956 105.01 208.946 104.56 209.876 104.56C212.306 104.56 214.436 106.93 214.436 110.5C214.436 115.24 212.006 117.52 210.026 117.52C208.856 117.52 207.866 116.56 207.416 116.08V105.37ZM234.074 114.01C233.354 114.55 231.734 115.33 230.084 115.33C227.384 115.33 224.984 113.77 224.984 109.66H234.014V108.43C234.014 104.26 231.494 102.34 227.984 102.34C223.994 102.34 220.604 106.03 220.604 110.68C220.604 115.18 223.214 118.36 227.564 118.36C231.284 118.36 233.324 115.57 234.224 114.13L234.074 114.01ZM224.984 108.97C224.984 105.88 226.034 103.24 227.774 103.24C229.634 103.24 230.294 105.1 230.294 108.49L224.984 108.97ZM243.915 118V117.88C241.935 117.16 241.605 116.23 241.605 113.92V102.34H241.485C239.805 102.88 237.315 103.54 235.155 103.69V103.81C237.105 104.59 237.405 105.25 237.405 107.89V113.92C237.405 116.23 237.105 117.19 235.485 117.88V118H243.915ZM247.095 104.65C247.095 103.39 246.075 102.34 244.815 102.34C243.525 102.34 242.565 103.39 242.565 104.65C242.565 105.91 243.525 106.9 244.815 106.9C246.075 106.9 247.095 105.91 247.095 104.65ZM254.267 98.83C254.267 97.6 253.247 96.58 251.987 96.58C250.757 96.58 249.737 97.6 249.737 98.83C249.737 100.06 250.757 101.08 251.987 101.08C253.247 101.08 254.267 100.06 254.267 98.83ZM256.097 118V117.88C254.477 117.19 254.177 116.23 254.177 113.92V102.34H254.057C252.377 102.88 249.887 103.54 247.727 103.69V103.81C249.677 104.59 249.977 105.25 249.977 107.89V113.92C249.977 116.23 249.677 117.19 248.057 117.88V118H256.097ZM271.047 114.01C270.327 114.55 268.707 115.33 267.057 115.33C264.357 115.33 261.957 113.77 261.957 109.66H270.987V108.43C270.987 104.26 268.467 102.34 264.957 102.34C260.967 102.34 257.577 106.03 257.577 110.68C257.577 115.18 260.187 118.36 264.537 118.36C268.257 118.36 270.297 115.57 271.197 114.13L271.047 114.01ZM261.957 108.97C261.957 105.88 263.007 103.24 264.747 103.24C266.607 103.24 267.267 105.1 267.267 108.49L261.957 108.97ZM267.957 100.96L265.017 96.88H263.307L260.427 100.96H260.667L264.177 99.37L267.717 100.96H267.957ZM290.308 118V117.88C288.688 117.19 288.388 116.23 288.388 113.92V107.56C288.388 103.69 286.258 102.37 283.888 102.37C281.938 102.37 279.658 103.78 278.668 104.77V102.34H278.548C276.868 102.88 274.438 103.54 272.278 103.69V103.81C274.228 104.59 274.528 105.25 274.528 107.89V113.92C274.528 116.23 274.228 117.19 272.608 117.88V118H280.648V117.88C279.028 117.19 278.728 116.23 278.728 113.92V105.16C279.418 104.8 280.438 104.47 281.338 104.47C282.808 104.47 284.188 105.43 284.188 107.35V113.92C284.188 116.23 283.888 117.19 282.268 117.88V118H290.308ZM304.846 114.43C304.096 114.97 302.596 115.63 301.066 115.63C298.426 115.63 296.086 113.77 296.086 109.33C296.086 105.31 297.706 103.21 300.586 103.21C300.766 103.21 300.976 103.24 301.186 103.27C300.376 103.69 299.806 104.77 299.806 105.55C299.806 106.87 300.826 107.71 302.086 107.71C303.376 107.71 304.336 106.69 304.336 105.31C304.336 103.54 302.236 102.34 299.806 102.34C296.236 102.34 291.766 104.95 291.766 110.77C291.766 115.33 295.036 118.36 298.906 118.36C302.416 118.36 304.096 115.87 305.026 114.55L304.846 114.43ZM312.07 98.83C312.07 97.6 311.05 96.58 309.79 96.58C308.56 96.58 307.54 97.6 307.54 98.83C307.54 100.06 308.56 101.08 309.79 101.08C311.05 101.08 312.07 100.06 312.07 98.83ZM313.9 118V117.88C312.28 117.19 311.98 116.23 311.98 113.92V102.34H311.86C310.18 102.88 307.69 103.54 305.53 103.69V103.81C307.48 104.59 307.78 105.25 307.78 107.89V113.92C307.78 116.23 307.48 117.19 305.86 117.88V118H313.9ZM323.575 115.81C323.125 116.05 322.555 116.2 322.075 116.2C320.815 116.2 319.315 115.21 319.315 113.5C319.315 110.98 321.115 110.29 322.765 110.29C323.035 110.29 323.305 110.32 323.575 110.38V115.81ZM330.265 116.8C328.675 116.62 327.775 116.32 327.775 113.95V107.71C327.775 104.02 325.825 102.34 322.075 102.34C318.775 102.34 315.565 104.02 315.565 106.18C315.565 107.26 316.525 108.13 317.575 108.13C318.685 108.13 319.615 107.32 319.615 106.12C319.615 105.16 318.865 104.32 317.635 104.08C318.115 103.78 318.955 103.42 319.795 103.42C322.075 103.42 323.575 105.13 323.575 107.56V109.3C317.725 109.93 315.085 112.3 315.085 114.76C315.085 116.92 316.795 118.36 318.985 118.36C320.905 118.36 322.585 117.16 323.605 116.26C323.785 117.64 324.835 118.3 326.125 118.3C327.505 118.3 329.275 117.52 330.265 116.92V116.8Z" fill="black"/>
<path d="M42.416 137.128C42.4907 137.128 42.544 137.155 42.576 137.208C42.608 137.251 42.608 137.304 42.576 137.368L38.528 148.76C38.4747 148.92 38.3573 149 38.176 149H37.088C36.8747 149 36.7467 148.925 36.704 148.776L32.736 137.368C32.7147 137.304 32.72 137.251 32.752 137.208C32.784 137.155 32.8373 137.128 32.912 137.128H34.016C34.1547 137.128 34.2453 137.192 34.288 137.32L37.616 147.016C37.7013 147.219 37.7813 147.213 37.856 147L41.232 137.304C41.264 137.187 41.344 137.128 41.472 137.128H42.416ZM44.3624 145.288C44.3624 145.811 44.485 146.291 44.7304 146.728C44.9864 147.155 45.3224 147.496 45.7384 147.752C46.165 148.008 46.6397 148.136 47.1624 148.136C47.6957 148.136 48.1704 148.029 48.5864 147.816C49.0024 147.592 49.3597 147.256 49.6584 146.808C49.701 146.765 49.733 146.744 49.7544 146.744C49.7864 146.733 49.829 146.739 49.8824 146.76L50.5544 147.096C50.6504 147.149 50.661 147.224 50.5864 147.32C50.2984 147.747 49.9784 148.099 49.6264 148.376C49.285 148.643 48.901 148.84 48.4744 148.968C48.0477 149.096 47.5677 149.16 47.0344 149.16C46.245 149.16 45.5464 148.979 44.9384 148.616C44.3304 148.253 43.8504 147.747 43.4984 147.096C43.1464 146.445 42.9704 145.693 42.9704 144.84C42.9704 143.912 43.1464 143.117 43.4984 142.456C43.861 141.784 44.3464 141.267 44.9544 140.904C45.573 140.541 46.261 140.36 47.0184 140.36C47.797 140.36 48.4744 140.531 49.0504 140.872C49.6264 141.213 50.0744 141.709 50.3944 142.36C50.7144 143.011 50.8744 143.795 50.8744 144.712C50.8744 144.787 50.8637 144.861 50.8424 144.936C50.8317 145.011 50.7624 145.048 50.6344 145.048H44.5064C44.4637 145.048 44.4264 145.075 44.3944 145.128C44.373 145.171 44.3624 145.224 44.3624 145.288ZM49.2584 144.168C49.3757 144.168 49.4504 144.157 49.4824 144.136C49.5144 144.104 49.5304 144.04 49.5304 143.944C49.5304 143.485 49.429 143.059 49.2264 142.664C49.0344 142.259 48.7517 141.933 48.3784 141.688C48.0157 141.443 47.573 141.32 47.0504 141.32C46.4744 141.32 45.989 141.459 45.5944 141.736C45.1997 142.003 44.901 142.355 44.6984 142.792C44.4957 143.229 44.3944 143.688 44.3944 144.168H49.2584ZM52.9873 149C52.9126 149 52.8539 148.984 52.8113 148.952C52.7793 148.909 52.7633 148.856 52.7633 148.792V140.728C52.7633 140.589 52.8219 140.52 52.9393 140.52H53.8673C53.9846 140.52 54.0433 140.579 54.0433 140.696V141.736C54.0433 141.8 54.0593 141.837 54.0913 141.848C54.1233 141.859 54.1659 141.837 54.2193 141.784C54.4966 141.453 54.7686 141.187 55.0353 140.984C55.3126 140.771 55.5899 140.616 55.8673 140.52C56.1446 140.413 56.4219 140.36 56.6993 140.36C57.0726 140.36 57.2593 140.429 57.2593 140.568V141.528C57.2593 141.635 57.2113 141.677 57.1153 141.656C57.0193 141.645 56.9073 141.635 56.7793 141.624C56.6619 141.613 56.5339 141.608 56.3953 141.608C56.1606 141.608 55.9099 141.661 55.6432 141.768C55.3766 141.864 55.1259 142.003 54.8913 142.184C54.6673 142.365 54.4806 142.568 54.3313 142.792C54.1819 143.016 54.1073 143.24 54.1073 143.464V148.76C54.1073 148.92 54.0273 149 53.8673 149H52.9873ZM65.8621 149.16C65.0621 149.16 64.3528 148.979 63.7341 148.616C63.1261 148.243 62.6515 147.731 62.3101 147.08C61.9795 146.419 61.8141 145.661 61.8141 144.808C61.8141 143.923 61.9848 143.149 62.3261 142.488C62.6781 141.816 63.1581 141.293 63.7661 140.92C64.3741 140.547 65.0781 140.36 65.8781 140.36C66.6888 140.36 67.3928 140.552 67.9901 140.936C68.5981 141.309 69.0675 141.832 69.3981 142.504C69.7395 143.165 69.9101 143.928 69.9101 144.792C69.9101 145.645 69.7395 146.403 69.3981 147.064C69.0568 147.715 68.5821 148.227 67.9741 148.6C67.3768 148.973 66.6728 149.16 65.8621 149.16ZM65.8941 148.152C66.4488 148.152 66.9235 148.019 67.3181 147.752C67.7128 147.475 68.0115 147.085 68.2141 146.584C68.4275 146.072 68.5341 145.464 68.5341 144.76C68.5341 144.056 68.4275 143.453 68.2141 142.952C68.0008 142.44 67.6968 142.045 67.3021 141.768C66.9075 141.491 66.4328 141.352 65.8781 141.352C65.3341 141.352 64.8595 141.491 64.4541 141.768C64.0488 142.045 63.7341 142.44 63.5101 142.952C63.2968 143.453 63.1901 144.056 63.1901 144.76C63.1901 145.453 63.2968 146.056 63.5101 146.568C63.7341 147.08 64.0488 147.475 64.4541 147.752C64.8595 148.019 65.3395 148.152 65.8941 148.152ZM76.4141 140.52C76.5635 140.52 76.6381 140.6 76.6381 140.76V141.432C76.6381 141.517 76.6541 141.565 76.6861 141.576C76.7288 141.576 76.7821 141.549 76.8461 141.496C76.9635 141.368 77.1235 141.219 77.3261 141.048C77.5288 140.867 77.7901 140.707 78.1101 140.568C78.4408 140.429 78.8568 140.36 79.3581 140.36C80.0088 140.36 80.5955 140.52 81.1181 140.84C81.6515 141.149 82.0728 141.619 82.3821 142.248C82.7021 142.877 82.8621 143.672 82.8621 144.632C82.8621 145.592 82.7075 146.408 82.3981 147.08C82.0888 147.752 81.6568 148.269 81.1021 148.632C80.5581 148.984 79.9181 149.16 79.1821 149.16C78.6915 149.16 78.2541 149.085 77.8701 148.936C77.4968 148.776 77.1768 148.584 76.9101 148.36C76.8141 148.275 76.7448 148.243 76.7021 148.264C76.6701 148.275 76.6541 148.339 76.6541 148.456V151.432C76.6541 151.571 76.5955 151.64 76.4781 151.64H75.4861C75.3688 151.64 75.3101 151.571 75.3101 151.432V140.776C75.3101 140.68 75.3261 140.616 75.3581 140.584C75.4008 140.541 75.4701 140.52 75.5661 140.52H76.4141ZM76.6541 147.128C76.9848 147.448 77.3208 147.704 77.6621 147.896C78.0141 148.088 78.4035 148.184 78.8301 148.184C79.3421 148.184 79.7955 148.051 80.1901 147.784C80.5955 147.517 80.9101 147.123 81.1341 146.6C81.3688 146.077 81.4861 145.427 81.4861 144.648C81.4861 143.869 81.3688 143.235 81.1341 142.744C80.8995 142.253 80.5848 141.896 80.1901 141.672C79.8061 141.448 79.3795 141.336 78.9101 141.336C78.4728 141.336 78.0835 141.432 77.7421 141.624C77.4008 141.816 77.1341 142.056 76.9421 142.344C76.7501 142.621 76.6541 142.899 76.6541 143.176V147.128ZM85.753 145.288C85.753 145.811 85.8757 146.291 86.121 146.728C86.377 147.155 86.713 147.496 87.129 147.752C87.5557 148.008 88.0303 148.136 88.553 148.136C89.0863 148.136 89.561 148.029 89.977 147.816C90.393 147.592 90.7503 147.256 91.049 146.808C91.0917 146.765 91.1237 146.744 91.145 146.744C91.177 146.733 91.2197 146.739 91.273 146.76L91.945 147.096C92.041 147.149 92.0517 147.224 91.977 147.32C91.689 147.747 91.369 148.099 91.017 148.376C90.6757 148.643 90.2917 148.84 89.865 148.968C89.4383 149.096 88.9583 149.16 88.425 149.16C87.6357 149.16 86.937 148.979 86.329 148.616C85.721 148.253 85.241 147.747 84.889 147.096C84.537 146.445 84.361 145.693 84.361 144.84C84.361 143.912 84.537 143.117 84.889 142.456C85.2517 141.784 85.737 141.267 86.345 140.904C86.9637 140.541 87.6517 140.36 88.409 140.36C89.1877 140.36 89.865 140.531 90.441 140.872C91.017 141.213 91.465 141.709 91.785 142.36C92.105 143.011 92.265 143.795 92.265 144.712C92.265 144.787 92.2543 144.861 92.233 144.936C92.2223 145.011 92.153 145.048 92.025 145.048H85.897C85.8543 145.048 85.817 145.075 85.785 145.128C85.7637 145.171 85.753 145.224 85.753 145.288ZM90.649 144.168C90.7663 144.168 90.841 144.157 90.873 144.136C90.905 144.104 90.921 144.04 90.921 143.944C90.921 143.485 90.8197 143.059 90.617 142.664C90.425 142.259 90.1423 141.933 89.769 141.688C89.4063 141.443 88.9637 141.32 88.441 141.32C87.865 141.32 87.3797 141.459 86.985 141.736C86.5903 142.003 86.2917 142.355 86.089 142.792C85.8863 143.229 85.785 143.688 85.785 144.168H90.649ZM100.186 149C100.111 149 100.053 148.984 100.01 148.952C99.9779 148.909 99.9619 148.851 99.9619 148.776V148.104C99.9619 148.019 99.9405 147.971 99.8979 147.96C99.8659 147.949 99.8179 147.976 99.7539 148.04C99.6365 148.147 99.4659 148.291 99.2419 148.472C99.0285 148.653 98.7565 148.813 98.4259 148.952C98.0952 149.091 97.7005 149.16 97.2419 149.16C96.5699 149.16 95.9672 149 95.4339 148.68C94.9005 148.36 94.4739 147.885 94.1539 147.256C93.8445 146.616 93.6899 145.827 93.6899 144.888C93.6899 143.981 93.8445 143.192 94.1539 142.52C94.4739 141.837 94.9165 141.309 95.4819 140.936C96.0579 140.552 96.7085 140.36 97.4339 140.36C97.9565 140.36 98.3939 140.445 98.7459 140.616C99.0979 140.787 99.4072 140.984 99.6739 141.208C99.7699 141.283 99.8339 141.315 99.8659 141.304C99.9085 141.283 99.9299 141.213 99.9299 141.096V137.336C99.9299 137.197 99.9885 137.128 100.106 137.128H101.082C101.199 137.128 101.258 137.197 101.258 137.336V148.744C101.258 148.84 101.242 148.909 101.21 148.952C101.178 148.984 101.109 149 101.002 149H100.186ZM99.9139 142.392C99.5832 142.061 99.2472 141.805 98.9059 141.624C98.5645 141.443 98.1805 141.352 97.7539 141.352C97.2419 141.352 96.7779 141.485 96.3619 141.752C95.9565 142.008 95.6365 142.397 95.4019 142.92C95.1779 143.443 95.0659 144.083 95.0659 144.84C95.0659 145.619 95.1832 146.259 95.4179 146.76C95.6525 147.251 95.9672 147.613 96.3619 147.848C96.7565 148.072 97.1885 148.184 97.6579 148.184C98.0952 148.184 98.4792 148.083 98.8099 147.88C99.1512 147.677 99.4179 147.427 99.6099 147.128C99.8125 146.829 99.9139 146.536 99.9139 146.248V142.392ZM105.076 148.728C105.076 148.835 105.055 148.909 105.012 148.952C104.98 148.984 104.905 149 104.788 149H103.972C103.876 149 103.812 148.984 103.78 148.952C103.748 148.92 103.732 148.861 103.732 148.776V140.744C103.732 140.595 103.796 140.52 103.924 140.52H104.9C105.017 140.52 105.076 140.589 105.076 140.728V148.728ZM105.14 138.696C105.14 138.899 105.044 139 104.852 139H103.924C103.828 139 103.764 138.979 103.732 138.936C103.7 138.883 103.684 138.813 103.684 138.728V137.384C103.684 137.213 103.759 137.128 103.908 137.128H104.916C105.065 137.128 105.14 137.208 105.14 137.368V138.696ZM113.592 149C113.517 149 113.459 148.984 113.416 148.952C113.384 148.909 113.368 148.851 113.368 148.776V148.104C113.368 148.019 113.347 147.971 113.304 147.96C113.272 147.949 113.224 147.976 113.16 148.04C113.043 148.147 112.872 148.291 112.648 148.472C112.435 148.653 112.163 148.813 111.832 148.952C111.501 149.091 111.107 149.16 110.648 149.16C109.976 149.16 109.373 149 108.84 148.68C108.307 148.36 107.88 147.885 107.56 147.256C107.251 146.616 107.096 145.827 107.096 144.888C107.096 143.981 107.251 143.192 107.56 142.52C107.88 141.837 108.323 141.309 108.888 140.936C109.464 140.552 110.115 140.36 110.84 140.36C111.363 140.36 111.8 140.445 112.152 140.616C112.504 140.787 112.813 140.984 113.08 141.208C113.176 141.283 113.24 141.315 113.272 141.304C113.315 141.283 113.336 141.213 113.336 141.096V137.336C113.336 137.197 113.395 137.128 113.512 137.128H114.488C114.605 137.128 114.664 137.197 114.664 137.336V148.744C114.664 148.84 114.648 148.909 114.616 148.952C114.584 148.984 114.515 149 114.408 149H113.592ZM113.32 142.392C112.989 142.061 112.653 141.805 112.312 141.624C111.971 141.443 111.587 141.352 111.16 141.352C110.648 141.352 110.184 141.485 109.768 141.752C109.363 142.008 109.043 142.397 108.808 142.92C108.584 143.443 108.472 144.083 108.472 144.84C108.472 145.619 108.589 146.259 108.824 146.76C109.059 147.251 109.373 147.613 109.768 147.848C110.163 148.072 110.595 148.184 111.064 148.184C111.501 148.184 111.885 148.083 112.216 147.88C112.557 147.677 112.824 147.427 113.016 147.128C113.219 146.829 113.32 146.536 113.32 146.248V142.392ZM120.69 149.16C119.89 149.16 119.181 148.979 118.562 148.616C117.954 148.243 117.48 147.731 117.138 147.08C116.808 146.419 116.642 145.661 116.642 144.808C116.642 143.923 116.813 143.149 117.154 142.488C117.506 141.816 117.986 141.293 118.594 140.92C119.202 140.547 119.906 140.36 120.706 140.36C121.517 140.36 122.221 140.552 122.818 140.936C123.426 141.309 123.896 141.832 124.226 142.504C124.568 143.165 124.738 143.928 124.738 144.792C124.738 145.645 124.568 146.403 124.226 147.064C123.885 147.715 123.41 148.227 122.802 148.6C122.205 148.973 121.501 149.16 120.69 149.16ZM120.722 148.152C121.277 148.152 121.752 148.019 122.146 147.752C122.541 147.475 122.84 147.085 123.042 146.584C123.256 146.072 123.362 145.464 123.362 144.76C123.362 144.056 123.256 143.453 123.042 142.952C122.829 142.44 122.525 142.045 122.13 141.768C121.736 141.491 121.261 141.352 120.706 141.352C120.162 141.352 119.688 141.491 119.282 141.768C118.877 142.045 118.562 142.44 118.338 142.952C118.125 143.453 118.018 144.056 118.018 144.76C118.018 145.453 118.125 146.056 118.338 146.568C118.562 147.08 118.877 147.475 119.282 147.752C119.688 148.019 120.168 148.152 120.722 148.152ZM125.879 151.288C125.826 151.288 125.788 151.267 125.767 151.224C125.746 151.181 125.746 151.123 125.767 151.048L126.487 149.256C126.562 149.085 126.519 149 126.359 149H126.151C126.012 149 125.943 148.936 125.943 148.808V147.384C125.943 147.267 125.991 147.208 126.087 147.208H127.431C127.538 147.208 127.591 147.261 127.591 147.368V148.68C127.591 148.744 127.575 148.808 127.543 148.872L126.375 151.112C126.343 151.165 126.295 151.208 126.231 151.24C126.178 151.272 126.119 151.288 126.055 151.288H125.879ZM142.545 149C142.471 149 142.412 148.984 142.369 148.952C142.337 148.909 142.321 148.851 142.321 148.776V148.104C142.321 148.019 142.3 147.971 142.257 147.96C142.225 147.949 142.177 147.976 142.113 148.04C141.996 148.147 141.825 148.291 141.601 148.472C141.388 148.653 141.116 148.813 140.785 148.952C140.455 149.091 140.06 149.16 139.601 149.16C138.929 149.16 138.327 149 137.793 148.68C137.26 148.36 136.833 147.885 136.513 147.256C136.204 146.616 136.049 145.827 136.049 144.888C136.049 143.981 136.204 143.192 136.513 142.52C136.833 141.837 137.276 141.309 137.841 140.936C138.417 140.552 139.068 140.36 139.793 140.36C140.316 140.36 140.753 140.445 141.105 140.616C141.457 140.787 141.767 140.984 142.033 141.208C142.129 141.283 142.193 141.315 142.225 141.304C142.268 141.283 142.289 141.213 142.289 141.096V137.336C142.289 137.197 142.348 137.128 142.465 137.128H143.441C143.559 137.128 143.617 137.197 143.617 137.336V148.744C143.617 148.84 143.601 148.909 143.569 148.952C143.537 148.984 143.468 149 143.361 149H142.545ZM142.273 142.392C141.943 142.061 141.607 141.805 141.265 141.624C140.924 141.443 140.54 141.352 140.113 141.352C139.601 141.352 139.137 141.485 138.721 141.752C138.316 142.008 137.996 142.397 137.761 142.92C137.537 143.443 137.425 144.083 137.425 144.84C137.425 145.619 137.543 146.259 137.777 146.76C138.012 147.251 138.327 147.613 138.721 147.848C139.116 148.072 139.548 148.184 140.017 148.184C140.455 148.184 140.839 148.083 141.169 147.88C141.511 147.677 141.777 147.427 141.969 147.128C142.172 146.829 142.273 146.536 142.273 146.248V142.392ZM147.435 148.728C147.435 148.835 147.414 148.909 147.371 148.952C147.339 148.984 147.265 149 147.147 149H146.331C146.235 149 146.171 148.984 146.139 148.952C146.107 148.92 146.091 148.861 146.091 148.776V140.744C146.091 140.595 146.155 140.52 146.283 140.52H147.259C147.377 140.52 147.435 140.589 147.435 140.728V148.728ZM147.499 138.696C147.499 138.899 147.403 139 147.211 139H146.283C146.187 139 146.123 138.979 146.091 138.936C146.059 138.883 146.043 138.813 146.043 138.728V137.384C146.043 137.213 146.118 137.128 146.267 137.128H147.275C147.425 137.128 147.499 137.208 147.499 137.368V138.696ZM156.816 140.52C156.89 140.52 156.944 140.547 156.976 140.6C157.008 140.643 157.008 140.696 156.976 140.76L153.728 148.76C153.674 148.92 153.552 149 153.36 149H152.784C152.581 149 152.448 148.925 152.384 148.776L149.152 140.76C149.13 140.696 149.136 140.643 149.168 140.6C149.2 140.547 149.253 140.52 149.328 140.52H150.32C150.384 140.52 150.437 140.536 150.48 140.568C150.522 140.589 150.554 140.632 150.576 140.696L153.088 146.984C153.162 147.187 153.248 147.181 153.344 146.968L155.84 140.696C155.861 140.632 155.888 140.589 155.92 140.568C155.962 140.536 156.016 140.52 156.08 140.52H156.816ZM160.014 148.728C160.014 148.835 159.992 148.909 159.95 148.952C159.918 148.984 159.843 149 159.726 149H158.91C158.814 149 158.75 148.984 158.718 148.952C158.686 148.92 158.67 148.861 158.67 148.776V140.744C158.67 140.595 158.734 140.52 158.862 140.52H159.838C159.955 140.52 160.014 140.589 160.014 140.728V148.728ZM160.078 138.696C160.078 138.899 159.982 139 159.789 139H158.862C158.766 139 158.702 138.979 158.67 138.936C158.638 138.883 158.622 138.813 158.622 138.728V137.384C158.622 137.213 158.696 137.128 158.846 137.128H159.854C160.003 137.128 160.078 137.208 160.078 137.368V138.696ZM168.53 149C168.455 149 168.396 148.984 168.354 148.952C168.322 148.909 168.306 148.851 168.306 148.776V148.104C168.306 148.019 168.284 147.971 168.242 147.96C168.21 147.949 168.162 147.976 168.098 148.04C167.98 148.147 167.81 148.291 167.586 148.472C167.372 148.653 167.1 148.813 166.77 148.952C166.439 149.091 166.044 149.16 165.586 149.16C164.914 149.16 164.311 149 163.778 148.68C163.244 148.36 162.818 147.885 162.498 147.256C162.188 146.616 162.034 145.827 162.034 144.888C162.034 143.981 162.188 143.192 162.498 142.52C162.818 141.837 163.26 141.309 163.826 140.936C164.402 140.552 165.052 140.36 165.778 140.36C166.3 140.36 166.738 140.445 167.09 140.616C167.442 140.787 167.751 140.984 168.018 141.208C168.114 141.283 168.178 141.315 168.21 141.304C168.252 141.283 168.274 141.213 168.274 141.096V137.336C168.274 137.197 168.332 137.128 168.45 137.128H169.426C169.543 137.128 169.602 137.197 169.602 137.336V148.744C169.602 148.84 169.586 148.909 169.554 148.952C169.522 148.984 169.452 149 169.346 149H168.53ZM168.258 142.392C167.927 142.061 167.591 141.805 167.25 141.624C166.908 141.443 166.524 141.352 166.098 141.352C165.586 141.352 165.122 141.485 164.706 141.752C164.3 142.008 163.98 142.397 163.746 142.92C163.522 143.443 163.41 144.083 163.41 144.84C163.41 145.619 163.527 146.259 163.762 146.76C163.996 147.251 164.311 147.613 164.706 147.848C165.1 148.072 165.532 148.184 166.002 148.184C166.439 148.184 166.823 148.083 167.154 147.88C167.495 147.677 167.762 147.427 167.954 147.128C168.156 146.829 168.258 146.536 168.258 146.248V142.392ZM173.42 148.728C173.42 148.835 173.398 148.909 173.356 148.952C173.324 148.984 173.249 149 173.132 149H172.316C172.22 149 172.156 148.984 172.124 148.952C172.092 148.92 172.076 148.861 172.076 148.776V140.744C172.076 140.595 172.14 140.52 172.268 140.52H173.244C173.361 140.52 173.42 140.589 173.42 140.728V148.728ZM173.484 138.696C173.484 138.899 173.388 139 173.196 139H172.268C172.172 139 172.108 138.979 172.076 138.936C172.044 138.883 172.028 138.813 172.028 138.728V137.384C172.028 137.213 172.102 137.128 172.252 137.128H173.26C173.409 137.128 173.484 137.208 173.484 137.368V138.696ZM176.128 149C176.053 149 175.995 148.984 175.952 148.952C175.92 148.909 175.904 148.856 175.904 148.792V140.728C175.904 140.589 175.963 140.52 176.08 140.52H177.008C177.125 140.52 177.184 140.579 177.184 140.696V141.736C177.184 141.8 177.2 141.837 177.232 141.848C177.264 141.859 177.307 141.837 177.36 141.784C177.637 141.453 177.909 141.187 178.176 140.984C178.453 140.771 178.731 140.616 179.008 140.52C179.285 140.413 179.563 140.36 179.84 140.36C180.213 140.36 180.4 140.429 180.4 140.568V141.528C180.4 141.635 180.352 141.677 180.256 141.656C180.16 141.645 180.048 141.635 179.92 141.624C179.803 141.613 179.675 141.608 179.536 141.608C179.301 141.608 179.051 141.661 178.784 141.768C178.517 141.864 178.267 142.003 178.032 142.184C177.808 142.365 177.621 142.568 177.472 142.792C177.323 143.016 177.248 143.24 177.248 143.464V148.76C177.248 148.92 177.168 149 177.008 149H176.128ZM188.971 140.36C189.525 140.36 190.011 140.451 190.427 140.632C190.853 140.803 191.216 141.043 191.515 141.352C191.824 141.651 192.08 141.981 192.283 142.344C192.347 142.472 192.32 142.552 192.203 142.584L191.323 142.792C191.248 142.824 191.179 142.792 191.115 142.696C190.901 142.387 190.688 142.136 190.475 141.944C190.272 141.752 190.053 141.608 189.819 141.512C189.584 141.405 189.328 141.352 189.051 141.352C188.507 141.352 188.027 141.491 187.611 141.768C187.205 142.035 186.891 142.424 186.667 142.936C186.443 143.448 186.331 144.056 186.331 144.76C186.331 145.475 186.443 146.088 186.667 146.6C186.901 147.112 187.221 147.501 187.627 147.768C188.043 148.035 188.528 148.168 189.083 148.168C189.595 148.168 190.037 148.04 190.411 147.784C190.784 147.528 191.125 147.155 191.435 146.664C191.467 146.611 191.493 146.584 191.515 146.584C191.547 146.573 191.589 146.579 191.643 146.6L192.331 146.856C192.405 146.888 192.427 146.957 192.395 147.064C192.235 147.341 192.048 147.608 191.835 147.864C191.621 148.12 191.371 148.344 191.083 148.536C190.805 148.728 190.491 148.883 190.139 149C189.787 149.107 189.397 149.16 188.971 149.16C188.181 149.16 187.483 148.979 186.875 148.616C186.277 148.243 185.808 147.731 185.467 147.08C185.125 146.419 184.955 145.656 184.955 144.792C184.955 143.917 185.125 143.149 185.467 142.488C185.819 141.827 186.293 141.309 186.891 140.936C187.499 140.552 188.192 140.36 188.971 140.36ZM197.565 149.16C196.765 149.16 196.056 148.979 195.437 148.616C194.829 148.243 194.355 147.731 194.013 147.08C193.683 146.419 193.517 145.661 193.517 144.808C193.517 143.923 193.688 143.149 194.029 142.488C194.381 141.816 194.861 141.293 195.469 140.92C196.077 140.547 196.781 140.36 197.581 140.36C198.392 140.36 199.096 140.552 199.693 140.936C200.301 141.309 200.771 141.832 201.101 142.504C201.443 143.165 201.613 143.928 201.613 144.792C201.613 145.645 201.443 146.403 201.101 147.064C200.76 147.715 200.285 148.227 199.677 148.6C199.08 148.973 198.376 149.16 197.565 149.16ZM197.597 148.152C198.152 148.152 198.627 148.019 199.021 147.752C199.416 147.475 199.715 147.085 199.917 146.584C200.131 146.072 200.237 145.464 200.237 144.76C200.237 144.056 200.131 143.453 199.917 142.952C199.704 142.44 199.4 142.045 199.005 141.768C198.611 141.491 198.136 141.352 197.581 141.352C197.037 141.352 196.563 141.491 196.157 141.768C195.752 142.045 195.437 142.44 195.213 142.952C195 143.453 194.893 144.056 194.893 144.76C194.893 145.453 195 146.056 195.213 146.568C195.437 147.08 195.752 147.475 196.157 147.752C196.563 148.019 197.043 148.152 197.597 148.152ZM203.815 149C203.666 149 203.591 148.931 203.591 148.792V140.728C203.591 140.589 203.65 140.52 203.767 140.52H204.727C204.834 140.52 204.887 140.579 204.887 140.696V141.624C204.887 141.677 204.898 141.709 204.919 141.72C204.951 141.731 204.994 141.715 205.047 141.672C205.389 141.395 205.703 141.16 205.991 140.968C206.29 140.765 206.589 140.616 206.887 140.52C207.197 140.413 207.527 140.36 207.879 140.36C208.509 140.36 209.01 140.504 209.383 140.792C209.767 141.08 210.023 141.405 210.151 141.768C210.173 141.811 210.205 141.827 210.247 141.816C210.29 141.805 210.333 141.779 210.375 141.736C210.717 141.448 211.037 141.203 211.335 141C211.645 140.797 211.954 140.643 212.263 140.536C212.583 140.419 212.919 140.36 213.271 140.36C214.05 140.36 214.653 140.584 215.079 141.032C215.506 141.469 215.719 142.061 215.719 142.808V148.744C215.719 148.915 215.639 149 215.479 149H214.583C214.509 149 214.455 148.984 214.423 148.952C214.391 148.909 214.375 148.856 214.375 148.792V143.08C214.375 142.557 214.247 142.152 213.991 141.864C213.746 141.565 213.357 141.416 212.823 141.416C212.514 141.416 212.215 141.475 211.927 141.592C211.65 141.709 211.394 141.853 211.159 142.024C210.935 142.195 210.733 142.355 210.551 142.504C210.466 142.579 210.407 142.653 210.375 142.728C210.343 142.792 210.327 142.877 210.327 142.984V148.744C210.327 148.915 210.247 149 210.087 149H209.191C209.127 149 209.074 148.984 209.031 148.952C208.999 148.909 208.983 148.856 208.983 148.792V143.08C208.983 142.557 208.861 142.152 208.615 141.864C208.37 141.565 207.981 141.416 207.447 141.416C206.999 141.416 206.589 141.523 206.215 141.736C205.842 141.949 205.415 142.275 204.935 142.712V148.76C204.935 148.92 204.855 149 204.695 149H203.815ZM225.065 149.16C224.265 149.16 223.556 148.979 222.937 148.616C222.329 148.243 221.855 147.731 221.513 147.08C221.183 146.419 221.017 145.661 221.017 144.808C221.017 143.923 221.188 143.149 221.529 142.488C221.881 141.816 222.361 141.293 222.969 140.92C223.577 140.547 224.281 140.36 225.081 140.36C225.892 140.36 226.596 140.552 227.193 140.936C227.801 141.309 228.271 141.832 228.601 142.504C228.943 143.165 229.113 143.928 229.113 144.792C229.113 145.645 228.943 146.403 228.601 147.064C228.26 147.715 227.785 148.227 227.177 148.6C226.58 148.973 225.876 149.16 225.065 149.16ZM225.097 148.152C225.652 148.152 226.127 148.019 226.521 147.752C226.916 147.475 227.215 147.085 227.417 146.584C227.631 146.072 227.737 145.464 227.737 144.76C227.737 144.056 227.631 143.453 227.417 142.952C227.204 142.44 226.9 142.045 226.505 141.768C226.111 141.491 225.636 141.352 225.081 141.352C224.537 141.352 224.063 141.491 223.657 141.768C223.252 142.045 222.937 142.44 222.713 142.952C222.5 143.453 222.393 144.056 222.393 144.76C222.393 145.453 222.5 146.056 222.713 146.568C222.937 147.08 223.252 147.475 223.657 147.752C224.063 148.019 224.543 148.152 225.097 148.152ZM236.179 142.392C235.966 142.072 235.667 141.811 235.283 141.608C234.899 141.405 234.441 141.304 233.907 141.304C233.331 141.304 232.851 141.427 232.467 141.672C232.094 141.917 231.907 142.248 231.907 142.664C231.907 142.888 231.993 143.101 232.163 143.304C232.334 143.496 232.681 143.677 233.203 143.848L235.235 144.456C235.971 144.659 236.499 144.952 236.819 145.336C237.15 145.72 237.315 146.163 237.315 146.664C237.315 147.165 237.166 147.603 236.867 147.976C236.569 148.349 236.158 148.643 235.635 148.856C235.113 149.059 234.521 149.16 233.859 149.16C233.017 149.16 232.281 148.995 231.651 148.664C231.022 148.323 230.574 147.901 230.307 147.4C230.275 147.347 230.259 147.299 230.259 147.256C230.259 147.213 230.286 147.176 230.339 147.144L230.963 146.792C231.017 146.76 231.065 146.749 231.107 146.76C231.15 146.76 231.182 146.776 231.203 146.808C231.385 147.085 231.593 147.325 231.827 147.528C232.073 147.731 232.361 147.891 232.691 148.008C233.033 148.125 233.427 148.184 233.875 148.184C234.281 148.173 234.649 148.115 234.979 148.008C235.31 147.901 235.571 147.747 235.763 147.544C235.955 147.331 236.051 147.085 236.051 146.808C236.051 146.52 235.934 146.275 235.699 146.072C235.465 145.859 235.059 145.672 234.483 145.512L232.835 145.048C232.035 144.835 231.47 144.547 231.139 144.184C230.819 143.821 230.654 143.395 230.643 142.904C230.643 142.392 230.782 141.949 231.059 141.576C231.337 141.192 231.721 140.893 232.211 140.68C232.713 140.467 233.283 140.36 233.923 140.36C234.638 140.36 235.273 140.499 235.827 140.776C236.393 141.043 236.819 141.4 237.107 141.848C237.139 141.891 237.155 141.933 237.155 141.976C237.155 142.008 237.134 142.04 237.091 142.072L236.419 142.44C236.377 142.461 236.334 142.472 236.291 142.472C236.259 142.461 236.222 142.435 236.179 142.392ZM247.581 147.976C247.186 148.36 246.754 148.653 246.285 148.856C245.826 149.059 245.309 149.16 244.733 149.16C243.901 149.16 243.245 148.947 242.765 148.52C242.295 148.093 242.061 147.533 242.061 146.84C242.061 146.275 242.221 145.789 242.541 145.384C242.861 144.968 243.335 144.643 243.965 144.408C244.594 144.163 245.367 144.013 246.285 143.96L247.533 143.864C247.597 143.853 247.655 143.832 247.709 143.8C247.762 143.768 247.789 143.709 247.789 143.624V143.192C247.789 142.616 247.607 142.163 247.245 141.832C246.893 141.491 246.413 141.32 245.805 141.32C245.335 141.32 244.909 141.427 244.525 141.64C244.151 141.853 243.815 142.173 243.517 142.6C243.474 142.653 243.437 142.691 243.405 142.712C243.383 142.723 243.341 142.717 243.277 142.696L242.413 142.408C242.381 142.387 242.354 142.36 242.333 142.328C242.322 142.296 242.338 142.237 242.381 142.152C242.701 141.597 243.149 141.16 243.725 140.84C244.311 140.52 245.026 140.36 245.869 140.36C246.583 140.36 247.175 140.472 247.645 140.696C248.125 140.909 248.482 141.224 248.717 141.64C248.962 142.045 249.085 142.531 249.085 143.096V148.76C249.085 148.856 249.069 148.92 249.037 148.952C249.005 148.984 248.951 149 248.877 149H248.061C247.986 149 247.933 148.979 247.901 148.936C247.869 148.883 247.847 148.819 247.837 148.744L247.821 148.008C247.789 147.859 247.709 147.848 247.581 147.976ZM247.789 144.936C247.789 144.755 247.714 144.669 247.565 144.68L246.509 144.776C246.018 144.797 245.581 144.861 245.197 144.968C244.813 145.064 244.487 145.192 244.221 145.352C243.954 145.512 243.751 145.704 243.613 145.928C243.474 146.141 243.405 146.392 243.405 146.68C243.405 147.149 243.565 147.517 243.885 147.784C244.215 148.04 244.658 148.168 245.213 148.168C245.554 148.168 245.879 148.109 246.189 147.992C246.509 147.864 246.786 147.704 247.021 147.512C247.266 147.309 247.453 147.101 247.581 146.888C247.719 146.675 247.789 146.467 247.789 146.264V144.936ZM251.69 149C251.541 149 251.466 148.931 251.466 148.792V140.728C251.466 140.589 251.525 140.52 251.642 140.52H252.602C252.709 140.52 252.762 140.579 252.762 140.696V141.624C252.762 141.677 252.773 141.709 252.794 141.72C252.826 141.731 252.869 141.715 252.922 141.672C253.264 141.395 253.578 141.16 253.866 140.968C254.165 140.765 254.464 140.616 254.762 140.52C255.072 140.413 255.402 140.36 255.754 140.36C256.384 140.36 256.885 140.504 257.258 140.792C257.642 141.08 257.898 141.405 258.026 141.768C258.048 141.811 258.08 141.827 258.122 141.816C258.165 141.805 258.208 141.779 258.25 141.736C258.592 141.448 258.912 141.203 259.21 141C259.52 140.797 259.829 140.643 260.138 140.536C260.458 140.419 260.794 140.36 261.146 140.36C261.925 140.36 262.528 140.584 262.954 141.032C263.381 141.469 263.594 142.061 263.594 142.808V148.744C263.594 148.915 263.514 149 263.354 149H262.458C262.384 149 262.33 148.984 262.298 148.952C262.266 148.909 262.25 148.856 262.25 148.792V143.08C262.25 142.557 262.122 142.152 261.866 141.864C261.621 141.565 261.232 141.416 260.698 141.416C260.389 141.416 260.09 141.475 259.802 141.592C259.525 141.709 259.269 141.853 259.034 142.024C258.81 142.195 258.608 142.355 258.426 142.504C258.341 142.579 258.282 142.653 258.25 142.728C258.218 142.792 258.202 142.877 258.202 142.984V148.744C258.202 148.915 258.122 149 257.962 149H257.066C257.002 149 256.949 148.984 256.906 148.952C256.874 148.909 256.858 148.856 256.858 148.792V143.08C256.858 142.557 256.736 142.152 256.49 141.864C256.245 141.565 255.856 141.416 255.322 141.416C254.874 141.416 254.464 141.523 254.09 141.736C253.717 141.949 253.29 142.275 252.81 142.712V148.76C252.81 148.92 252.73 149 252.57 149H251.69ZM267.31 148.728C267.31 148.835 267.289 148.909 267.246 148.952C267.214 148.984 267.14 149 267.022 149H266.206C266.11 149 266.046 148.984 266.014 148.952C265.982 148.92 265.966 148.861 265.966 148.776V140.744C265.966 140.595 266.03 140.52 266.158 140.52H267.134C267.252 140.52 267.31 140.589 267.31 140.728V148.728ZM267.374 138.696C267.374 138.899 267.278 139 267.086 139H266.158C266.062 139 265.998 138.979 265.966 138.936C265.934 138.883 265.918 138.813 265.918 138.728V137.384C265.918 137.213 265.993 137.128 266.142 137.128H267.15C267.3 137.128 267.374 137.208 267.374 137.368V138.696ZM277.459 140.376C277.565 140.376 277.64 140.397 277.683 140.44C277.736 140.483 277.763 140.547 277.763 140.632V141.192C277.763 141.288 277.736 141.363 277.683 141.416C277.64 141.469 277.56 141.491 277.443 141.48C277.272 141.48 277.123 141.491 276.995 141.512C276.867 141.533 276.739 141.571 276.611 141.624C276.355 141.72 276.248 141.843 276.291 141.992C276.344 142.109 276.403 142.253 276.467 142.424C276.531 142.584 276.562 142.803 276.562 143.08C276.562 143.549 276.44 143.981 276.195 144.376C275.949 144.76 275.565 145.069 275.043 145.304C274.531 145.539 273.88 145.656 273.091 145.656C272.547 145.656 272.12 145.688 271.811 145.752C271.501 145.816 271.283 145.901 271.155 146.008C271.027 146.115 270.963 146.227 270.963 146.344C270.963 146.515 271.075 146.637 271.299 146.712C271.533 146.787 271.907 146.84 272.419 146.872L274.483 146.984C275.421 147.037 276.109 147.261 276.547 147.656C276.984 148.051 277.203 148.568 277.203 149.208C277.203 150.008 276.845 150.637 276.131 151.096C275.427 151.565 274.419 151.8 273.107 151.8C271.752 151.8 270.717 151.603 270.003 151.208C269.299 150.824 268.947 150.269 268.947 149.544C268.947 149.171 269.075 148.835 269.331 148.536C269.597 148.237 269.971 147.971 270.451 147.736C270.568 147.683 270.568 147.624 270.451 147.56C270.216 147.453 270.035 147.325 269.907 147.176C269.779 147.016 269.715 146.829 269.715 146.616C269.715 146.467 269.763 146.317 269.859 146.168C269.955 146.019 270.093 145.88 270.275 145.752C270.467 145.624 270.696 145.512 270.963 145.416C271.027 145.395 271.059 145.368 271.059 145.336C271.059 145.304 271.032 145.267 270.979 145.224C270.509 144.989 270.163 144.696 269.939 144.344C269.715 143.992 269.603 143.571 269.603 143.08C269.603 142.248 269.917 141.592 270.547 141.112C271.176 140.632 272.067 140.392 273.219 140.392C273.773 140.392 274.243 140.456 274.627 140.584C275.021 140.712 275.352 140.888 275.619 141.112C275.683 141.165 275.741 141.192 275.795 141.192C275.848 141.192 275.901 141.165 275.955 141.112C276.083 140.995 276.227 140.883 276.387 140.776C276.547 140.659 276.717 140.563 276.899 140.488C277.091 140.413 277.277 140.376 277.459 140.376ZM273.091 144.808C273.837 144.808 274.392 144.659 274.755 144.36C275.117 144.051 275.299 143.619 275.299 143.064C275.299 142.499 275.117 142.056 274.755 141.736C274.392 141.405 273.837 141.24 273.091 141.24C272.376 141.24 271.821 141.405 271.427 141.736C271.043 142.056 270.851 142.499 270.851 143.064C270.851 143.619 271.043 144.051 271.427 144.36C271.821 144.659 272.376 144.808 273.091 144.808ZM271.683 147.96C271.491 147.949 271.277 148.008 271.043 148.136C270.808 148.253 270.6 148.419 270.419 148.632C270.237 148.845 270.147 149.096 270.147 149.384C270.147 149.715 270.259 149.997 270.483 150.232C270.717 150.477 271.064 150.659 271.523 150.776C271.992 150.904 272.568 150.968 273.251 150.968C274.136 150.968 274.808 150.835 275.267 150.568C275.725 150.312 275.955 149.912 275.955 149.368C275.955 149.016 275.832 148.728 275.587 148.504C275.352 148.28 274.941 148.152 274.355 148.12L271.683 147.96ZM282.69 149.16C281.89 149.16 281.181 148.979 280.562 148.616C279.954 148.243 279.48 147.731 279.138 147.08C278.808 146.419 278.642 145.661 278.642 144.808C278.642 143.923 278.813 143.149 279.154 142.488C279.506 141.816 279.986 141.293 280.594 140.92C281.202 140.547 281.906 140.36 282.706 140.36C283.517 140.36 284.221 140.552 284.818 140.936C285.426 141.309 285.896 141.832 286.226 142.504C286.568 143.165 286.738 143.928 286.738 144.792C286.738 145.645 286.568 146.403 286.226 147.064C285.885 147.715 285.41 148.227 284.802 148.6C284.205 148.973 283.501 149.16 282.69 149.16ZM282.722 148.152C283.277 148.152 283.752 148.019 284.146 147.752C284.541 147.475 284.84 147.085 285.042 146.584C285.256 146.072 285.362 145.464 285.362 144.76C285.362 144.056 285.256 143.453 285.042 142.952C284.829 142.44 284.525 142.045 284.13 141.768C283.736 141.491 283.261 141.352 282.706 141.352C282.162 141.352 281.688 141.491 281.282 141.768C280.877 142.045 280.562 142.44 280.338 142.952C280.125 143.453 280.018 144.056 280.018 144.76C280.018 145.453 280.125 146.056 280.338 146.568C280.562 147.08 280.877 147.475 281.282 147.752C281.688 148.019 282.168 148.152 282.722 148.152ZM293.804 142.392C293.591 142.072 293.292 141.811 292.908 141.608C292.524 141.405 292.066 141.304 291.532 141.304C290.956 141.304 290.476 141.427 290.092 141.672C289.719 141.917 289.532 142.248 289.532 142.664C289.532 142.888 289.618 143.101 289.788 143.304C289.959 143.496 290.306 143.677 290.828 143.848L292.86 144.456C293.596 144.659 294.124 144.952 294.444 145.336C294.775 145.72 294.94 146.163 294.94 146.664C294.94 147.165 294.791 147.603 294.492 147.976C294.194 148.349 293.783 148.643 293.26 148.856C292.738 149.059 292.146 149.16 291.484 149.16C290.642 149.16 289.906 148.995 289.276 148.664C288.647 148.323 288.199 147.901 287.932 147.4C287.9 147.347 287.884 147.299 287.884 147.256C287.884 147.213 287.911 147.176 287.964 147.144L288.588 146.792C288.642 146.76 288.69 146.749 288.732 146.76C288.775 146.76 288.807 146.776 288.828 146.808C289.01 147.085 289.218 147.325 289.452 147.528C289.698 147.731 289.986 147.891 290.316 148.008C290.658 148.125 291.052 148.184 291.5 148.184C291.906 148.173 292.274 148.115 292.604 148.008C292.935 147.901 293.196 147.747 293.388 147.544C293.58 147.331 293.676 147.085 293.676 146.808C293.676 146.52 293.559 146.275 293.324 146.072C293.09 145.859 292.684 145.672 292.108 145.512L290.46 145.048C289.66 144.835 289.095 144.547 288.764 144.184C288.444 143.821 288.279 143.395 288.268 142.904C288.268 142.392 288.407 141.949 288.684 141.576C288.962 141.192 289.346 140.893 289.836 140.68C290.338 140.467 290.908 140.36 291.548 140.36C292.263 140.36 292.898 140.499 293.452 140.776C294.018 141.043 294.444 141.4 294.732 141.848C294.764 141.891 294.78 141.933 294.78 141.976C294.78 142.008 294.759 142.04 294.716 142.072L294.044 142.44C294.002 142.461 293.959 142.472 293.916 142.472C293.884 142.461 293.847 142.435 293.804 142.392ZM296.504 151.288C296.451 151.288 296.413 151.267 296.392 151.224C296.371 151.181 296.371 151.123 296.392 151.048L297.112 149.256C297.187 149.085 297.144 149 296.984 149H296.776C296.637 149 296.568 148.936 296.568 148.808V147.384C296.568 147.267 296.616 147.208 296.712 147.208H298.056C298.163 147.208 298.216 147.261 298.216 147.368V148.68C298.216 148.744 298.2 148.808 298.168 148.872L297 151.112C296.968 151.165 296.92 151.208 296.856 151.24C296.803 151.272 296.744 151.288 296.68 151.288H296.504ZM37.52 160.52C37.5733 160.52 37.6107 160.536 37.632 160.568C37.664 160.6 37.68 160.637 37.68 160.68V161.368C37.68 161.475 37.6267 161.528 37.52 161.528H35.696C35.6107 161.528 35.568 161.571 35.568 161.656V168.776C35.568 168.925 35.504 169 35.376 169H34.4C34.2827 169 34.224 168.931 34.224 168.792V161.64C34.224 161.565 34.1867 161.528 34.112 161.528H32.544C32.4373 161.528 32.384 161.475 32.384 161.368V160.68C32.384 160.637 32.3947 160.6 32.416 160.568C32.448 160.536 32.496 160.52 32.56 160.52H34.08C34.176 160.52 34.224 160.467 34.224 160.36V159.192C34.224 158.52 34.3893 158.008 34.72 157.656C35.0507 157.304 35.552 157.128 36.224 157.128H37.552C37.6907 157.128 37.76 157.192 37.76 157.32V157.944C37.76 157.997 37.744 158.04 37.712 158.072C37.6907 158.093 37.648 158.104 37.584 158.104H36.464C36.1333 158.104 35.8933 158.211 35.744 158.424C35.6053 158.627 35.536 158.904 35.536 159.256V160.376C35.536 160.472 35.584 160.52 35.68 160.52H37.52ZM39.878 165.288C39.878 165.811 40.0007 166.291 40.246 166.728C40.502 167.155 40.838 167.496 41.254 167.752C41.6807 168.008 42.1553 168.136 42.678 168.136C43.2113 168.136 43.686 168.029 44.102 167.816C44.518 167.592 44.8753 167.256 45.174 166.808C45.2167 166.765 45.2487 166.744 45.27 166.744C45.302 166.733 45.3447 166.739 45.398 166.76L46.07 167.096C46.166 167.149 46.1767 167.224 46.102 167.32C45.814 167.747 45.494 168.099 45.142 168.376C44.8007 168.643 44.4167 168.84 43.99 168.968C43.5633 169.096 43.0833 169.16 42.55 169.16C41.7607 169.16 41.062 168.979 40.454 168.616C39.846 168.253 39.366 167.747 39.014 167.096C38.662 166.445 38.486 165.693 38.486 164.84C38.486 163.912 38.662 163.117 39.014 162.456C39.3767 161.784 39.862 161.267 40.47 160.904C41.0887 160.541 41.7767 160.36 42.534 160.36C43.3127 160.36 43.99 160.531 44.566 160.872C45.142 161.213 45.59 161.709 45.91 162.36C46.23 163.011 46.39 163.795 46.39 164.712C46.39 164.787 46.3793 164.861 46.358 164.936C46.3473 165.011 46.278 165.048 46.15 165.048H40.022C39.9793 165.048 39.942 165.075 39.91 165.128C39.8887 165.171 39.878 165.224 39.878 165.288ZM44.774 164.168C44.8913 164.168 44.966 164.157 44.998 164.136C45.03 164.104 45.046 164.04 45.046 163.944C45.046 163.485 44.9447 163.059 44.742 162.664C44.55 162.259 44.2673 161.933 43.894 161.688C43.5313 161.443 43.0887 161.32 42.566 161.32C41.99 161.32 41.5047 161.459 41.11 161.736C40.7153 162.003 40.4167 162.355 40.214 162.792C40.0113 163.229 39.91 163.688 39.91 164.168H44.774ZM51.7989 160.36C52.3535 160.36 52.8389 160.451 53.2549 160.632C53.6815 160.803 54.0442 161.043 54.3429 161.352C54.6522 161.651 54.9082 161.981 55.1109 162.344C55.1749 162.472 55.1482 162.552 55.0309 162.584L54.1509 162.792C54.0762 162.824 54.0069 162.792 53.9429 162.696C53.7295 162.387 53.5162 162.136 53.3029 161.944C53.1002 161.752 52.8815 161.608 52.6469 161.512C52.4122 161.405 52.1562 161.352 51.8789 161.352C51.3349 161.352 50.8549 161.491 50.4389 161.768C50.0335 162.035 49.7189 162.424 49.4949 162.936C49.2709 163.448 49.1589 164.056 49.1589 164.76C49.1589 165.475 49.2709 166.088 49.4949 166.6C49.7295 167.112 50.0495 167.501 50.4549 167.768C50.8709 168.035 51.3562 168.168 51.9109 168.168C52.4229 168.168 52.8655 168.04 53.2389 167.784C53.6122 167.528 53.9535 167.155 54.2629 166.664C54.2949 166.611 54.3215 166.584 54.3429 166.584C54.3749 166.573 54.4175 166.579 54.4709 166.6L55.1589 166.856C55.2335 166.888 55.2549 166.957 55.2229 167.064C55.0629 167.341 54.8762 167.608 54.6629 167.864C54.4495 168.12 54.1989 168.344 53.9109 168.536C53.6335 168.728 53.3189 168.883 52.9669 169C52.6149 169.107 52.2255 169.16 51.7989 169.16C51.0095 169.16 50.3109 168.979 49.7029 168.616C49.1055 168.243 48.6362 167.731 48.2949 167.08C47.9535 166.419 47.7829 165.656 47.7829 164.792C47.7829 163.917 47.9535 163.149 48.2949 162.488C48.6469 161.827 49.1215 161.309 49.7189 160.936C50.3269 160.552 51.0202 160.36 51.7989 160.36ZM57.1748 169C57.0361 169 56.9668 168.931 56.9668 168.792V157.336C56.9668 157.197 57.0254 157.128 57.1428 157.128H58.0868C58.2041 157.128 58.2628 157.192 58.2628 157.32V161.592C58.2628 161.645 58.2734 161.677 58.2948 161.688C58.3161 161.699 58.3534 161.683 58.4068 161.64C58.7801 161.352 59.1214 161.112 59.4308 160.92C59.7508 160.728 60.0601 160.589 60.3588 160.504C60.6681 160.408 61.0041 160.36 61.3668 160.36C62.1988 160.36 62.8334 160.584 63.2708 161.032C63.7081 161.469 63.9268 162.056 63.9268 162.792V168.744C63.9268 168.915 63.8468 169 63.6868 169H62.7908C62.7161 169 62.6628 168.984 62.6308 168.952C62.5988 168.909 62.5828 168.856 62.5828 168.792V163.08C62.5828 162.557 62.4494 162.152 62.1828 161.864C61.9161 161.565 61.4948 161.416 60.9188 161.416C60.6094 161.416 60.3161 161.469 60.0388 161.576C59.7721 161.672 59.5001 161.816 59.2228 162.008C58.9454 162.189 58.6414 162.424 58.3108 162.712V168.76C58.3108 168.92 58.2254 169 58.0548 169H57.1748ZM71.1745 167.976C70.7798 168.36 70.3478 168.653 69.8785 168.856C69.4198 169.059 68.9025 169.16 68.3265 169.16C67.4945 169.16 66.8385 168.947 66.3585 168.52C65.8892 168.093 65.6545 167.533 65.6545 166.84C65.6545 166.275 65.8145 165.789 66.1345 165.384C66.4545 164.968 66.9292 164.643 67.5585 164.408C68.1878 164.163 68.9612 164.013 69.8785 163.96L71.1265 163.864C71.1905 163.853 71.2492 163.832 71.3025 163.8C71.3558 163.768 71.3825 163.709 71.3825 163.624V163.192C71.3825 162.616 71.2012 162.163 70.8385 161.832C70.4865 161.491 70.0065 161.32 69.3985 161.32C68.9292 161.32 68.5025 161.427 68.1185 161.64C67.7452 161.853 67.4092 162.173 67.1105 162.6C67.0678 162.653 67.0305 162.691 66.9985 162.712C66.9772 162.723 66.9345 162.717 66.8705 162.696L66.0065 162.408C65.9745 162.387 65.9478 162.36 65.9265 162.328C65.9158 162.296 65.9318 162.237 65.9745 162.152C66.2945 161.597 66.7425 161.16 67.3185 160.84C67.9052 160.52 68.6198 160.36 69.4625 160.36C70.1772 160.36 70.7692 160.472 71.2385 160.696C71.7185 160.909 72.0758 161.224 72.3105 161.64C72.5558 162.045 72.6785 162.531 72.6785 163.096V168.76C72.6785 168.856 72.6625 168.92 72.6305 168.952C72.5985 168.984 72.5452 169 72.4705 169H71.6545C71.5798 169 71.5265 168.979 71.4945 168.936C71.4625 168.883 71.4412 168.819 71.4305 168.744L71.4145 168.008C71.3825 167.859 71.3025 167.848 71.1745 167.976ZM71.3825 164.936C71.3825 164.755 71.3078 164.669 71.1585 164.68L70.1025 164.776C69.6118 164.797 69.1745 164.861 68.7905 164.968C68.4065 165.064 68.0812 165.192 67.8145 165.352C67.5478 165.512 67.3452 165.704 67.2065 165.928C67.0678 166.141 66.9985 166.392 66.9985 166.68C66.9985 167.149 67.1585 167.517 67.4785 167.784C67.8092 168.04 68.2518 168.168 68.8065 168.168C69.1478 168.168 69.4732 168.109 69.7825 167.992C70.1025 167.864 70.3798 167.704 70.6145 167.512C70.8598 167.309 71.0465 167.101 71.1745 166.888C71.3132 166.675 71.3825 166.467 71.3825 166.264V164.936ZM75.2841 169C75.2095 169 75.1508 168.984 75.1081 168.952C75.0761 168.909 75.0601 168.856 75.0601 168.792V160.728C75.0601 160.589 75.1188 160.52 75.2361 160.52H76.1641C76.2815 160.52 76.3401 160.579 76.3401 160.696V161.736C76.3401 161.8 76.3561 161.837 76.3881 161.848C76.4201 161.859 76.4628 161.837 76.5161 161.784C76.7935 161.453 77.0655 161.187 77.3321 160.984C77.6095 160.771 77.8868 160.616 78.1641 160.52C78.4415 160.413 78.7188 160.36 78.9961 160.36C79.3695 160.36 79.5561 160.429 79.5561 160.568V161.528C79.5561 161.635 79.5081 161.677 79.4121 161.656C79.3161 161.645 79.2041 161.635 79.0761 161.624C78.9588 161.613 78.8308 161.608 78.6921 161.608C78.4575 161.608 78.2068 161.661 77.9401 161.768C77.6735 161.864 77.4228 162.003 77.1881 162.184C76.9641 162.365 76.7775 162.568 76.6281 162.792C76.4788 163.016 76.4041 163.24 76.4041 163.464V168.76C76.4041 168.92 76.3241 169 76.1641 169H75.2841ZM89.487 167.976C89.0923 168.36 88.6603 168.653 88.191 168.856C87.7323 169.059 87.215 169.16 86.639 169.16C85.807 169.16 85.151 168.947 84.671 168.52C84.2017 168.093 83.967 167.533 83.967 166.84C83.967 166.275 84.127 165.789 84.447 165.384C84.767 164.968 85.2417 164.643 85.871 164.408C86.5003 164.163 87.2737 164.013 88.191 163.96L89.439 163.864C89.503 163.853 89.5617 163.832 89.615 163.8C89.6683 163.768 89.695 163.709 89.695 163.624V163.192C89.695 162.616 89.5137 162.163 89.151 161.832C88.799 161.491 88.319 161.32 87.711 161.32C87.2417 161.32 86.815 161.427 86.431 161.64C86.0577 161.853 85.7217 162.173 85.423 162.6C85.3803 162.653 85.343 162.691 85.311 162.712C85.2897 162.723 85.247 162.717 85.183 162.696L84.319 162.408C84.287 162.387 84.2603 162.36 84.239 162.328C84.2283 162.296 84.2443 162.237 84.287 162.152C84.607 161.597 85.055 161.16 85.631 160.84C86.2177 160.52 86.9323 160.36 87.775 160.36C88.4897 160.36 89.0817 160.472 89.551 160.696C90.031 160.909 90.3883 161.224 90.623 161.64C90.8683 162.045 90.991 162.531 90.991 163.096V168.76C90.991 168.856 90.975 168.92 90.943 168.952C90.911 168.984 90.8577 169 90.783 169H89.967C89.8923 169 89.839 168.979 89.807 168.936C89.775 168.883 89.7537 168.819 89.743 168.744L89.727 168.008C89.695 167.859 89.615 167.848 89.487 167.976ZM89.695 164.936C89.695 164.755 89.6203 164.669 89.471 164.68L88.415 164.776C87.9243 164.797 87.487 164.861 87.103 164.968C86.719 165.064 86.3937 165.192 86.127 165.352C85.8603 165.512 85.6577 165.704 85.519 165.928C85.3803 166.141 85.311 166.392 85.311 166.68C85.311 167.149 85.471 167.517 85.791 167.784C86.1217 168.04 86.5643 168.168 87.119 168.168C87.4603 168.168 87.7857 168.109 88.095 167.992C88.415 167.864 88.6923 167.704 88.927 167.512C89.1723 167.309 89.359 167.101 89.487 166.888C89.6257 166.675 89.695 166.467 89.695 166.264V164.936ZM100.315 160.36C100.869 160.36 101.355 160.451 101.771 160.632C102.197 160.803 102.56 161.043 102.859 161.352C103.168 161.651 103.424 161.981 103.627 162.344C103.691 162.472 103.664 162.552 103.547 162.584L102.667 162.792C102.592 162.824 102.523 162.792 102.459 162.696C102.245 162.387 102.032 162.136 101.819 161.944C101.616 161.752 101.397 161.608 101.163 161.512C100.928 161.405 100.672 161.352 100.395 161.352C99.8505 161.352 99.3705 161.491 98.9545 161.768C98.5492 162.035 98.2345 162.424 98.0105 162.936C97.7865 163.448 97.6745 164.056 97.6745 164.76C97.6745 165.475 97.7865 166.088 98.0105 166.6C98.2452 167.112 98.5652 167.501 98.9705 167.768C99.3865 168.035 99.8718 168.168 100.427 168.168C100.939 168.168 101.381 168.04 101.755 167.784C102.128 167.528 102.469 167.155 102.779 166.664C102.811 166.611 102.837 166.584 102.859 166.584C102.891 166.573 102.933 166.579 102.987 166.6L103.675 166.856C103.749 166.888 103.771 166.957 103.739 167.064C103.579 167.341 103.392 167.608 103.179 167.864C102.965 168.12 102.715 168.344 102.427 168.536C102.149 168.728 101.835 168.883 101.483 169C101.131 169.107 100.741 169.16 100.315 169.16C99.5252 169.16 98.8265 168.979 98.2185 168.616C97.6212 168.243 97.1518 167.731 96.8105 167.08C96.4692 166.419 96.2985 165.656 96.2985 164.792C96.2985 163.917 96.4692 163.149 96.8105 162.488C97.1625 161.827 97.6372 161.309 98.2345 160.936C98.8425 160.552 99.5358 160.36 100.315 160.36ZM108.909 169.16C108.109 169.16 107.4 168.979 106.781 168.616C106.173 168.243 105.698 167.731 105.357 167.08C105.026 166.419 104.861 165.661 104.861 164.808C104.861 163.923 105.032 163.149 105.373 162.488C105.725 161.816 106.205 161.293 106.813 160.92C107.421 160.547 108.125 160.36 108.925 160.36C109.736 160.36 110.44 160.552 111.037 160.936C111.645 161.309 112.114 161.832 112.445 162.504C112.786 163.165 112.957 163.928 112.957 164.792C112.957 165.645 112.786 166.403 112.445 167.064C112.104 167.715 111.629 168.227 111.021 168.6C110.424 168.973 109.72 169.16 108.909 169.16ZM108.941 168.152C109.496 168.152 109.97 168.019 110.365 167.752C110.76 167.475 111.058 167.085 111.261 166.584C111.474 166.072 111.581 165.464 111.581 164.76C111.581 164.056 111.474 163.453 111.261 162.952C111.048 162.44 110.744 162.045 110.349 161.768C109.954 161.491 109.48 161.352 108.925 161.352C108.381 161.352 107.906 161.491 107.501 161.768C107.096 162.045 106.781 162.44 106.557 162.952C106.344 163.453 106.237 164.056 106.237 164.76C106.237 165.453 106.344 166.056 106.557 166.568C106.781 167.08 107.096 167.475 107.501 167.752C107.906 168.019 108.386 168.152 108.941 168.152ZM115.159 169C115.01 169 114.935 168.931 114.935 168.792V160.728C114.935 160.589 114.994 160.52 115.111 160.52H116.071C116.188 160.52 116.247 160.579 116.247 160.696V161.624C116.247 161.677 116.258 161.709 116.279 161.72C116.3 161.731 116.338 161.715 116.391 161.672C116.743 161.395 117.068 161.16 117.367 160.968C117.676 160.765 117.991 160.616 118.311 160.52C118.631 160.413 118.972 160.36 119.335 160.36C120.167 160.36 120.802 160.584 121.239 161.032C121.687 161.48 121.911 162.061 121.911 162.776V168.744C121.911 168.915 121.831 169 121.671 169H120.775C120.7 169 120.647 168.984 120.615 168.952C120.583 168.909 120.567 168.856 120.567 168.792V163.08C120.567 162.557 120.434 162.152 120.167 161.864C119.9 161.565 119.479 161.416 118.903 161.416C118.594 161.416 118.3 161.469 118.023 161.576C117.756 161.672 117.484 161.816 117.207 162.008C116.93 162.189 116.62 162.424 116.279 162.712V168.76C116.279 168.92 116.199 169 116.039 169H115.159ZM126.316 161.528C126.23 161.528 126.188 161.571 126.188 161.656V166.728C126.188 167.229 126.273 167.565 126.444 167.736C126.614 167.907 126.87 167.992 127.212 167.992H128.316C128.369 167.992 128.412 168.008 128.444 168.04C128.476 168.061 128.492 168.104 128.492 168.168L128.476 168.712C128.476 168.819 128.412 168.888 128.284 168.92C128.177 168.941 128.022 168.957 127.82 168.968C127.628 168.979 127.436 168.989 127.244 169C127.062 169 126.908 169 126.78 169C126.108 169 125.617 168.845 125.308 168.536C124.998 168.216 124.844 167.715 124.844 167.032V161.688C124.844 161.581 124.79 161.528 124.684 161.528H123.404C123.286 161.528 123.228 161.469 123.228 161.352V160.68C123.228 160.573 123.281 160.52 123.388 160.52H124.748C124.822 160.52 124.86 160.477 124.86 160.392L125.036 157.848C125.046 157.709 125.105 157.64 125.212 157.64H126.012C126.14 157.64 126.204 157.715 126.204 157.864V160.392C126.204 160.477 126.246 160.52 126.332 160.52H128.348C128.465 160.52 128.524 160.568 128.524 160.664V161.352C128.524 161.469 128.465 161.528 128.348 161.528H126.316ZM135.143 167.976C134.749 168.36 134.317 168.653 133.847 168.856C133.389 169.059 132.871 169.16 132.295 169.16C131.463 169.16 130.807 168.947 130.327 168.52C129.858 168.093 129.623 167.533 129.623 166.84C129.623 166.275 129.783 165.789 130.103 165.384C130.423 164.968 130.898 164.643 131.527 164.408C132.157 164.163 132.93 164.013 133.847 163.96L135.095 163.864C135.159 163.853 135.218 163.832 135.271 163.8C135.325 163.768 135.351 163.709 135.351 163.624V163.192C135.351 162.616 135.17 162.163 134.807 161.832C134.455 161.491 133.975 161.32 133.367 161.32C132.898 161.32 132.471 161.427 132.087 161.64C131.714 161.853 131.378 162.173 131.079 162.6C131.037 162.653 130.999 162.691 130.967 162.712C130.946 162.723 130.903 162.717 130.839 162.696L129.975 162.408C129.943 162.387 129.917 162.36 129.895 162.328C129.885 162.296 129.901 162.237 129.943 162.152C130.263 161.597 130.711 161.16 131.287 160.84C131.874 160.52 132.589 160.36 133.431 160.36C134.146 160.36 134.738 160.472 135.207 160.696C135.687 160.909 136.045 161.224 136.279 161.64C136.525 162.045 136.647 162.531 136.647 163.096V168.76C136.647 168.856 136.631 168.92 136.599 168.952C136.567 168.984 136.514 169 136.439 169H135.623C135.549 169 135.495 168.979 135.463 168.936C135.431 168.883 135.41 168.819 135.399 168.744L135.383 168.008C135.351 167.859 135.271 167.848 135.143 167.976ZM135.351 164.936C135.351 164.755 135.277 164.669 135.127 164.68L134.071 164.776C133.581 164.797 133.143 164.861 132.759 164.968C132.375 165.064 132.05 165.192 131.783 165.352C131.517 165.512 131.314 165.704 131.175 165.928C131.037 166.141 130.967 166.392 130.967 166.68C130.967 167.149 131.127 167.517 131.447 167.784C131.778 168.04 132.221 168.168 132.775 168.168C133.117 168.168 133.442 168.109 133.751 167.992C134.071 167.864 134.349 167.704 134.583 167.512C134.829 167.309 135.015 167.101 135.143 166.888C135.282 166.675 135.351 166.467 135.351 166.264V164.936ZM143.347 165.288C143.347 165.811 143.469 166.291 143.715 166.728C143.971 167.155 144.307 167.496 144.723 167.752C145.149 168.008 145.624 168.136 146.147 168.136C146.68 168.136 147.155 168.029 147.571 167.816C147.987 167.592 148.344 167.256 148.643 166.808C148.685 166.765 148.717 166.744 148.739 166.744C148.771 166.733 148.813 166.739 148.867 166.76L149.539 167.096C149.635 167.149 149.645 167.224 149.571 167.32C149.283 167.747 148.963 168.099 148.611 168.376C148.269 168.643 147.885 168.84 147.459 168.968C147.032 169.096 146.552 169.16 146.019 169.16C145.229 169.16 144.531 168.979 143.923 168.616C143.315 168.253 142.835 167.747 142.483 167.096C142.131 166.445 141.955 165.693 141.955 164.84C141.955 163.912 142.131 163.117 142.483 162.456C142.845 161.784 143.331 161.267 143.939 160.904C144.557 160.541 145.245 160.36 146.003 160.36C146.781 160.36 147.459 160.531 148.035 160.872C148.611 161.213 149.059 161.709 149.379 162.36C149.699 163.011 149.859 163.795 149.859 164.712C149.859 164.787 149.848 164.861 149.827 164.936C149.816 165.011 149.747 165.048 149.619 165.048H143.491C143.448 165.048 143.411 165.075 143.379 165.128C143.357 165.171 143.347 165.224 143.347 165.288ZM148.243 164.168C148.36 164.168 148.435 164.157 148.467 164.136C148.499 164.104 148.515 164.04 148.515 163.944C148.515 163.485 148.413 163.059 148.211 162.664C148.019 162.259 147.736 161.933 147.363 161.688C147 161.443 146.557 161.32 146.035 161.32C145.459 161.32 144.973 161.459 144.579 161.736C144.184 162.003 143.885 162.355 143.683 162.792C143.48 163.229 143.379 163.688 143.379 164.168H148.243ZM156.274 160.52C156.423 160.52 156.498 160.6 156.498 160.76V161.432C156.498 161.517 156.514 161.565 156.546 161.576C156.588 161.576 156.642 161.549 156.706 161.496C156.823 161.368 156.983 161.219 157.186 161.048C157.388 160.867 157.65 160.707 157.97 160.568C158.3 160.429 158.716 160.36 159.218 160.36C159.868 160.36 160.455 160.52 160.978 160.84C161.511 161.149 161.932 161.619 162.242 162.248C162.562 162.877 162.722 163.672 162.722 164.632C162.722 165.592 162.567 166.408 162.258 167.08C161.948 167.752 161.516 168.269 160.962 168.632C160.418 168.984 159.778 169.16 159.042 169.16C158.551 169.16 158.114 169.085 157.73 168.936C157.356 168.776 157.036 168.584 156.77 168.36C156.674 168.275 156.604 168.243 156.562 168.264C156.53 168.275 156.514 168.339 156.514 168.456V171.432C156.514 171.571 156.455 171.64 156.338 171.64H155.346C155.228 171.64 155.17 171.571 155.17 171.432V160.776C155.17 160.68 155.186 160.616 155.218 160.584C155.26 160.541 155.33 160.52 155.426 160.52H156.274ZM156.514 167.128C156.844 167.448 157.18 167.704 157.522 167.896C157.874 168.088 158.263 168.184 158.69 168.184C159.202 168.184 159.655 168.051 160.05 167.784C160.455 167.517 160.77 167.123 160.994 166.6C161.228 166.077 161.346 165.427 161.346 164.648C161.346 163.869 161.228 163.235 160.994 162.744C160.759 162.253 160.444 161.896 160.05 161.672C159.666 161.448 159.239 161.336 158.77 161.336C158.332 161.336 157.943 161.432 157.602 161.624C157.26 161.816 156.994 162.056 156.802 162.344C156.61 162.621 156.514 162.899 156.514 163.176V167.128ZM169.596 167.976C169.202 168.36 168.77 168.653 168.3 168.856C167.842 169.059 167.324 169.16 166.748 169.16C165.916 169.16 165.26 168.947 164.78 168.52C164.311 168.093 164.076 167.533 164.076 166.84C164.076 166.275 164.236 165.789 164.556 165.384C164.876 164.968 165.351 164.643 165.98 164.408C166.61 164.163 167.383 164.013 168.3 163.96L169.548 163.864C169.612 163.853 169.671 163.832 169.724 163.8C169.778 163.768 169.804 163.709 169.804 163.624V163.192C169.804 162.616 169.623 162.163 169.26 161.832C168.908 161.491 168.428 161.32 167.82 161.32C167.351 161.32 166.924 161.427 166.54 161.64C166.167 161.853 165.831 162.173 165.532 162.6C165.49 162.653 165.452 162.691 165.42 162.712C165.399 162.723 165.356 162.717 165.292 162.696L164.428 162.408C164.396 162.387 164.37 162.36 164.348 162.328C164.338 162.296 164.354 162.237 164.396 162.152C164.716 161.597 165.164 161.16 165.74 160.84C166.327 160.52 167.042 160.36 167.884 160.36C168.599 160.36 169.191 160.472 169.66 160.696C170.14 160.909 170.498 161.224 170.732 161.64C170.978 162.045 171.1 162.531 171.1 163.096V168.76C171.1 168.856 171.084 168.92 171.052 168.952C171.02 168.984 170.967 169 170.892 169H170.076C170.002 169 169.948 168.979 169.916 168.936C169.884 168.883 169.863 168.819 169.852 168.744L169.836 168.008C169.804 167.859 169.724 167.848 169.596 167.976ZM169.804 164.936C169.804 164.755 169.73 164.669 169.58 164.68L168.524 164.776C168.034 164.797 167.596 164.861 167.212 164.968C166.828 165.064 166.503 165.192 166.236 165.352C165.97 165.512 165.767 165.704 165.628 165.928C165.49 166.141 165.42 166.392 165.42 166.68C165.42 167.149 165.58 167.517 165.9 167.784C166.231 168.04 166.674 168.168 167.228 168.168C167.57 168.168 167.895 168.109 168.204 167.992C168.524 167.864 168.802 167.704 169.036 167.512C169.282 167.309 169.468 167.101 169.596 166.888C169.735 166.675 169.804 166.467 169.804 166.264V164.936ZM181.146 160.376C181.253 160.376 181.327 160.397 181.37 160.44C181.423 160.483 181.45 160.547 181.45 160.632V161.192C181.45 161.288 181.423 161.363 181.37 161.416C181.327 161.469 181.247 161.491 181.13 161.48C180.959 161.48 180.81 161.491 180.682 161.512C180.554 161.533 180.426 161.571 180.298 161.624C180.042 161.72 179.935 161.843 179.978 161.992C180.031 162.109 180.09 162.253 180.154 162.424C180.218 162.584 180.25 162.803 180.25 163.08C180.25 163.549 180.127 163.981 179.882 164.376C179.637 164.76 179.253 165.069 178.73 165.304C178.218 165.539 177.567 165.656 176.778 165.656C176.234 165.656 175.807 165.688 175.498 165.752C175.189 165.816 174.97 165.901 174.842 166.008C174.714 166.115 174.65 166.227 174.65 166.344C174.65 166.515 174.762 166.637 174.986 166.712C175.221 166.787 175.594 166.84 176.106 166.872L178.17 166.984C179.109 167.037 179.797 167.261 180.234 167.656C180.671 168.051 180.89 168.568 180.89 169.208C180.89 170.008 180.533 170.637 179.818 171.096C179.114 171.565 178.106 171.8 176.794 171.8C175.439 171.8 174.405 171.603 173.69 171.208C172.986 170.824 172.634 170.269 172.634 169.544C172.634 169.171 172.762 168.835 173.018 168.536C173.285 168.237 173.658 167.971 174.138 167.736C174.255 167.683 174.255 167.624 174.138 167.56C173.903 167.453 173.722 167.325 173.594 167.176C173.466 167.016 173.402 166.829 173.402 166.616C173.402 166.467 173.45 166.317 173.546 166.168C173.642 166.019 173.781 165.88 173.962 165.752C174.154 165.624 174.383 165.512 174.65 165.416C174.714 165.395 174.746 165.368 174.746 165.336C174.746 165.304 174.719 165.267 174.666 165.224C174.197 164.989 173.85 164.696 173.626 164.344C173.402 163.992 173.29 163.571 173.29 163.08C173.29 162.248 173.605 161.592 174.234 161.112C174.863 160.632 175.754 160.392 176.906 160.392C177.461 160.392 177.93 160.456 178.314 160.584C178.709 160.712 179.039 160.888 179.306 161.112C179.37 161.165 179.429 161.192 179.482 161.192C179.535 161.192 179.589 161.165 179.642 161.112C179.77 160.995 179.914 160.883 180.074 160.776C180.234 160.659 180.405 160.563 180.586 160.488C180.778 160.413 180.965 160.376 181.146 160.376ZM176.778 164.808C177.525 164.808 178.079 164.659 178.442 164.36C178.805 164.051 178.986 163.619 178.986 163.064C178.986 162.499 178.805 162.056 178.442 161.736C178.079 161.405 177.525 161.24 176.778 161.24C176.063 161.24 175.509 161.405 175.114 161.736C174.73 162.056 174.538 162.499 174.538 163.064C174.538 163.619 174.73 164.051 175.114 164.36C175.509 164.659 176.063 164.808 176.778 164.808ZM175.37 167.96C175.178 167.949 174.965 168.008 174.73 168.136C174.495 168.253 174.287 168.419 174.106 168.632C173.925 168.845 173.834 169.096 173.834 169.384C173.834 169.715 173.946 169.997 174.17 170.232C174.405 170.477 174.751 170.659 175.21 170.776C175.679 170.904 176.255 170.968 176.938 170.968C177.823 170.968 178.495 170.835 178.954 170.568C179.413 170.312 179.642 169.912 179.642 169.368C179.642 169.016 179.519 168.728 179.274 168.504C179.039 168.28 178.629 168.152 178.042 168.12L175.37 167.96ZM187.784 167.976C187.389 168.36 186.957 168.653 186.488 168.856C186.029 169.059 185.512 169.16 184.936 169.16C184.104 169.16 183.448 168.947 182.968 168.52C182.499 168.093 182.264 167.533 182.264 166.84C182.264 166.275 182.424 165.789 182.744 165.384C183.064 164.968 183.539 164.643 184.168 164.408C184.797 164.163 185.571 164.013 186.488 163.96L187.736 163.864C187.8 163.853 187.859 163.832 187.912 163.8C187.965 163.768 187.992 163.709 187.992 163.624V163.192C187.992 162.616 187.811 162.163 187.448 161.832C187.096 161.491 186.616 161.32 186.008 161.32C185.539 161.32 185.112 161.427 184.728 161.64C184.355 161.853 184.019 162.173 183.72 162.6C183.677 162.653 183.64 162.691 183.608 162.712C183.587 162.723 183.544 162.717 183.48 162.696L182.616 162.408C182.584 162.387 182.557 162.36 182.536 162.328C182.525 162.296 182.541 162.237 182.584 162.152C182.904 161.597 183.352 161.16 183.928 160.84C184.515 160.52 185.229 160.36 186.072 160.36C186.787 160.36 187.379 160.472 187.848 160.696C188.328 160.909 188.685 161.224 188.92 161.64C189.165 162.045 189.288 162.531 189.288 163.096V168.76C189.288 168.856 189.272 168.92 189.24 168.952C189.208 168.984 189.155 169 189.08 169H188.264C188.189 169 188.136 168.979 188.104 168.936C188.072 168.883 188.051 168.819 188.04 168.744L188.024 168.008C187.992 167.859 187.912 167.848 187.784 167.976ZM187.992 164.936C187.992 164.755 187.917 164.669 187.768 164.68L186.712 164.776C186.221 164.797 185.784 164.861 185.4 164.968C185.016 165.064 184.691 165.192 184.424 165.352C184.157 165.512 183.955 165.704 183.816 165.928C183.677 166.141 183.608 166.392 183.608 166.68C183.608 167.149 183.768 167.517 184.088 167.784C184.419 168.04 184.861 168.168 185.416 168.168C185.757 168.168 186.083 168.109 186.392 167.992C186.712 167.864 186.989 167.704 187.224 167.512C187.469 167.309 187.656 167.101 187.784 166.888C187.923 166.675 187.992 166.467 187.992 166.264V164.936ZM191.894 169C191.819 169 191.76 168.984 191.718 168.952C191.686 168.909 191.67 168.856 191.67 168.792V160.728C191.67 160.589 191.728 160.52 191.846 160.52H192.774C192.891 160.52 192.95 160.579 192.95 160.696V161.736C192.95 161.8 192.966 161.837 192.998 161.848C193.03 161.859 193.072 161.837 193.126 161.784C193.403 161.453 193.675 161.187 193.942 160.984C194.219 160.771 194.496 160.616 194.774 160.52C195.051 160.413 195.328 160.36 195.606 160.36C195.979 160.36 196.166 160.429 196.166 160.568V161.528C196.166 161.635 196.118 161.677 196.022 161.656C195.926 161.645 195.814 161.635 195.686 161.624C195.568 161.613 195.44 161.608 195.302 161.608C195.067 161.608 194.816 161.661 194.549 161.768C194.283 161.864 194.032 162.003 193.798 162.184C193.574 162.365 193.387 162.568 193.238 162.792C193.088 163.016 193.014 163.24 193.014 163.464V168.76C193.014 168.92 192.934 169 192.774 169H191.894ZM204.736 160.36C205.291 160.36 205.776 160.451 206.192 160.632C206.619 160.803 206.982 161.043 207.28 161.352C207.59 161.651 207.846 161.981 208.048 162.344C208.112 162.472 208.086 162.552 207.968 162.584L207.088 162.792C207.014 162.824 206.944 162.792 206.88 162.696C206.667 162.387 206.454 162.136 206.24 161.944C206.038 161.752 205.819 161.608 205.584 161.512C205.35 161.405 205.094 161.352 204.816 161.352C204.272 161.352 203.792 161.491 203.376 161.768C202.971 162.035 202.656 162.424 202.432 162.936C202.208 163.448 202.096 164.056 202.096 164.76C202.096 165.475 202.208 166.088 202.432 166.6C202.667 167.112 202.987 167.501 203.392 167.768C203.808 168.035 204.294 168.168 204.848 168.168C205.36 168.168 205.803 168.04 206.176 167.784C206.55 167.528 206.891 167.155 207.2 166.664C207.232 166.611 207.259 166.584 207.28 166.584C207.312 166.573 207.355 166.579 207.408 166.6L208.096 166.856C208.171 166.888 208.192 166.957 208.16 167.064C208 167.341 207.814 167.608 207.6 167.864C207.387 168.12 207.136 168.344 206.848 168.536C206.571 168.728 206.256 168.883 205.904 169C205.552 169.107 205.163 169.16 204.736 169.16C203.947 169.16 203.248 168.979 202.64 168.616C202.043 168.243 201.574 167.731 201.232 167.08C200.891 166.419 200.72 165.656 200.72 164.792C200.72 163.917 200.891 163.149 201.232 162.488C201.584 161.827 202.059 161.309 202.656 160.936C203.264 160.552 203.958 160.36 204.736 160.36ZM213.331 169.16C212.531 169.16 211.822 168.979 211.203 168.616C210.595 168.243 210.12 167.731 209.779 167.08C209.448 166.419 209.283 165.661 209.283 164.808C209.283 163.923 209.454 163.149 209.795 162.488C210.147 161.816 210.627 161.293 211.235 160.92C211.843 160.547 212.547 160.36 213.347 160.36C214.158 160.36 214.862 160.552 215.459 160.936C216.067 161.309 216.536 161.832 216.867 162.504C217.208 163.165 217.379 163.928 217.379 164.792C217.379 165.645 217.208 166.403 216.867 167.064C216.526 167.715 216.051 168.227 215.443 168.6C214.846 168.973 214.142 169.16 213.331 169.16ZM213.363 168.152C213.918 168.152 214.392 168.019 214.787 167.752C215.182 167.475 215.48 167.085 215.683 166.584C215.896 166.072 216.003 165.464 216.003 164.76C216.003 164.056 215.896 163.453 215.683 162.952C215.47 162.44 215.166 162.045 214.771 161.768C214.376 161.491 213.902 161.352 213.347 161.352C212.803 161.352 212.328 161.491 211.923 161.768C211.518 162.045 211.203 162.44 210.979 162.952C210.766 163.453 210.659 164.056 210.659 164.76C210.659 165.453 210.766 166.056 210.979 166.568C211.203 167.08 211.518 167.475 211.923 167.752C212.328 168.019 212.808 168.152 213.363 168.152ZM219.581 169C219.432 169 219.357 168.931 219.357 168.792V160.728C219.357 160.589 219.416 160.52 219.533 160.52H220.493C220.6 160.52 220.653 160.579 220.653 160.696V161.624C220.653 161.677 220.664 161.709 220.685 161.72C220.717 161.731 220.76 161.715 220.813 161.672C221.154 161.395 221.469 161.16 221.757 160.968C222.056 160.765 222.354 160.616 222.653 160.52C222.962 160.413 223.293 160.36 223.645 160.36C224.274 160.36 224.776 160.504 225.149 160.792C225.533 161.08 225.789 161.405 225.917 161.768C225.938 161.811 225.97 161.827 226.013 161.816C226.056 161.805 226.098 161.779 226.141 161.736C226.482 161.448 226.802 161.203 227.101 161C227.41 160.797 227.72 160.643 228.029 160.536C228.349 160.419 228.685 160.36 229.037 160.36C229.816 160.36 230.418 160.584 230.845 161.032C231.272 161.469 231.485 162.061 231.485 162.808V168.744C231.485 168.915 231.405 169 231.245 169H230.349C230.274 169 230.221 168.984 230.189 168.952C230.157 168.909 230.141 168.856 230.141 168.792V163.08C230.141 162.557 230.013 162.152 229.757 161.864C229.512 161.565 229.122 161.416 228.589 161.416C228.28 161.416 227.981 161.475 227.693 161.592C227.416 161.709 227.16 161.853 226.925 162.024C226.701 162.195 226.498 162.355 226.317 162.504C226.232 162.579 226.173 162.653 226.141 162.728C226.109 162.792 226.093 162.877 226.093 162.984V168.744C226.093 168.915 226.013 169 225.853 169H224.957C224.893 169 224.84 168.984 224.797 168.952C224.765 168.909 224.749 168.856 224.749 168.792V163.08C224.749 162.557 224.626 162.152 224.381 161.864C224.136 161.565 223.746 161.416 223.213 161.416C222.765 161.416 222.354 161.523 221.981 161.736C221.608 161.949 221.181 162.275 220.701 162.712V168.76C220.701 168.92 220.621 169 220.461 169H219.581ZM242.367 162.392C242.154 162.072 241.855 161.811 241.471 161.608C241.087 161.405 240.628 161.304 240.095 161.304C239.519 161.304 239.039 161.427 238.655 161.672C238.282 161.917 238.095 162.248 238.095 162.664C238.095 162.888 238.18 163.101 238.351 163.304C238.522 163.496 238.868 163.677 239.391 163.848L241.423 164.456C242.159 164.659 242.687 164.952 243.007 165.336C243.338 165.72 243.503 166.163 243.503 166.664C243.503 167.165 243.354 167.603 243.055 167.976C242.756 168.349 242.346 168.643 241.823 168.856C241.3 169.059 240.708 169.16 240.047 169.16C239.204 169.16 238.468 168.995 237.839 168.664C237.21 168.323 236.762 167.901 236.495 167.4C236.463 167.347 236.447 167.299 236.447 167.256C236.447 167.213 236.474 167.176 236.527 167.144L237.151 166.792C237.204 166.76 237.252 166.749 237.295 166.76C237.338 166.76 237.37 166.776 237.391 166.808C237.572 167.085 237.78 167.325 238.015 167.528C238.26 167.731 238.548 167.891 238.879 168.008C239.22 168.125 239.615 168.184 240.063 168.184C240.468 168.173 240.836 168.115 241.167 168.008C241.498 167.901 241.759 167.747 241.951 167.544C242.143 167.331 242.239 167.085 242.239 166.808C242.239 166.52 242.122 166.275 241.887 166.072C241.652 165.859 241.247 165.672 240.671 165.512L239.023 165.048C238.223 164.835 237.658 164.547 237.327 164.184C237.007 163.821 236.842 163.395 236.831 162.904C236.831 162.392 236.97 161.949 237.247 161.576C237.524 161.192 237.908 160.893 238.399 160.68C238.9 160.467 239.471 160.36 240.111 160.36C240.826 160.36 241.46 160.499 242.015 160.776C242.58 161.043 243.007 161.4 243.295 161.848C243.327 161.891 243.343 161.933 243.343 161.976C243.343 162.008 243.322 162.04 243.279 162.072L242.607 162.44C242.564 162.461 242.522 162.472 242.479 162.472C242.447 162.461 242.41 162.435 242.367 162.392ZM246.362 165.288C246.362 165.811 246.485 166.291 246.73 166.728C246.986 167.155 247.322 167.496 247.738 167.752C248.165 168.008 248.64 168.136 249.162 168.136C249.696 168.136 250.17 168.029 250.586 167.816C251.002 167.592 251.36 167.256 251.658 166.808C251.701 166.765 251.733 166.744 251.754 166.744C251.786 166.733 251.829 166.739 251.882 166.76L252.554 167.096C252.65 167.149 252.661 167.224 252.586 167.32C252.298 167.747 251.978 168.099 251.626 168.376C251.285 168.643 250.901 168.84 250.474 168.968C250.048 169.096 249.568 169.16 249.034 169.16C248.245 169.16 247.546 168.979 246.938 168.616C246.33 168.253 245.85 167.747 245.498 167.096C245.146 166.445 244.97 165.693 244.97 164.84C244.97 163.912 245.146 163.117 245.498 162.456C245.861 161.784 246.346 161.267 246.954 160.904C247.573 160.541 248.261 160.36 249.018 160.36C249.797 160.36 250.474 160.531 251.05 160.872C251.626 161.213 252.074 161.709 252.394 162.36C252.714 163.011 252.874 163.795 252.874 164.712C252.874 164.787 252.864 164.861 252.842 164.936C252.832 165.011 252.762 165.048 252.634 165.048H246.506C246.464 165.048 246.426 165.075 246.394 165.128C246.373 165.171 246.362 165.224 246.362 165.288ZM251.258 164.168C251.376 164.168 251.45 164.157 251.482 164.136C251.514 164.104 251.53 164.04 251.53 163.944C251.53 163.485 251.429 163.059 251.226 162.664C251.034 162.259 250.752 161.933 250.378 161.688C250.016 161.443 249.573 161.32 249.05 161.32C248.474 161.32 247.989 161.459 247.594 161.736C247.2 162.003 246.901 162.355 246.698 162.792C246.496 163.229 246.394 163.688 246.394 164.168H251.258ZM262.427 160.376C262.534 160.376 262.609 160.397 262.651 160.44C262.705 160.483 262.731 160.547 262.731 160.632V161.192C262.731 161.288 262.705 161.363 262.651 161.416C262.609 161.469 262.529 161.491 262.411 161.48C262.241 161.48 262.091 161.491 261.963 161.512C261.835 161.533 261.707 161.571 261.579 161.624C261.323 161.72 261.217 161.843 261.259 161.992C261.313 162.109 261.371 162.253 261.435 162.424C261.499 162.584 261.531 162.803 261.531 163.08C261.531 163.549 261.409 163.981 261.163 164.376C260.918 164.76 260.534 165.069 260.011 165.304C259.499 165.539 258.849 165.656 258.059 165.656C257.515 165.656 257.089 165.688 256.779 165.752C256.47 165.816 256.251 165.901 256.123 166.008C255.995 166.115 255.931 166.227 255.931 166.344C255.931 166.515 256.043 166.637 256.267 166.712C256.502 166.787 256.875 166.84 257.387 166.872L259.451 166.984C260.39 167.037 261.078 167.261 261.515 167.656C261.953 168.051 262.171 168.568 262.171 169.208C262.171 170.008 261.814 170.637 261.099 171.096C260.395 171.565 259.387 171.8 258.075 171.8C256.721 171.8 255.686 171.603 254.971 171.208C254.267 170.824 253.915 170.269 253.915 169.544C253.915 169.171 254.043 168.835 254.299 168.536C254.566 168.237 254.939 167.971 255.419 167.736C255.537 167.683 255.537 167.624 255.419 167.56C255.185 167.453 255.003 167.325 254.875 167.176C254.747 167.016 254.683 166.829 254.683 166.616C254.683 166.467 254.731 166.317 254.827 166.168C254.923 166.019 255.062 165.88 255.243 165.752C255.435 165.624 255.665 165.512 255.931 165.416C255.995 165.395 256.027 165.368 256.027 165.336C256.027 165.304 256.001 165.267 255.947 165.224C255.478 164.989 255.131 164.696 254.907 164.344C254.683 163.992 254.571 163.571 254.571 163.08C254.571 162.248 254.886 161.592 255.515 161.112C256.145 160.632 257.035 160.392 258.187 160.392C258.742 160.392 259.211 160.456 259.595 160.584C259.99 160.712 260.321 160.888 260.587 161.112C260.651 161.165 260.71 161.192 260.763 161.192C260.817 161.192 260.87 161.165 260.923 161.112C261.051 160.995 261.195 160.883 261.355 160.776C261.515 160.659 261.686 160.563 261.867 160.488C262.059 160.413 262.246 160.376 262.427 160.376ZM258.059 164.808C258.806 164.808 259.361 164.659 259.723 164.36C260.086 164.051 260.267 163.619 260.267 163.064C260.267 162.499 260.086 162.056 259.723 161.736C259.361 161.405 258.806 161.24 258.059 161.24C257.345 161.24 256.79 161.405 256.395 161.736C256.011 162.056 255.819 162.499 255.819 163.064C255.819 163.619 256.011 164.051 256.395 164.36C256.79 164.659 257.345 164.808 258.059 164.808ZM256.651 167.96C256.459 167.949 256.246 168.008 256.011 168.136C255.777 168.253 255.569 168.419 255.387 168.632C255.206 168.845 255.115 169.096 255.115 169.384C255.115 169.715 255.227 169.997 255.451 170.232C255.686 170.477 256.033 170.659 256.491 170.776C256.961 170.904 257.537 170.968 258.219 170.968C259.105 170.968 259.777 170.835 260.235 170.568C260.694 170.312 260.923 169.912 260.923 169.368C260.923 169.016 260.801 168.728 260.555 168.504C260.321 168.28 259.91 168.152 259.323 168.12L256.651 167.96ZM267.268 168.104C267.727 168.104 268.164 167.981 268.58 167.736C269.007 167.48 269.428 167.139 269.844 166.712V160.76C269.844 160.6 269.93 160.52 270.1 160.52H270.98C271.13 160.52 271.204 160.595 271.204 160.744L271.172 168.792C271.172 168.931 271.114 169 270.996 169H270.068C269.951 169 269.892 168.941 269.892 168.824V167.88C269.892 167.827 269.882 167.795 269.86 167.784C269.839 167.773 269.802 167.789 269.748 167.832C269.162 168.333 268.639 168.68 268.18 168.872C267.732 169.064 267.284 169.16 266.836 169.16C266.346 169.16 265.908 169.059 265.524 168.856C265.14 168.653 264.836 168.371 264.612 168.008C264.388 167.635 264.276 167.203 264.276 166.712V160.776C264.276 160.605 264.356 160.52 264.516 160.52H265.412C265.551 160.52 265.62 160.595 265.62 160.744V166.36C265.62 166.883 265.764 167.304 266.052 167.624C266.351 167.944 266.756 168.104 267.268 168.104ZM273.878 169C273.803 169 273.745 168.984 273.702 168.952C273.67 168.909 273.654 168.856 273.654 168.792V160.728C273.654 160.589 273.713 160.52 273.83 160.52H274.758C274.875 160.52 274.934 160.579 274.934 160.696V161.736C274.934 161.8 274.95 161.837 274.982 161.848C275.014 161.859 275.057 161.837 275.11 161.784C275.387 161.453 275.659 161.187 275.926 160.984C276.203 160.771 276.481 160.616 276.758 160.52C277.035 160.413 277.313 160.36 277.59 160.36C277.963 160.36 278.15 160.429 278.15 160.568V161.528C278.15 161.635 278.102 161.677 278.006 161.656C277.91 161.645 277.798 161.635 277.67 161.624C277.553 161.613 277.425 161.608 277.286 161.608C277.051 161.608 276.801 161.661 276.534 161.768C276.267 161.864 276.017 162.003 275.782 162.184C275.558 162.365 275.371 162.568 275.222 162.792C275.073 163.016 274.998 163.24 274.998 163.464V168.76C274.998 168.92 274.918 169 274.758 169H273.878ZM284.565 167.976C284.17 168.36 283.738 168.653 283.269 168.856C282.81 169.059 282.293 169.16 281.717 169.16C280.885 169.16 280.229 168.947 279.749 168.52C279.28 168.093 279.045 167.533 279.045 166.84C279.045 166.275 279.205 165.789 279.525 165.384C279.845 164.968 280.32 164.643 280.949 164.408C281.578 164.163 282.352 164.013 283.269 163.96L284.517 163.864C284.581 163.853 284.64 163.832 284.693 163.8C284.746 163.768 284.773 163.709 284.773 163.624V163.192C284.773 162.616 284.592 162.163 284.229 161.832C283.877 161.491 283.397 161.32 282.789 161.32C282.32 161.32 281.893 161.427 281.509 161.64C281.136 161.853 280.8 162.173 280.501 162.6C280.458 162.653 280.421 162.691 280.389 162.712C280.368 162.723 280.325 162.717 280.261 162.696L279.397 162.408C279.365 162.387 279.338 162.36 279.317 162.328C279.306 162.296 279.322 162.237 279.365 162.152C279.685 161.597 280.133 161.16 280.709 160.84C281.296 160.52 282.01 160.36 282.853 160.36C283.568 160.36 284.16 160.472 284.629 160.696C285.109 160.909 285.466 161.224 285.701 161.64C285.946 162.045 286.069 162.531 286.069 163.096V168.76C286.069 168.856 286.053 168.92 286.021 168.952C285.989 168.984 285.936 169 285.861 169H285.045C284.97 169 284.917 168.979 284.885 168.936C284.853 168.883 284.832 168.819 284.821 168.744L284.805 168.008C284.773 167.859 284.693 167.848 284.565 167.976ZM284.773 164.936C284.773 164.755 284.698 164.669 284.549 164.68L283.493 164.776C283.002 164.797 282.565 164.861 282.181 164.968C281.797 165.064 281.472 165.192 281.205 165.352C280.938 165.512 280.736 165.704 280.597 165.928C280.458 166.141 280.389 166.392 280.389 166.68C280.389 167.149 280.549 167.517 280.869 167.784C281.2 168.04 281.642 168.168 282.197 168.168C282.538 168.168 282.864 168.109 283.173 167.992C283.493 167.864 283.77 167.704 284.005 167.512C284.25 167.309 284.437 167.101 284.565 166.888C284.704 166.675 284.773 166.467 284.773 166.264V164.936ZM288.675 169C288.525 169 288.451 168.931 288.451 168.792V160.728C288.451 160.589 288.509 160.52 288.627 160.52H289.587C289.704 160.52 289.763 160.579 289.763 160.696V161.624C289.763 161.677 289.773 161.709 289.795 161.72C289.816 161.731 289.853 161.715 289.907 161.672C290.259 161.395 290.584 161.16 290.883 160.968C291.192 160.765 291.507 160.616 291.827 160.52C292.147 160.413 292.488 160.36 292.851 160.36C293.683 160.36 294.317 160.584 294.755 161.032C295.203 161.48 295.427 162.061 295.427 162.776V168.744C295.427 168.915 295.347 169 295.187 169H294.291C294.216 169 294.163 168.984 294.131 168.952C294.099 168.909 294.083 168.856 294.083 168.792V163.08C294.083 162.557 293.949 162.152 293.683 161.864C293.416 161.565 292.995 161.416 292.419 161.416C292.109 161.416 291.816 161.469 291.539 161.576C291.272 161.672 291 161.816 290.723 162.008C290.445 162.189 290.136 162.424 289.795 162.712V168.76C289.795 168.92 289.715 169 289.555 169H288.675ZM301.315 160.36C301.869 160.36 302.355 160.451 302.771 160.632C303.197 160.803 303.56 161.043 303.859 161.352C304.168 161.651 304.424 161.981 304.627 162.344C304.691 162.472 304.664 162.552 304.547 162.584L303.667 162.792C303.592 162.824 303.523 162.792 303.459 162.696C303.245 162.387 303.032 162.136 302.819 161.944C302.616 161.752 302.397 161.608 302.163 161.512C301.928 161.405 301.672 161.352 301.395 161.352C300.851 161.352 300.371 161.491 299.955 161.768C299.549 162.035 299.235 162.424 299.011 162.936C298.787 163.448 298.674 164.056 298.674 164.76C298.674 165.475 298.787 166.088 299.011 166.6C299.245 167.112 299.565 167.501 299.971 167.768C300.387 168.035 300.872 168.168 301.427 168.168C301.939 168.168 302.381 168.04 302.755 167.784C303.128 167.528 303.469 167.155 303.779 166.664C303.811 166.611 303.837 166.584 303.859 166.584C303.891 166.573 303.933 166.579 303.987 166.6L304.675 166.856C304.749 166.888 304.771 166.957 304.739 167.064C304.579 167.341 304.392 167.608 304.179 167.864C303.965 168.12 303.715 168.344 303.427 168.536C303.149 168.728 302.835 168.883 302.483 169C302.131 169.107 301.741 169.16 301.315 169.16C300.525 169.16 299.827 168.979 299.219 168.616C298.621 168.243 298.152 167.731 297.811 167.08C297.469 166.419 297.299 165.656 297.299 164.792C297.299 163.917 297.469 163.149 297.811 162.488C298.163 161.827 298.637 161.309 299.235 160.936C299.843 160.552 300.536 160.36 301.315 160.36ZM302.771 171.096C302.771 171.373 302.691 171.603 302.531 171.784C302.371 171.965 302.157 172.104 301.891 172.2C301.635 172.307 301.347 172.36 301.027 172.36C300.76 172.36 300.509 172.328 300.275 172.264C300.04 172.211 299.821 172.125 299.619 172.008C299.555 171.965 299.533 171.917 299.555 171.864L299.731 171.448C299.763 171.395 299.811 171.384 299.875 171.416C300.003 171.501 300.141 171.571 300.291 171.624C300.451 171.688 300.643 171.72 300.867 171.72C301.176 171.72 301.405 171.667 301.555 171.56C301.704 171.464 301.779 171.315 301.779 171.112C301.779 170.867 301.672 170.685 301.459 170.568C301.256 170.451 300.931 170.387 300.483 170.376C300.429 170.376 300.392 170.365 300.371 170.344C300.36 170.333 300.365 170.312 300.387 170.28L300.979 168.92H301.731L301.363 169.832C301.341 169.885 301.363 169.912 301.427 169.912C301.768 169.933 302.035 170.003 302.227 170.12C302.429 170.248 302.568 170.397 302.643 170.568C302.728 170.739 302.771 170.915 302.771 171.096ZM311.346 167.976C310.952 168.36 310.52 168.653 310.05 168.856C309.592 169.059 309.074 169.16 308.498 169.16C307.666 169.16 307.01 168.947 306.53 168.52C306.061 168.093 305.826 167.533 305.826 166.84C305.826 166.275 305.986 165.789 306.306 165.384C306.626 164.968 307.101 164.643 307.73 164.408C308.36 164.163 309.133 164.013 310.05 163.96L311.298 163.864C311.362 163.853 311.421 163.832 311.474 163.8C311.528 163.768 311.554 163.709 311.554 163.624V163.192C311.554 162.616 311.373 162.163 311.01 161.832C310.658 161.491 310.178 161.32 309.57 161.32C309.101 161.32 308.674 161.427 308.29 161.64C307.917 161.853 307.581 162.173 307.282 162.6C307.24 162.653 307.202 162.691 307.17 162.712C307.149 162.723 307.106 162.717 307.042 162.696L306.178 162.408C306.146 162.387 306.12 162.36 306.098 162.328C306.088 162.296 306.104 162.237 306.146 162.152C306.466 161.597 306.914 161.16 307.49 160.84C308.077 160.52 308.792 160.36 309.634 160.36C310.349 160.36 310.941 160.472 311.41 160.696C311.89 160.909 312.248 161.224 312.482 161.64C312.728 162.045 312.85 162.531 312.85 163.096V168.76C312.85 168.856 312.834 168.92 312.802 168.952C312.77 168.984 312.717 169 312.642 169H311.826C311.752 169 311.698 168.979 311.666 168.936C311.634 168.883 311.613 168.819 311.602 168.744L311.586 168.008C311.554 167.859 311.474 167.848 311.346 167.976ZM311.554 164.936C311.554 164.755 311.48 164.669 311.33 164.68L310.274 164.776C309.784 164.797 309.346 164.861 308.962 164.968C308.578 165.064 308.253 165.192 307.986 165.352C307.72 165.512 307.517 165.704 307.378 165.928C307.24 166.141 307.17 166.392 307.17 166.68C307.17 167.149 307.33 167.517 307.65 167.784C307.981 168.04 308.424 168.168 308.978 168.168C309.32 168.168 309.645 168.109 309.954 167.992C310.274 167.864 310.552 167.704 310.786 167.512C311.032 167.309 311.218 167.101 311.346 166.888C311.485 166.675 311.554 166.467 311.554 166.264V164.936Z" fill="#53565A"/>
</g>
<defs>
<filter id="filter0_d_134_11066" x="0" y="0" width="362" height="205" filterUnits="userSpaceOnUse" color-interpolation-filters="sRGB">
<feFlood flood-opacity="0" result="BackgroundImageFix"/>
<feColorMatrix in="SourceAlpha" type="matrix" values="0 0 0 0 0 0 0 0 0 0 0 0 0 0 0 0 0 0 127 0" result="hardAlpha"/>
<feOffset dy="4"/>
<feGaussianBlur stdDeviation="6"/>
<feColorMatrix type="matrix" values="0 0 0 0 0 0 0 0 0 0 0 0 0 0 0 0 0 0 0.08 0"/>
<feBlend mode="normal" in2="BackgroundImageFix" result="effect1_dropShadow_134_11066"/>
<feBlend mode="normal" in="SourceGraphic" in2="effect1_dropShadow_134_11066" result="shape"/>
</filter>
</defs>
</svg>
