<svg width="24" height="24" viewBox="0 0 24 24" fill="none" xmlns="http://www.w3.org/2000/svg">
<path d="M12.1973 14.9883C12.4023 14.9824 12.5898 14.9062 12.7422 14.7422L17.1953 10.1836C17.3242 10.0547 17.3945 9.89062 17.3945 9.69727C17.3945 9.31055 17.0898 9 16.7031 9C16.5156 9 16.334 9.07617 16.1992 9.21094L12.2031 13.3184L8.19531 9.21094C8.06055 9.08203 7.88477 9 7.69141 9C7.30469 9 7 9.31055 7 9.69727C7 9.89062 7.07031 10.0547 7.19922 10.1836L11.6582 14.7422C11.8164 14.9062 11.9922 14.9883 12.1973 14.9883Z" fill="white"/>
</svg>
