<svg width="1440" height="468" viewBox="0 0 1440 468" fill="none" xmlns="http://www.w3.org/2000/svg">
<g clip-path="url(#clip0_134_11096)">
<path d="M553.729 -214.179C588.357 -127.237 581.809 -72.7294 534.087 -50.6547C462.502 -17.5425 292.289 -4.29794 221.14 67.5309C149.993 139.358 -66.9426 83.8307 -104.044 -39.4482C-141.145 -162.727 -207.945 -352.74 144.3 -352.74C379.134 -352.74 515.607 -306.554 553.728 -214.179H553.729Z" fill="#FFFA72"/>
<path d="M1130.36 -42.5201C1227.32 200.915 1208.98 353.538 1075.36 415.347C874.924 508.061 398.327 545.146 199.109 746.267C-0.100952 947.384 -607.522 791.906 -711.405 446.725C-815.289 101.544 -1002.33 -430.493 -16.041 -430.493C641.492 -430.493 1023.62 -301.171 1130.36 -42.5201H1130.36Z" fill="#111111"/>
<path d="M1082.31 -56.8248C1174.07 173.569 1156.72 318.016 1030.25 376.514C840.555 464.261 389.49 499.359 200.945 689.706C12.4067 880.048 -562.474 732.9 -660.792 406.211C-759.11 79.5215 -936.131 -424.013 -2.67944 -424.013C619.628 -424.013 981.283 -301.62 1082.3 -56.8248H1082.31Z" fill="#151515"/>
<path d="M1034.25 -71.1298C1120.83 146.223 1104.45 282.493 985.149 337.68C806.188 420.46 380.654 453.572 202.782 633.144C24.9152 812.713 -517.425 673.893 -610.178 365.696C-702.931 57.4987 -869.932 -417.534 10.6829 -417.534C597.766 -417.534 938.949 -302.068 1034.25 -71.1298H1034.25Z" fill="#1A1A1A"/>
<path d="M986.202 -85.4348C1067.58 118.877 1052.19 246.971 940.042 298.846C771.819 376.66 371.817 407.785 204.617 576.582C37.4223 745.377 -472.377 614.887 -559.565 325.181C-646.753 35.476 -803.734 -411.055 24.0439 -411.055C575.902 -411.055 896.614 -302.517 986.199 -85.4348H986.202Z" fill="#1E1E1E"/>
<path d="M938.149 -99.7396C1014.33 91.531 999.924 211.449 894.936 260.013C737.45 332.86 362.98 361.998 206.452 520.021C49.9299 678.042 -427.329 555.881 -508.952 284.667C-590.575 13.4536 -737.536 -404.575 37.4055 -404.575C554.038 -404.575 854.28 -302.965 938.146 -99.7396H938.149Z" fill="#222222"/>
<path d="M890.097 -114.045C961.085 64.1849 947.66 175.926 849.83 221.18C703.082 289.059 354.144 316.211 208.289 463.46C62.4385 610.706 -382.28 496.874 -458.338 244.153C-534.395 -8.56915 -671.336 -398.096 50.768 -398.096C532.176 -398.096 811.946 -303.414 890.094 -114.045H890.097Z" fill="#262626"/>
<path d="M842.044 -128.349C907.838 36.839 895.395 140.404 804.724 182.346C668.713 245.259 345.307 270.424 210.124 406.899C74.9458 543.371 -337.233 437.868 -407.725 203.638C-478.217 -30.5916 -605.138 -391.616 64.1292 -391.616C510.312 -391.616 769.612 -303.863 842.042 -128.349H842.044Z" fill="#2B2B2B"/>
<path d="M793.992 -142.654C854.591 9.49274 843.131 104.882 759.618 143.513C634.345 201.459 336.471 224.637 211.961 350.337C87.4542 476.035 -292.184 378.862 -357.111 163.124C-422.038 -52.6143 -538.939 -385.137 77.4916 -385.137C488.45 -385.137 727.278 -304.311 793.99 -142.654H793.992Z" fill="#2F2F2F"/>
<path d="M745.939 -156.959C801.344 -17.8532 790.866 69.3596 714.511 104.679C599.976 157.659 327.634 178.85 213.796 293.776C99.9617 408.7 -247.136 319.856 -306.498 122.609C-365.86 -74.6368 -472.741 -378.658 90.853 -378.658C466.586 -378.658 684.943 -304.76 745.937 -156.959H745.939Z" fill="#333333"/>
<path d="M697.887 -171.264C748.098 -45.1993 738.603 33.8372 669.406 65.8456C565.608 113.858 318.799 133.063 215.633 237.215C112.47 341.365 -202.087 260.849 -255.884 82.0949C-309.681 -96.6595 -406.541 -372.178 104.215 -372.178C444.723 -372.178 642.61 -305.208 697.885 -171.264H697.887Z" fill="#373737"/>
<path d="M649.834 -185.569C694.851 -72.5455 686.338 -1.68512 624.299 27.0121C531.239 70.0578 309.962 87.2758 217.468 180.653C124.978 274.029 -157.039 201.843 -205.271 41.5804C-253.502 -118.682 -340.343 -365.699 117.577 -365.699C422.86 -365.699 600.275 -305.657 649.833 -185.569H649.834Z" fill="#3C3C3C"/>
<path d="M601.781 -199.874C641.604 -99.8914 634.073 -37.2073 579.193 -11.8213C496.87 26.2577 301.125 41.4889 219.303 124.092C137.485 206.694 -111.992 142.837 -154.658 1.06604C-197.324 -140.705 -274.145 -359.22 130.938 -359.22C400.996 -359.22 557.941 -306.106 601.78 -199.874H601.781Z" fill="#404040"/>
</g>
<defs>
<clipPath id="clip0_134_11096">
<rect width="1440" height="468" fill="white" transform="matrix(-1 0 0 1 1440 0)"/>
</clipPath>
</defs>
</svg>
