<svg width="1440" height="857" viewBox="0 0 1440 857" fill="none" xmlns="http://www.w3.org/2000/svg">
<g clip-path="url(#clip0_205_9845)">
<path d="M553.729 -393.576C588.357 -233.813 581.809 -133.648 534.087 -93.0836C462.502 -32.2365 292.289 -7.89813 221.14 124.095C149.993 256.086 -66.9426 154.048 -104.044 -72.4906C-141.145 -299.029 -207.945 -648.198 144.3 -648.198C379.134 -648.198 515.607 -563.326 553.728 -393.576H553.729Z" fill="#FFFA72"/>
<path d="M1130.36 -78.1351C1227.32 369.203 1208.98 649.663 1075.36 763.245C874.924 933.616 398.327 1001.76 199.109 1371.34C-0.100952 1740.92 -607.522 1455.21 -711.405 820.905C-815.289 186.598 -1002.33 -791.076 -16.041 -791.076C641.492 -791.076 1023.62 -553.434 1130.36 -78.1351H1130.36Z" fill="#111111"/>
<path d="M1082.31 -104.422C1174.07 318.952 1156.72 584.387 1030.25 691.884C840.555 853.128 389.49 917.625 200.945 1267.41C12.4067 1617.18 -562.474 1346.78 -660.792 746.455C-759.11 146.129 -936.131 -779.17 -2.67944 -779.17C619.628 -779.17 981.283 -554.259 1082.3 -104.422H1082.31Z" fill="#151515"/>
<path d="M1034.25 -130.709C1120.83 268.701 1104.45 519.111 985.149 620.523C806.188 772.641 380.654 833.487 202.782 1163.47C24.9152 1493.45 -517.425 1238.35 -610.178 672.005C-702.931 105.66 -869.932 -767.263 10.6829 -767.263C597.766 -767.263 938.949 -555.083 1034.25 -130.709H1034.25Z" fill="#1A1A1A"/>
<path d="M986.202 -156.995C1067.58 218.449 1052.19 453.835 940.042 549.162C771.819 692.153 371.817 749.348 204.617 1059.53C37.4223 1369.71 -472.377 1129.92 -559.565 597.556C-646.753 65.1912 -803.734 -755.357 24.0439 -755.357C575.902 -755.357 896.614 -555.907 986.199 -156.995H986.202Z" fill="#1E1E1E"/>
<path d="M938.149 -183.282C1014.33 168.198 999.924 388.559 894.936 477.802C737.45 611.665 362.98 665.21 206.452 955.595C49.9299 1245.97 -427.329 1021.49 -508.952 523.106C-590.575 24.7223 -737.536 -743.45 37.4055 -743.45C554.038 -743.45 854.28 -556.731 938.146 -183.282H938.149Z" fill="#222222"/>
<path d="M890.097 -209.569C961.085 117.947 947.66 323.283 849.83 406.441C703.082 531.177 354.144 581.071 208.289 851.657C62.4385 1122.24 -382.28 913.06 -458.338 448.656C-534.395 -15.7468 -671.336 -731.544 50.768 -731.544C532.176 -731.544 811.946 -557.556 890.094 -209.569H890.097Z" fill="#262626"/>
<path d="M842.044 -235.856C907.838 67.6955 895.395 258.008 804.724 335.081C668.713 450.69 345.307 496.933 210.124 747.72C74.9458 998.502 -337.233 804.63 -407.725 374.207C-478.217 -56.2154 -605.138 -719.637 64.1292 -719.637C510.312 -719.637 769.612 -558.38 842.042 -235.856H842.044Z" fill="#2B2B2B"/>
<path d="M793.992 -262.142C854.591 17.4442 843.131 192.732 759.618 263.72C634.345 370.202 336.471 412.794 211.961 643.783C87.4542 874.766 -292.184 696.199 -357.111 299.758C-422.038 -96.6842 -538.939 -707.73 77.4916 -707.73C488.45 -707.73 727.278 -559.204 793.99 -262.142H793.992Z" fill="#2F2F2F"/>
<path d="M745.939 -288.429C801.344 -32.8073 790.866 127.455 714.511 192.359C599.976 289.714 327.634 328.656 213.796 539.845C99.9617 751.03 -247.136 587.769 -306.498 225.308C-365.86 -137.153 -472.741 -695.824 90.853 -695.824C466.586 -695.824 684.943 -560.029 745.937 -288.429H745.939Z" fill="#333333"/>
<path d="M697.887 -314.716C748.098 -83.0585 738.603 62.1796 669.406 120.999C565.608 209.227 318.799 244.517 215.633 435.908C112.47 627.294 -202.087 479.339 -255.884 150.858C-309.681 -177.622 -406.541 -683.918 104.215 -683.918C444.723 -683.918 642.61 -560.853 697.885 -314.716H697.887Z" fill="#373737"/>
<path d="M649.834 -341.003C694.851 -133.31 686.338 -3.09631 624.299 49.6378C531.239 128.739 309.962 160.379 217.468 331.97C124.978 503.558 -157.039 370.908 -205.271 76.4087C-253.502 -218.091 -340.343 -672.011 117.577 -672.011C422.86 -672.011 600.275 -561.677 649.833 -341.003H649.834Z" fill="#3C3C3C"/>
<path d="M601.781 -367.29C641.604 -183.561 634.073 -68.3724 579.193 -21.7229C496.87 48.2512 301.125 76.2403 219.303 228.033C137.485 379.822 -111.992 262.478 -154.658 1.95898C-197.324 -258.56 -274.145 -660.105 130.938 -660.105C400.996 -660.105 557.941 -562.502 601.78 -367.29H601.781Z" fill="#404040"/>
</g>
<defs>
<clipPath id="clip0_205_9845">
<rect width="1440" height="860" fill="white" transform="matrix(-1 0 0 1 1440 0)"/>
</clipPath>
</defs>
</svg>
