<svg width="40" height="40" viewBox="0 0 40 40" fill="none" xmlns="http://www.w3.org/2000/svg">
<rect x="8" y="6" width="24" height="27" fill="black"/>
<path fill-rule="evenodd" clip-rule="evenodd" d="M0 20C0 8.97167 8.97167 0 20 0C31.0283 0 40 8.97167 40 20C40 31.0283 31.0283 40 20 40C8.97167 40 0 31.0283 0 20ZM28.7834 16.2082C28.7834 16.0182 28.78 15.8299 28.77 15.6415C29.3268 15.2386 29.7829 14.3012 30.196 13.4523C30.4185 12.9951 30.6285 12.5635 30.835 12.2549C30.835 12.2549 28.585 12.4999 27.585 12.6982C26.7834 11.8432 25.645 11.3115 24.3834 11.3115C21.96 11.3115 19.995 13.2749 19.995 15.6982C19.995 16.0399 20.0334 16.3765 20.1084 16.6965C16.4617 16.5165 13.23 14.7682 11.0667 12.1132C10.69 12.7632 10.4734 13.5165 10.4734 14.3199C10.4734 15.8415 11.2484 17.1815 12.425 17.9699C11.7084 17.9449 11.03 17.7482 10.4384 17.4199V17.4782C10.4384 19.6015 11.95 21.3765 13.9567 21.7765C13.315 21.9549 12.6384 21.9782 11.9767 21.8532C12.535 23.5965 14.155 24.8632 16.0734 24.9015C14.1984 26.3715 11.8684 26.9849 9.57837 26.7165C11.52 27.9615 13.8267 28.6899 16.3034 28.6899C24.3717 28.6899 28.7834 22.0032 28.7834 16.2082Z" fill="white"/>
</svg>
