<svg width="40" height="40" viewBox="0 0 40 40" fill="none" xmlns="http://www.w3.org/2000/svg">
<rect x="11" y="6" width="17" height="27" fill="black"/>
<path fill-rule="evenodd" clip-rule="evenodd" d="M0 20C0 8.97167 8.97167 0 20 0C31.0283 0 40 8.97167 40 20C40 31.0283 31.0283 40 20 40C8.97167 40 0 31.0283 0 20ZM22.5 19.1667H25.9916L26.3983 15.8333H22.5V14.1283C22.5 13.255 23.08 13.05 23.4866 13.05H25.8333V9.20667L21.915 9.19501C18.0866 9.19501 17.5 12.06 17.5 13.8933V15.8333H14.1666V19.1667H17.5V30.8333H22.5V19.1667Z" fill="white"/>
</svg>
