<svg width="40" height="40" viewBox="0 0 40 40" fill="none" xmlns="http://www.w3.org/2000/svg">
<rect x="8" y="6" width="24" height="27" fill="black"/>
<path opacity="0.88" d="M14.2413 15.8683C14.4613 15.4867 14.713 15.1333 14.9997 14.8033V10H13.333V15.87L14.2413 15.8683Z" fill="white"/>
<path d="M20 24.1665C22.7614 24.1665 25 21.9279 25 19.1665C25 16.4051 22.7614 14.1665 20 14.1665C17.2386 14.1665 15 16.4051 15 19.1665C15 21.9279 17.2386 24.1665 20 24.1665Z" fill="white"/>
<path fill-rule="evenodd" clip-rule="evenodd" d="M20.0003 12.5C18.782 12.5 17.652 12.8533 16.667 13.4267V10H26.9453C28.6303 10 30.0003 11.37 30.0003 13.0517V15.835L25.7453 15.8433C24.5903 13.855 22.462 12.5 20.0003 12.5ZM28.3337 11.6667H26.667V13.3334H28.3337V11.6667Z" fill="white"/>
<path fill-rule="evenodd" clip-rule="evenodd" d="M0 20C0 8.97167 8.97167 0 20 0C31.0283 0 40 8.97167 40 20C40 31.0283 31.0283 40 20 40C8.97167 40 0 31.0283 0 20ZM26.945 31.6666C29.5484 31.6666 31.6667 29.5483 31.6667 26.9433V13.0533C31.6667 10.45 29.5484 8.33331 26.945 8.33331H13.055C10.4517 8.33331 8.33337 10.45 8.33337 13.0533V26.9433C8.33337 29.5483 10.4517 31.6666 13.055 31.6666H26.945Z" fill="white"/>
<path opacity="0.88" d="M11.6667 15.8734V10.3501C10.6817 10.8568 10 11.8718 10 13.0534V15.8784L11.6667 15.8734Z" fill="white"/>
</svg>
